<?xml version="1.0" encoding="UTF-8"?><svg id="Laag_1" xmlns="http://www.w3.org/2000/svg" viewBox="0 0 960 560"><defs><style>.cls-1{fill:#f2f2f2;}.cls-2{fill:#e6e6e6;}.cls-3{fill:#f4f4f4;}.cls-4{fill:#fff;}.cls-5{fill:#ffb6b6;}.cls-6{fill:#ffb7b7;}.cls-7{fill:#8c1cec;}.cls-8{fill:#ccc;}.cls-9{fill:#3f3d56;}.cls-10{fill:#5c0f9e;}.cls-11{fill:#2f2e41;}</style></defs><path class="cls-1" d="M760.33,464.41l1.13-25.4c11.77-6.29,24.91-9.62,38.26-9.68-18.37,15.02-16.08,43.98-28.53,64.18-7.97,12.7-21.28,21.09-36.18,22.8l-15.38,9.41c-4.27-23.8,2.1-48.28,17.42-66.99,4.3-5.14,9.23-9.72,14.68-13.64,3.68,9.71,8.6,19.31,8.6,19.31Z"/><path class="cls-1" d="M527.17,532.04c-7.83-.56-9.87,.99-21.72,0h-21.72l2.83-51.98,34.2,13.7,169.94,4.17-.1,.29c-.08,.22-7.62,22.29-1.72,30.65l.24,.35h-.48l-155.9,1.43c-1.7,.02-3.88,1.51-5.57,1.39Z"/><path class="cls-8" d="M535.98,532.72c-15.13-1.08-30.79,4.8-43.87-1.83l-10.45,.63-.03-.09c-.08-.24-5.02-39.09,4.96-54.15l.44-.66,.34,3.57-3.29,48.39,7.29-2.43c17.71,8.34,38.77,2.83,59.05,2.75l137.95-.51c2.89,0,5.3,1.96,5.37,4.4v.24h-149.44c-2.79-.01-5.56-.11-8.33-.31Z"/><polygon class="cls-2" points="681.11 508.42 525.86 505.33 525.7 505.27 489.02 491.53 489.72 489.68 526.24 503.36 681.15 506.44 681.11 508.42"/><polygon class="cls-2" points="680.28 516.73 525.03 513.64 524.88 513.59 488.2 499.84 488.89 497.99 525.41 511.68 680.32 514.76 680.28 516.73"/><polygon class="cls-2" points="679.45 525.04 524.2 521.96 524.05 521.9 487.37 508.15 488.06 506.3 524.58 519.99 679.49 523.07 679.45 525.04"/><path class="cls-2" d="M537.05,498.47c-14.39-.97-28.43-4.93-41.21-11.63l-10.76-5.71,.28-2.82c.16-.86,.95-1.45,1.82-1.38h.95l144.78,2.14c9.48,.12,18.86,1.82,27.78,5.04l31.55,11.45-.02,.17c-.26,2.66-2.95,4.71-6.1,4.68l-142.61-1.67c-2.16-.03-4.31-.11-6.45-.27Z"/><polygon class="cls-8" points="691.93 496.18 691.9 496.18 518.28 492.2 518.16 492.14 486.86 477.65 487.18 477.16 488.13 477.17 518.57 491.28 690.58 495.22 691.96 495.25 691.93 496.18"/><path class="cls-8" d="M556.96,478.19l-2.2-.03-49.76-.74-2.36-.03c11.37,12.1,36.51,15.13,73.35,10.44l-19.03-9.64Z"/><polygon class="cls-5" points="696.85 188.7 699.89 195.76 694.93 220.83 644.32 213.8 644.72 183.22 645.74 176.52 696.85 188.7"/><polygon class="cls-5" points="723 513.68 711.83 513.68 706.52 470.61 723 470.61 723 513.68"/><path class="cls-11" d="M689.79,528.25c0,2.63,2.14,4.77,4.77,4.77h21.24l3.66-7.56,1.42,7.56h8.01l-2.25-27-3.64-.21-12.23-.73-1.97-.12v7.65l-16.95,11.71c-1.29,.89-2.06,2.36-2.06,3.93Z"/><polygon class="cls-5" points="619.8 464.31 608.63 464.31 602.06 400.9 623.04 399.65 619.8 464.31"/><path class="cls-11" d="M586.59,478.88c0,2.63,2.14,4.77,4.77,4.77h21.24l3.66-7.56,1.42,7.56h8.01l-2.25-27-3.25-.19-12.44-.75-2.15-.12v7.65l-16.95,11.71c-1.29,.89-2.06,2.36-2.06,3.93Z"/><path class="cls-11" d="M727.74,476.54h-.04l-2.15-70.02c2.82-5.44,2.73-11.94-.24-17.3l-.31-.56,.8-3.69c1.02-4.75,.55-9.69-1.34-14.16l-2-65.32c7.16-46.38-26.95-76.63-26.95-76.63l3.13-24.31-55.17,1.25,.94,23.06-10.97,37.69c-5.77,56.24-44.62,91.59-38.72,145.37,.01,.15-.01,.31-.07,.45-1.21,3.68-.81,7.71,1.11,11.08,.25,.43,.41,.89,.5,1.37,1.22,9.43,1.38-2.5,2.99,6.85l-.31,.16c-1.13,.39-1.61,1.95-1.08,3.5s1.88,2.47,3.01,2.08l29.49,.32c1.13-.39,1.61-1.95,1.08-3.5-.53-1.54-1.88-2.47-3.01-2.08l-1.83,.93,3.07-10.04,1.08-1c1.89-1.76,1.99-4.72,.23-6.61-.25-.26-.52-.5-.82-.7h0l3.06-16.32-.43-12.34,.89-14,38.69-56.07,15.66,77.45,15.99,83.89c-.76,.68-1.11,1.71-.92,2.72,.3,1.42,1.57,2.43,3.03,2.4h21.71c1.63,0,2.96-1.33,2.95-2.96,0-.26-.04-.53-.11-.78-.38-1.3-1.58-2.18-2.93-2.16Z"/><path class="cls-11" d="M708.43,69.55c0,15.08-12.22,27.32-27.3,27.32-15.08,0-27.32-12.22-27.32-27.3,0-7.07,2.74-13.87,7.65-18.96l.13-.13c.22-.23,.44-.46,.67-.68,0,0,.01,0,.01-.01h0c.31-.23,.6-.49,.86-.78,3.69-5.15,7.87-9.47,17.99-6.77,14.58,3.89,27.31,12.23,27.31,27.31Z"/><path class="cls-5" d="M558.4,57.85c-.23,5.52,4.05,10.19,9.57,10.42,.59,.02,1.18,0,1.76-.08l70.44,57.81,10.76-18.91-72.62-50.88c-1.11-5.44-6.42-8.96-11.86-7.86-4.56,.93-7.88,4.85-8.05,9.5h0Z"/><path class="cls-7" d="M669.91,143.05s-.02-2.08-11.22-2c-13.9,.1-52.18-19.86-48.83-38.65-3.27,1.48-7.13,.55-9.37-2.25l18.64-17.94c5.85,.39,5.91,4.31,5.41,6.55l14.98,5.95,39.01,22.41-6.89,22.51-1.72,3.41Z"/><circle class="cls-6" cx="674.39" cy="75.87" r="22.9"/><path class="cls-7" d="M642.91,189.78c-2.61,3.48-2.42,8.31,.45,11.58,.01,.67,.11,1.32,1.06,3.73,.12,.23,.27,.45,.44,.66,.03,.05,.06,.1,.1,.15,1,1.3,2.4,2.24,3.98,2.68l41.92,11.7,5.54,1.55,.97,.27,.54-7.57c2.58-2.14,3.21-5.83,1.49-8.7l-.77-1.28,4.5-12.1,.44-1.2,11.48-30.89v-2.06l.03-2.13,.11-14.85c.01-9.49-4.42-18.43-11.98-24.16-3.4-2.59-7.31-4.43-11.48-5.37h-.09l-4.54-6.11-18.4,1.84-1.52,3.12-1.85,3.76-13.34,7.94-4.56,10.59-3.08,7.17c-4.77,3.43-7.61,7.83-8.43,13.07-1.75,11.13,6.05,22.27,6.98,23.55l.24,12.78-.24,.31Z"/><path class="cls-11" d="M698.36,81.87c-.21-.03-.42-.08-.62-.11-3.57-.63-7.15-1.26-10.71-1.9l-.33-8.07-4.32,7.23c-9.84,3.27-19.05,1.42-27.72-2.65-2.86-1.36-5.63-2.89-8.3-4.58-.88-13.65,4.64-22.4,14.91-21.48,.38,.03,.64-.35,.97-.51,0,0,.01,0,.01-.01h0c.56-.26,1.13-.51,1.69-.74,9.08-3.55,19.39-1.55,26.48,5.13,6.99,6.68,10.14,17.7,7.92,27.7Z"/><path class="cls-10" d="M697.74,81.76s-6.78-25.32-35.87-31.17c-.03-.01-.14-.05-.28-.12-.09-.05-.2-.11-.31-.16,.33-.19,.64-.35,.97-.51,0,0,.01,0,.01-.01h0c.28-.26,.57-.52,.86-.78l.83,.03s29.18-4.62,33.78,32.72Z"/><path class="cls-11" d="M708.92,241.4c-1.1,.94-2.63,1.19-3.97,.64-1.31-.55-2.47-1.4-3.39-2.48-3.77-3.95-6.46-8.8-7.82-14.09l1.26-2.23c-1.02-5.68,2.06-11.3,7.39-13.5,1.47-.62,3.1-.77,4.66-.41,1.57,.39,2.81,1.61,3.21,3.18,.48,2.39-1.51,4.55-3.52,5.92-3.51,2.38-7.58,3.84-11.81,4.22,5.17,2.92,9.65,6.93,13.1,11.76,.8,1.01,1.39,2.16,1.73,3.4,.34,1.26,.01,2.61-.86,3.58Z"/><path id="be339808-9edc-488a-82d9-9b8c80f783b0-438" class="cls-8" d="M419.43,533.84h384.37c.68,0,1.23-.55,1.23-1.23s-.55-1.23-1.23-1.23H419.43c-.68,0-1.23,.55-1.23,1.23s.55,1.23,1.23,1.23h0Z"/><path class="cls-4" d="M521.51,217.29v.64c-1.38-1.62-2.8-3.23-4.2-4.84-.59-.67-1.17-1.34-1.76-2.01-2.49-2.83-4.99-5.64-7.51-8.45-2.53-2.8-5.06-5.59-7.62-8.38-.62-.67-1.23-1.34-1.86-2.01-.5-.56-1.05-1.09-1.64-1.57-.59-.49-1.27-.87-2-1.1-.84-.23-1.73-.24-2.57-.03-.97,.22-1.89,.57-2.83,.87-.97,.32-1.92,.63-2.88,.94-1.93,.63-3.85,1.26-5.78,1.89-.1,.04-.21,0-.25-.11h0c-.04-.11,0-.22,.11-.26,.01,0,.02,0,.03-.01,.48-.15,.96-.31,1.45-.46,1.94-.64,3.87-1.27,5.82-1.9,.96-.32,1.93-.63,2.9-.94,.9-.34,1.84-.53,2.8-.56,1.56,.11,3.03,.8,4.11,1.93,.6,.56,1.15,1.15,1.69,1.75,.64,.7,1.29,1.4,1.93,2.1,2.59,2.83,5.16,5.66,7.71,8.5,2.56,2.85,5.1,5.71,7.61,8.57,.18,.21,.36,.42,.55,.63,1.41,1.59,2.8,3.2,4.2,4.81Z"/><path class="cls-4" d="M496.71,193.25c-.53-.68-1.23-1.2-2.04-1.51l-.8,.03c6.24,9.71,14.42,18.03,24.02,24.45-7.06-7.65-14.13-15.31-21.19-22.96Z"/><path class="cls-8" d="M626.97,294.19l-31.68-169.64c-1.12-5.76-6.07-9.98-11.93-10.17-.26,0-.51,0-.77,0l-21.58,.77-2.32,.09-10.77,.39-2.32,.08-6.93,.25-139.71,5.02c-.21,.01-.43,.01-.64,0l-31.31-.65-11.59-.24h-.37l-8.55-.19-74.51-1.55-19.76-.42-9.74-.2-2.33-.05-11.11-.23-2.33-.05-11.36-.23-2.33-.05-12.49-.26-1.96-.04-11.14-.23-1.76-.03h-.26c-6.1,.02-11.3,4.44-12.31,10.46l-28.65,176.04c-1.11,6.79,3.5,13.2,10.29,14.31,.66,.11,1.34,.16,2.01,.16h164.56c2.42,0,4.78,.78,6.73,2.22l3.12,2.31c2.15,1.58,4.75,2.44,7.42,2.45,31.78-8.39,65.2-8.39,96.98,0,3.31,0,6.49-1.31,8.82-3.66,1.98-1.97,4.61-3.15,7.4-3.3l163.58-8.62c6.88-.36,12.16-6.22,11.8-13.1-.03-.55-.09-1.1-.2-1.64h0Z"/><path class="cls-3" d="M582.14,267.74c-.44,11.97-10.49,21.32-22.46,20.89-9.5-.34-20.83-.5-33.14-.25-40.18,.86-90.65,6.39-121.01,26.27-3.82,2.5-8.33,3.74-12.89,3.53-.34-.02-.66-.04-1-.07-4.73-.43-9.18-2.41-12.68-5.62-16.73-15.3-55.09-33.84-142.89-35.14-.37,0-.72-.02-1.08-.04-11.95-.75-21.03-11.05-20.28-23.01v-.02l8.63-136.96,1.29-20.53,2.27-35.91c.48-7.51,6.7-13.35,14.22-13.36h.09l52.31,.31c22.04,1,40.29,3.8,54.76,8.42,4.94,1.53,9.75,3.47,14.38,5.79,6.32,3.06,11.99,7.3,16.73,12.49,2.95,3.31,6.97,5.49,11.35,6.13,.68,.1,1.37,.16,2.05,.19,4.05,.17,8.04-.98,11.38-3.26,34.17-22.9,103.81-24.64,142.27-23.65,11.14,.26,20.27,8.94,21.09,20.05l1.56,20.43,1.55,20.37,8.95,117.73,2.49,32.75c.06,.81,.08,1.63,.05,2.45Z"/><path class="cls-9" d="M249.09,95.73c31.52-10.06,66.69-7.4,96.56,6.77,8.52,4.02,16.57,8.98,24,14.78,2.1,1.65,5.09-1.3,2.97-2.97-27.43-21.28-61.9-31.38-96.47-28.29-9.57,.86-19.01,2.75-28.16,5.66-2.56,.82-1.47,4.87,1.12,4.05h0Z"/><path class="cls-9" d="M422.56,118.92c29.31-15.41,64.41-18.76,96.27-10.02,9.09,2.49,17.87,5.98,26.18,10.41,2.38,1.27,4.5-2.35,2.12-3.62-30.37-16.21-66.83-19.94-100-10.9-9.25,2.52-18.2,6.05-26.69,10.51-2.39,1.26-.27,4.88,2.12,3.62Z"/><path class="cls-9" d="M422.56,146.89c29.31-15.41,64.41-18.76,96.27-10.02,9.09,2.49,17.87,5.98,26.18,10.41,2.38,1.27,4.5-2.35,2.12-3.62-30.37-16.21-66.83-19.94-100-10.9-9.25,2.52-18.2,6.05-26.69,10.51-2.39,1.26-.27,4.88,2.12,3.62h0Z"/><path class="cls-4" d="M441.02,173.58l-.57,.41c.19-.14,.39-.28,.59-.4h-.03Z"/><path class="cls-9" d="M249.09,123.71c31.52-10.06,66.69-7.4,96.56,6.77,8.52,4.02,16.57,8.98,24,14.78,2.1,1.65,5.09-1.3,2.97-2.97-27.43-21.28-61.9-31.38-96.47-28.29-9.57,.86-19.01,2.75-28.16,5.66-2.56,.82-1.47,4.87,1.12,4.05h0Z"/><path class="cls-9" d="M249.09,151.68c31.52-10.06,66.69-7.4,96.56,6.77,8.52,4.02,16.57,8.98,24,14.78,2.1,1.65,5.09-1.3,2.97-2.97-27.43-21.28-61.9-31.38-96.47-28.29-9.57,.86-19.01,2.75-28.16,5.66-2.56,.82-1.47,4.87,1.12,4.05h0Z"/><path class="cls-9" d="M249.09,179.65c31.52-10.06,66.69-7.4,96.56,6.77,8.52,4.02,16.57,8.98,24,14.78,2.1,1.65,5.09-1.3,2.97-2.97-27.43-21.28-61.9-31.38-96.47-28.29-9.57,.86-19.01,2.75-28.16,5.66-2.56,.82-1.47,4.87,1.12,4.05h0Z"/><path class="cls-9" d="M249.09,207.62c31.52-10.06,66.69-7.4,96.56,6.77,8.52,4.02,16.57,8.98,24,14.78,2.1,1.65,5.09-1.3,2.97-2.97-27.43-21.28-61.9-31.38-96.47-28.29-9.57,.86-19.01,2.75-28.16,5.66-2.56,.82-1.47,4.87,1.12,4.05h0Z"/><path class="cls-9" d="M249.09,235.59c31.52-10.06,66.69-7.4,96.56,6.77,8.52,4.02,16.57,8.98,24,14.78,2.1,1.65,5.09-1.3,2.97-2.97-27.43-21.28-61.9-31.38-96.47-28.29-9.57,.86-19.01,2.75-28.16,5.66-2.56,.82-1.47,4.87,1.12,4.05h0Z"/><path class="cls-10" d="M362.67,62.05v67.07c0,1.33-2.33,2.45-5.47,2.75-.03,0-.05,0-.08,0-.52,.04-1.08,.07-1.64,.07-1.73,.03-3.45-.25-5.09-.83-.15-.06-.3-.13-.44-.19-.14-.08-.29-.15-.42-.23-.78-.46-1.23-1.01-1.23-1.59V56.27c4.94,1.53,9.75,3.47,14.38,5.79Z"/><rect class="cls-2" x="390.75" y="77.61" width="2.05" height="239.18"/><path class="cls-5" d="M616.17,241.35c5.5-.5,9.56-5.37,9.05-10.87-.05-.59-.16-1.17-.31-1.74l42.63-19.9,25.67-41.52-20.17-8.15-17.31,33.46-43.83,29.2c-5.25,1.82-8.03,7.55-6.21,12.8,1.52,4.39,5.86,7.17,10.48,6.71h0Z"/><path class="cls-7" d="M709.04,127.54s5.02,1.64-.49,11.39c-4.41,7.8-25.92,52.74-34.7,61.57,1.9,3.04,1.5,6.99-.98,9.59l-20.26-16.08c-.39-5.85,3.48-6.43,5.78-6.23l4.66-16.52,16.26-40.76,26.12-4.2,3.61,1.25Z"/><path class="cls-11" d="M709.48,51.15c.96-3.87,7.91-6.73-4-12.14-2.89-1.31-2.77-5.83-5.21-7.86s-6.02-2.96-8.86-1.55c-2.54,1.26-3.97,4.12-4.27,6.94-.15,2.84,.18,5.68,.97,8.4l-.23,.34c4.72,3.61,9.43,7.22,14.15,10.83,1.73,1.33,4,2.71,5.94,1.72,2.2-1.13,.93-4.28,1.52-6.68Z"/></svg>