<?xml version="1.0" encoding="UTF-8"?><svg id="Laag_1" xmlns="http://www.w3.org/2000/svg" viewBox="0 0 960 560"><defs><style>.cls-1{fill:#f2f2f2;}.cls-2{fill:#e6e6e6;}.cls-3{fill:#fff;}.cls-4{fill:#a0616a;}.cls-5{fill:#ccc;}.cls-6{fill:#3f3d56;}.cls-7{fill:#5c0f9e;}.cls-8{fill:#32cbe4;}.cls-9{fill:#2f2e41;}</style></defs><path class="cls-1" d="M525.6,315.78l-208.76,53.76c-14.74,3.78-29.77-5.09-33.58-19.83l-63.14-245.18c-3.78-14.74,5.09-29.77,19.83-33.58L434.17,20.95l49.71,22.25,61.55,239c3.78,14.74-5.09,29.77-19.83,33.58Z"/><path class="cls-3" d="M241.93,78.65c-10.49,2.71-16.81,13.41-14.12,23.91l63.14,245.18c2.71,10.49,13.41,16.81,23.91,14.12l208.76-53.76c10.49-2.71,16.81-13.41,14.12-23.91l-60.59-235.3-43.69-19.56-191.53,49.32Z"/><path class="cls-1" d="M483.35,44.47l-32.31,8.32c-4.91,1.26-9.92-1.69-11.18-6.6l-6.14-23.86c-.08-.31,.11-.62,.41-.7,.13-.03,.26-.02,.38,.03l48.94,21.73c.29,.13,.42,.47,.29,.76-.07,.16-.21,.28-.38,.32Z"/><path class="cls-5" d="M466.35,253.84l-95.05,24.48c-2.46,.63-4.96-.85-5.59-3.3-.63-2.46,.85-4.96,3.3-5.59h0l95.05-24.48c2.46-.63,4.96,.85,5.59,3.3,.63,2.46-.85,4.96-3.3,5.59Z"/><path class="cls-5" d="M488.56,264.13l-113.39,29.2c-2.46,.63-4.96-.85-5.59-3.31-.63-2.45,.85-4.95,3.3-5.59l113.39-29.2c2.46-.63,4.96,.85,5.59,3.3s-.85,4.96-3.3,5.59Z"/><circle id="a597741b-ffcf-4aba-98b0-6652ef5d57c9" class="cls-2" cx="332.51" cy="291.57" r="16.23" transform="translate(18.11 602.57) rotate(-85.93)"/><path class="cls-3" d="M456.25,211.37l-126.23,32.49c-7.6,1.95-15.33-2.62-17.3-10.22l-26.45-102.77c-1.95-7.6,2.62-15.33,10.22-17.3l126.23-32.49c7.6-1.95,15.33,2.62,17.3,10.22l26.45,102.77c1.95,7.6-2.62,15.33-10.22,17.3Z"/><path class="cls-2" d="M456.25,211.37l-126.23,32.49c-7.6,1.95-15.33-2.62-17.3-10.22l-26.45-102.77c-1.95-7.6,2.62-15.33,10.22-17.3l126.23-32.49c7.6-1.95,15.33,2.62,17.3,10.22l26.45,102.77c1.95,7.6-2.62,15.33-10.22,17.3Zm-159.35-96.17c-6.7,1.73-10.73,8.56-9.01,15.26l26.45,102.77c1.73,6.7,8.56,10.73,15.26,9.01l126.23-32.49c6.7-1.73,10.73-8.56,9.01-15.26l-26.45-102.77c-1.73-6.7-8.56-10.73-15.26-9.01l-126.23,32.49Z"/><path id="b056fd3f-f1a0-44f0-b006-deff0bee637d-318" class="cls-1" d="M416.31,115.64l-63.71,16.4c-1.16,.32-2.36-.3-2.76-1.44-.37-1.16,.28-2.39,1.43-2.76,.04-.01,.08-.02,.11-.03l64.85-16.69c2.62,1.33,1.93,4.04,.07,4.52h0Z"/><path id="f1ea6668-a825-428d-96fe-a2c4e1b5a672-319" class="cls-1" d="M419.18,126.82l-63.71,16.4c-1.16,.32-2.36-.3-2.76-1.44-.37-1.16,.28-2.39,1.43-2.76,.04-.01,.08-.02,.11-.03l64.85-16.69c2.62,1.33,1.93,4.04,.07,4.52h0Z"/><path id="ee9aa382-a9c9-40d0-8ed3-22ec2dd616d6-320" class="cls-2" d="M343.34,153.13l-19.44,5c-1.32,.34-2.67-.46-3.01-1.78l-5.91-22.94c-.34-1.32,.46-2.67,1.78-3.01l19.44-5c1.32-.34,2.67,.46,3.01,1.78l5.91,22.94c.34,1.32-.46,2.67-1.78,3.01h0Z"/><path id="be954d2b-d8b8-4d26-80a0-a319e99a4b10-321" class="cls-1" d="M424.89,149.75l-97.23,25.03c-1.16,.32-2.36-.3-2.76-1.44-.37-1.16,.28-2.39,1.43-2.76,.04-.01,.08-.02,.11-.03l98.37-25.32c2.62,1.33,1.93,4.04,.07,4.52h0Z"/><path id="baaae9e4-1b4d-40c2-8a9d-f2abb078b489-322" class="cls-1" d="M427.77,160.93l-97.23,25.03c-1.16,.32-2.36-.3-2.76-1.44-.37-1.16,.28-2.39,1.43-2.76,.04-.01,.08-.02,.11-.03l98.37-25.32c2.62,1.33,1.93,4.04,.07,4.52h0Z"/><path id="a91bf4c9-37f6-4391-92ed-1882bd0ce21c-323" class="cls-1" d="M430.64,172.1l-97.23,25.03c-1.16,.32-2.36-.3-2.76-1.44-.37-1.16,.28-2.39,1.43-2.76,.04-.01,.08-.02,.11-.03l98.37-25.32c2.62,1.33,1.93,4.04,.07,4.52h0Z"/><path id="efb98e07-468b-4c85-9a64-ee4cc5493d6f-324" class="cls-1" d="M433.52,183.27l-97.23,25.03c-1.16,.32-2.36-.3-2.76-1.44-.37-1.16,.28-2.39,1.43-2.76,.04-.01,.08-.02,.11-.03l98.37-25.32c2.62,1.33,1.93,4.04,.07,4.52Z"/><path id="aeb1db98-32e5-40b8-ab89-fdad6a3263dc-325" class="cls-1" d="M436.39,194.44l-97.23,25.03c-1.16,.32-2.36-.3-2.76-1.44-.37-1.16,.28-2.39,1.43-2.76,.04-.01,.08-.02,.11-.03l98.37-25.32c2.62,1.33,1.93,4.04,.07,4.52Z"/><path id="be265de5-288f-49a7-867d-c42e7cdbf4db-326" class="cls-3" d="M333.71,297.26c-.35,.09-.73,.07-1.06-.07h-.02l-4.42-1.88c-.86-.36-1.27-1.36-.9-2.22,.36-.86,1.36-1.27,2.22-.9h0l2.86,1.22,3.75-8.83c.37-.86,1.36-1.26,2.22-.9h0l-.02,.06,.02-.06c.86,.37,1.26,1.36,.9,2.22l-4.42,10.38c-.21,.49-.63,.85-1.14,.98h0Z"/><path class="cls-2" d="M605.67,409.21h-215.57c-15.22-.02-27.56-12.35-27.57-27.57V128.47c.02-15.22,12.35-27.56,27.57-27.57h200.56l42.59,33.95v246.8c-.02,15.22-12.35,27.56-27.57,27.57Z"/><path class="cls-3" d="M390.1,108.83c-10.84,.01-19.62,8.8-19.64,19.64v253.17c.01,10.84,8.8,19.62,19.64,19.64h215.57c10.84-.01,19.62-8.8,19.64-19.64V138.66l-37.43-29.83h-197.78Z"/><path class="cls-8" d="M563.74,182.45h-98.15c-2.54,0-4.59-2.06-4.59-4.6,0-2.53,2.05-4.58,4.59-4.59h98.15c2.54,0,4.59,2.05,4.6,4.59,0,2.54-2.05,4.59-4.59,4.6h0Z"/><path class="cls-8" d="M582.69,197.94h-117.09c-2.54,0-4.59-2.06-4.59-4.59s2.06-4.59,4.59-4.59h117.09c2.54,0,4.59,2.06,4.59,4.59s-2.06,4.59-4.59,4.59Z"/><path class="cls-5" d="M563.75,242.71h-98.14c-2.54,0-4.59,2.05-4.6,4.59s2.05,4.59,4.59,4.6h98.16c2.54,0,4.59-2.06,4.59-4.6,0-2.53-2.05-4.58-4.59-4.59Z"/><path class="cls-5" d="M582.69,258.21h-117.09c-2.54,0-4.59,2.05-4.6,4.59s2.05,4.59,4.59,4.6h117.1c2.54,0,4.59-2.06,4.59-4.6,0-2.53-2.05-4.58-4.59-4.59Z"/><path class="cls-5" d="M563.74,321.35h-98.15c-2.54,0-4.59-2.06-4.59-4.6,0-2.53,2.05-4.58,4.59-4.59h98.15c2.54,0,4.59,2.05,4.6,4.59,0,2.54-2.05,4.59-4.59,4.6h0Z"/><path class="cls-5" d="M582.69,336.84h-117.09c-2.54,0-4.59-2.06-4.59-4.59s2.06-4.59,4.59-4.59h117.09c2.54,0,4.59,2.06,4.59,4.59s-2.06,4.59-4.59,4.59Z"/><circle id="abdb8e2f-a218-463c-85f4-c869fef49971" class="cls-8" cx="424.73" cy="185.6" r="16.23"/><path id="ba7dbbd6-0052-44b1-a552-47a8298b8d3e-327" class="cls-3" d="M423.12,191.79c-.37,0-.72-.12-1.01-.34h-.02l-3.81-2.93c-.74-.57-.89-1.63-.32-2.38,.57-.74,1.63-.89,2.38-.32h0l2.47,1.9,5.84-7.62c.57-.74,1.63-.88,2.38-.31h0l-.04,.05,.04-.05c.74,.57,.88,1.63,.31,2.38l-6.87,8.95c-.32,.42-.82,.66-1.35,.66h0Z"/><path class="cls-5" d="M442.62,255.05c0,8.96-7.26,16.23-16.22,16.23h0c-.14,0-.28,0-.42-.02-8.96-.23-16.04-7.68-15.81-16.64,.23-8.96,7.68-16.04,16.64-15.81,8.8,.23,15.81,7.43,15.81,16.23Z"/><circle id="e4a71040-498e-4958-ad41-c2d79154b8f7" class="cls-5" cx="424.73" cy="324.5" r="16.23"/><path class="cls-5" d="M632.42,135.93h-33.36c-5.07,0-9.18-4.11-9.18-9.18h0v-24.64c0-.32,.26-.57,.57-.57,.13,0,.25,.04,.36,.12l41.97,33.25c.25,.2,.29,.56,.09,.81-.11,.14-.27,.22-.45,.22Z"/><path class="cls-8" d="M442.62,255.05c0,8.96-7.26,16.23-16.22,16.23h0c-.14,0-.28,0-.42-.02-4.25-10.61-3.08-22.63,3.15-32.22,7.79,1.34,13.49,8.09,13.49,16Z"/><path class="cls-8" d="M461.01,247.31c0-2.54,2.06-4.59,4.6-4.6h24.46c1.43,2.91,2.44,6,3.02,9.18h-27.47c-2.53,0-4.59-2.05-4.6-4.59Z"/><path class="cls-8" d="M493.64,258.21c0,3.1-.41,6.19-1.22,9.18h-26.82c-2.54,0-4.59-2.05-4.6-4.59s2.05-4.59,4.59-4.6h28.05Z"/><path class="cls-6" d="M554.15,314.84c-1.44,2.36-4.53,3.11-6.89,1.67l-58.49-35.68c-2.36-1.44-3.11-4.53-1.67-6.89,1.44-2.36,4.53-3.11,6.89-1.67l58.49,35.68c2.36,1.44,3.11,4.53,1.67,6.89Z"/><path class="cls-6" d="M495.66,279.16c-11.53,18.91-36.21,24.89-55.12,13.35-18.91-11.53-24.89-36.21-13.35-55.12,11.53-18.91,36.21-24.89,55.12-13.35h0c18.89,11.55,24.86,36.21,13.35,55.12Zm-59.92-36.55c-8.65,14.18-4.17,32.69,10.02,41.34,14.18,8.65,32.69,4.17,41.34-10.02,8.65-14.18,4.17-32.69-10.02-41.34-14.19-8.63-32.68-4.15-41.34,10.02Z"/><circle class="cls-4" cx="624.16" cy="244.19" r="20.52"/><path class="cls-4" d="M622.84,359.24c-1.55-4.83,1.11-10.01,5.94-11.56,.33-.11,.67-.19,1.01-.26,.4-.08,.81-.13,1.22-.15l21.62-34.7-19.75-18.77c-3.15-3-3.28-7.99-.28-11.14,3-3.15,7.99-3.28,11.14-.28,.03,.03,.07,.07,.1,.1l27.26,26.88,.05,.07c1.73,2.64,1.53,6.09-.5,8.51l-30.29,35.82c.09,.29,.17,.58,.23,.87,.99,4.98-2.24,9.82-7.22,10.81-.34,.07-.69,.12-1.03,.15-.26,.02-.52,.03-.78,.03-3.99-.02-7.51-2.59-8.74-6.38Z"/><polygon class="cls-4" points="590.36 529.8 580.12 529.8 575.25 490.29 590.36 490.29 590.36 529.8"/><path class="cls-9" d="M592.98,539.73h-33.03v-.42c0-7.1,5.76-12.86,12.86-12.86h20.17v13.28Z"/><polygon class="cls-4" points="692.18 515.64 683.38 520.88 658.98 489.43 671.97 481.69 692.18 515.64"/><path class="cls-9" d="M699.51,522.84l-28.38,16.9-.21-.36c-3.63-6.1-1.63-13.99,4.47-17.62h0l17.33-10.32,6.79,11.41Z"/><path class="cls-9" d="M573.95,512.4c-6.86-80.8-10.94-155.87,14.14-186.49l.19-.24,42.22,16.89,.07,.15c.14,.31,14.18,31.19,10.91,51.97l10.41,47.9,33.95,56.85c1.07,1.78,.48,4.09-1.3,5.16-.13,.08-.27,.15-.41,.21l-14.76,6.49c-1.72,.75-3.73,.12-4.72-1.48l-36.94-60.23-20.86-46.19c-.29-.63-1.03-.91-1.66-.63-.41,.18-.68,.57-.73,1.01l-11.56,108.7c-.2,1.91-1.81,3.37-3.74,3.36h-11.47c-1.95-.01-3.57-1.5-3.75-3.45Z"/><path class="cls-7" d="M588.24,326.55l-.2-.1-.03-.22c-1.58-11.04,.29-23.3,5.55-36.45,5.36-13.3,19.65-20.67,33.59-17.33h0c7.86,1.94,14.54,7.08,18.43,14.17,3.84,7.02,4.56,15.34,1.98,22.91-6.63,19.39-15.23,37.52-15.31,37.7l-.18,.38-43.83-21.07Z"/><path class="cls-4" d="M542.18,299.06c3.98-3.15,9.77-2.47,12.91,1.52,.22,.27,.42,.56,.6,.85,.21,.35,.4,.71,.57,1.09l40.07,8.1,10.67-25.07c1.7-4,6.33-5.87,10.34-4.16,4,1.7,5.87,6.33,4.16,10.34-.02,.04-.04,.09-.06,.13l-15.63,34.95-.04,.07c-1.86,2.54-5.17,3.57-8.14,2.51l-44.16-15.83c-.24,.19-.48,.36-.74,.52-4.32,2.67-9.98,1.34-12.66-2.97-.18-.3-.35-.6-.5-.92-.11-.24-.21-.48-.3-.72-1.38-3.74-.2-7.94,2.92-10.42Z"/><path class="cls-9" d="M698.3,266.16c-1.98-3.5-4.86-6.71-8.66-8.01-4.92-1.67-10.24,.11-15.3,1.3-3.9,.92-7.96,1.48-11.89,.7-3.93-.77-7.71-3.06-9.5-6.64-2.63-5.27-.41-11.55-.57-17.43-.3-11.69-10.02-20.92-21.7-20.62-1.68,.04-3.35,.29-4.97,.72-4.84-1.4-9.22-1.53-12.22,2.2-7.84,0-14.2,6.36-14.2,14.2h13.58c-.64,3.46,.09,7.04,2.05,9.97,2.4,3.52,6.57,6.07,7.37,10.26,.78,4.06-1.98,7.9-4.87,10.85-2.89,2.95-6.25,5.87-7.15,9.9-.55,3.06,.08,6.21,1.76,8.83,1.68,2.58,3.76,4.88,6.17,6.8,10.85,9.3,23.74,15.89,37.63,19.25,9.78,2.35,20.48,2.96,29.55-1.37,14.63-6.98,20.83-24.5,13.85-39.13-.29-.61-.6-1.2-.93-1.79Z"/><path class="cls-5" d="M701.37,540.6h-158.76c-.46,0-.84-.37-.84-.84s.37-.84,.84-.84h158.76c.46,0,.84,.37,.84,.84s-.37,.84-.84,.84Z"/></svg>