<?xml version="1.0" encoding="UTF-8"?><svg id="Laag_1" xmlns="http://www.w3.org/2000/svg" viewBox="0 0 960 560"><defs><style>.cls-1{fill:#f2f2f2;}.cls-2{fill:#f0f0f0;}.cls-3{fill:#e6e6e6;}.cls-4{fill:#fff;}.cls-5{fill:#a0616a;}.cls-6{fill:#cacaca;}.cls-7{fill:#3f3d56;}.cls-8{fill:#32cbe4;}.cls-9{fill:#2f2e41;}.cls-10{isolation:isolate;opacity:.2;}</style></defs><path class="cls-6" d="M701.86,79.42H190.87c-.45-.01-.81-.39-.8-.84,0-.44,.36-.79,.8-.8h510.99c.45,.01,.81,.39,.8,.84,0,.44-.36,.79-.8,.8Z"/><ellipse class="cls-7" cx="208.94" cy="58.9" rx="8.83" ry="9.03"/><ellipse class="cls-7" cx="239.44" cy="58.9" rx="8.83" ry="9.03"/><ellipse class="cls-7" cx="269.94" cy="58.9" rx="8.83" ry="9.03"/><path class="cls-7" d="M683.59,52.12h-21.67c-.91,.02-1.63,.77-1.61,1.67,.02,.88,.73,1.59,1.61,1.61h21.67c.91-.02,1.63-.77,1.61-1.67-.02-.88-.73-1.59-1.61-1.61Z"/><path class="cls-7" d="M683.59,58.27h-21.67c-.91,.02-1.63,.77-1.61,1.67,.02,.88,.73,1.59,1.61,1.61h21.67c.91-.02,1.63-.77,1.61-1.67-.02-.88-.73-1.59-1.61-1.61Z"/><path class="cls-7" d="M683.59,64.42h-21.67c-.91,.02-1.63,.77-1.61,1.67,.02,.88,.73,1.59,1.61,1.61h21.67c.91-.02,1.63-.77,1.61-1.67-.02-.88-.73-1.59-1.61-1.61Z"/><path class="cls-2" d="M675.5,107.12H210.07c-5.37,0-9.71,4.36-9.72,9.72v1.57c0,5.37,4.36,9.71,9.72,9.72h465.43c5.37,0,9.71-4.36,9.72-9.72v-1.57c0-5.37-4.36-9.71-9.72-9.72Z"/><path class="cls-4" d="M266.24,121.51h-44.3c-2.07,0-3.74-1.68-3.73-3.75,0-2.06,1.67-3.73,3.73-3.73h44.3c4.82-.07,4.87,7.55,0,7.48Z"/><path class="cls-4" d="M398.77,121.51h-44.3c-2.07,0-3.74-1.68-3.73-3.75,0-2.06,1.67-3.73,3.73-3.73h44.3c4.82-.07,4.87,7.55,0,7.48Z"/><path class="cls-4" d="M531.3,121.51h-44.3c-2.07,0-3.74-1.68-3.73-3.75,0-2.06,1.67-3.73,3.73-3.73h44.3c4.82-.07,4.87,7.55,0,7.48Z"/><path class="cls-8" d="M656.96,121.91h-44.3c-2.07,0-3.74-1.67-3.74-3.74s1.67-3.74,3.74-3.74h44.3c4.82-.07,4.87,7.55,0,7.48Z"/><rect class="cls-4" x="586.22" y="107.12" width="1.62" height="21.01"/><path class="cls-2" d="M420.6,418.09H230.65c-3.52,0-6.38-2.86-6.38-6.38v-27.82c0-3.52,2.86-6.38,6.38-6.38h189.95c3.52,0,6.38,2.86,6.38,6.38v27.82c0,3.52-2.86,6.38-6.38,6.38Z"/><path class="cls-4" d="M402.14,413.79H234.95c-3.52,0-6.38-2.86-6.38-6.38v-19.2c0-3.52,2.86-6.38,6.38-6.38h181.34c3.52,0,6.38,2.86,6.38,6.38v5.05c-.01,11.34-9.2,20.52-20.53,20.53Z"/><path class="cls-3" d="M344.47,395.82h-76.35c-.91,0-1.65-.74-1.65-1.65s.74-1.65,1.65-1.65h76.35c.91,0,1.65,.74,1.65,1.65s-.74,1.65-1.65,1.65Z"/><path class="cls-3" d="M383.12,402.56h-114.99c-.91,0-1.65-.73-1.65-1.64,0-.91,.73-1.65,1.64-1.65h115c.91,0,1.64,.74,1.64,1.65,0,.91-.74,1.64-1.64,1.64Z"/><path class="cls-4" d="M432.73,345.68H216.15c-3.6,0-6.51-2.92-6.52-6.52V173.6c0-3.6,2.92-6.51,6.52-6.52h216.58c3.6,0,6.51,2.92,6.52,6.52v165.56c0,3.6-2.92,6.51-6.52,6.52Z"/><path class="cls-2" d="M432.73,346.49H216.15c-4.04,0-7.32-3.28-7.33-7.33V173.6c0-4.04,3.28-7.32,7.33-7.33h216.58c4.04,0,7.32,3.28,7.33,7.33v165.56c0,4.04-3.28,7.32-7.33,7.33ZM216.15,167.89c-3.15,0-5.71,2.56-5.71,5.71v165.56c0,3.15,2.56,5.71,5.71,5.71h216.58c3.15,0,5.71-2.56,5.71-5.71V173.6c0-3.15-2.56-5.71-5.71-5.71H216.15Z"/><path class="cls-2" d="M210.13,314.16v25c0,3.32,2.7,6.01,6.02,6.02h216.58c3.32,0,6.01-2.7,6.02-6.02v-25H210.13Z"/><rect class="cls-2" x="324.43" y="106.71" width="1.62" height="269.55" transform="translate(-53.5 385.19) rotate(-57.37)"/><rect class="cls-2" x="191.11" y="240.68" width="269.55" height="1.62" transform="translate(-78.78 213.82) rotate(-32.63)"/><polygon class="cls-5" points="630.79 524.88 620.78 524.88 616.01 486.26 630.79 486.26 630.79 524.88"/><path class="cls-9" d="M630.52,521.61l-10.68-4.34-.32-.13-5.9,4.47c-6.73,0-12.26,5.3-12.55,12.02-.02,.18-.02,.36-.02,.55v.41h32.28v-12.98h-2.82Z"/><polygon class="cls-5" points="607.34 515.56 597.9 518.88 580.58 484.03 594.52 479.13 607.34 515.56"/><path class="cls-9" d="M606,512.56l-11.52-.55-.34-.02-4.08,6.17c-6.35,2.23-9.81,9.07-7.85,15.5,.04,.17,.11,.35,.17,.52l.14,.39,30.45-10.72-4.31-12.24-2.66,.94Z"/><path class="cls-9" d="M634.33,358.36c9.16-.36-2.19,72.64-2.19,72.64,0,0,3.32,64.09,2.62,67.45s-.09,12.43-.09,12.43c-1.79-3.27-20.31-.8-20.31-.8l-2.52-64.95-12.86-52.04-17.83,34.88,17.09,53.55s6.92,6.4,6.18,8.93c-.74,2.53-18.86,8.24-22.19,8.37s-1.83-4.1-1.99-8.26c-.16-4.16-15.84-42.75-21.35-55.88-5.51-13.13-1.23-31.64,1.59-45.1,2.81-13.45,17.62-38.7,17.62-38.7,18.38-20.73,47.07,7.84,56.23,7.48Z"/><path class="cls-5" d="M522.7,299.37c1.9,3.62,6.37,5.02,9.99,3.13,.39-.2,.75-.44,1.1-.7l22.03,14.37-.07-13.67-20.91-11.55c-2.73-3.08-7.43-3.36-10.5-.64-2.57,2.28-3.25,6.03-1.64,9.06Z"/><path class="cls-8" d="M629.57,370.06c-22.72,0-35.23-4.55-41.88-8.61-8.13-4.96-9.52-10.2-9.57-10.42l-.02-.06,.79-9.96,.35-.77c1.59-3.57,1.81-7.6,.59-11.32l-.02-.08v-.08l5.32-68.89,18.8-6.16,5.47-5.49,24.35-.35,3.39,6.88,19.19,7.23-9.43,56.13-4.52,7.79,1.82,8.49v.08l-5.94,35.4h-.33c-2.92,.15-5.71,.21-8.35,.21Z"/><path class="cls-8" d="M570.8,327.09l-8.91-5.28-.56-.81c-2.3-3.31-6.03-5.33-10.06-5.45h-.1l-12.27-7.22,5.09-14.9,19.24,5.68,13.41-33.33c2.2-5.46,8.41-8.11,13.88-5.91,2.11,.85,3.9,2.35,5.09,4.29,1.06,1.75,1.61,3.77,1.59,5.82v21.81l-.08,.11-26.31,35.19Z"/><path class="cls-5" d="M630.38,357.24c.72-4.02,4.57-6.7,8.59-5.98,.43,.08,.85,.19,1.26,.34l16.69-20.33,4.04,13.06-16.47,17.3c-1.67,3.75-6.08,5.44-9.83,3.76-3.14-1.4-4.91-4.77-4.28-8.15h0Z"/><path class="cls-8" d="M655.34,354.67l-11.08-11.09,7.06-17.19,10.23-13.96c-10.9-5.3-19.08-17.87-25-28.27l-.07-.12,1.48-11.56c.35-2.7,1.43-5.26,3.13-7.39,5.12-6.4,14.46-7.44,20.86-2.32,1.3,1.04,2.42,2.29,3.31,3.71l19.87,44.18-.22,.33-15.98,27.25-4.36,2.83-9.21,13.61Z"/><path class="cls-5" d="M639.04,224.7c-1.52,11.1-11.75,18.87-22.85,17.35-11.09-1.52-18.86-11.73-17.36-22.82l.04-.29c1.77-11.06,12.17-18.6,23.24-16.83,10.81,1.73,18.3,11.73,16.92,22.59h0Z"/><path class="cls-9" d="M633.88,235.15c1.04-2.12,2.11-4.39,1.82-6.73s-2.59-4.58-4.84-3.88c-1.35,.42-2.37,1.75-3.78,1.82-1.94,.09-3.05-2.12-3.65-3.97l-2.46-7.51c-4.78,3.72-10.97,5.12-16.88,3.81-2.28-.52-4.59-1.54-5.93-3.46s-1.33-4.9,.51-6.35c.9-.71,2.1-.98,2.96-1.74,1.37-1.21,1.5-3.31,.29-4.68-.73-.83-1.84-1.24-2.94-1.09l6.19-.77-1.84-3.33c1.42,.96,3.17,1.29,4.84,.89,1.66-.3,3.23-.99,4.86-1.44,8.11-2.07,16.61,1.5,20.81,8.74,3.12-1.04,6.55-.05,8.64,2.49,1.66,2.1,2.11,4.91,2.17,7.58,.12,5.28-1.03,10.5-3.35,15.24-.67,1.5-1.62,2.86-2.82,4-1.22,1.14-2.87,1.68-4.53,1.48"/><path class="cls-8" d="M305.13,214.28c.33,4.73,1.72,9.31,4.07,13.43,4.95,8.7,13.44,14.99,22.59,18.73,11.43,4.68,24.16,4.82,36.29,3.78,11.26-.97,22.41-3.21,33.71-3.68,8.74-.28,17.49-.07,26.21,.63,16.92,1.2,33.76,3.43,50.5,6.13,4.53,.72,9.06,1.5,13.57,2.33,.43,.04,.85,.12,1.26,.23,.08,.03,.21,0,.29,.05,.14,.09-.55-.22-.13,.13,.58,.61,1.1,1.28,1.55,1.99l6.18,7.95c1.77,2.28,3.42,5.05,5.71,6.85,3.3,2.55,7.82,2.87,11.44,.8,1.85-1.17,3.33-2.85,4.25-4.83,1.42-2.61,3.12-5.06,5.06-7.3,7.35-8.58,17.57-13.86,26.12-21.07,4.14-3.35,7.67-7.39,10.45-11.94,2.37-4.12,3.84-8.69,4.32-13.41,1.02-9.59-1.92-19.38-6.87-27.54-5.39-8.77-13.12-15.85-22.33-20.44-10.35-5.27-21.79-7.84-33.27-9.12-12.18-1.36-24.51-1.35-36.75-1.22-13.74,.15-27.46,.76-41.15,1.81-13.71,1.06-27.36,2.57-40.96,4.52-13.05,1.88-26.26,3.83-39.04,7.15-11.29,2.93-22.54,7.52-30.97,15.82-7.49,7.39-12.7,17.49-12.1,28.21Z"/><path class="cls-4" d="M368.21,217.33c-2.23-.1-3.96-1.99-3.86-4.22,0-.11,.01-.21,.03-.32l.29-2.28c.11-.89-.22-1.78-.89-2.37l-1.71-1.53c-1.66-1.48-1.81-4.03-.32-5.7,.59-.66,1.38-1.11,2.26-1.28l2.26-.43c.88-.17,1.62-.76,1.98-1.58l.93-2.11c.9-2.04,3.28-2.96,5.32-2.06,.81,.36,1.48,.97,1.91,1.75l1.11,2.02c.43,.79,1.22,1.31,2.11,1.4l2.29,.23c2.22,.22,3.83,2.2,3.61,4.42-.09,.88-.47,1.71-1.08,2.36l-1.58,1.68c-.61,.65-.87,1.56-.68,2.44l.49,2.25c.47,2.18-.91,4.33-3.09,4.8-.87,.19-1.77,.08-2.57-.29l-2.08-.98c-.81-.38-1.76-.34-2.53,.11l-1.99,1.16c-.67,.39-1.43,.58-2.2,.55Z"/><path class="cls-4" d="M400.61,216.39c-1.03-.05-2-.48-2.72-1.21-.88-.93-1.29-2.22-1.09-3.49l.27-2.09c.12-.91-.22-1.81-.9-2.42l-1.59-1.42c-.95-.81-1.48-2.01-1.45-3.26,.07-1.88,1.43-3.46,3.28-3.81l2.23-.42c.9-.17,1.65-.77,2.02-1.61l.83-1.89c.61-1.46,1.98-2.46,3.56-2.59,1.55-.09,3.01,.73,3.75,2.09l1.09,1.99c.44,.8,1.24,1.33,2.15,1.43l2.12,.21c1.25,.1,2.38,.75,3.09,1.78,1.05,1.56,.87,3.64-.42,5.01l-1.56,1.66c-.62,.66-.88,1.59-.69,2.48l.45,2.08c.29,1.21,.02,2.5-.73,3.49-1.16,1.49-3.2,1.97-4.9,1.16l-2.06-.97c-.82-.39-1.79-.35-2.58,.11l-1.97,1.14c-.67,.39-1.43,.58-2.2,.55Z"/><path class="cls-4" d="M433.09,216.25c-2.23-.1-3.96-1.99-3.86-4.22,0-.11,.01-.21,.03-.32l.29-2.28c.11-.89-.22-1.78-.89-2.37l-1.71-1.53c-1.66-1.48-1.81-4.03-.32-5.7,.59-.66,1.38-1.11,2.26-1.28l2.26-.43c.88-.17,1.62-.76,1.98-1.58l.93-2.11c.9-2.04,3.28-2.96,5.32-2.06,.81,.36,1.48,.97,1.91,1.75l1.11,2.02c.43,.79,1.22,1.31,2.11,1.4l2.29,.23c2.22,.22,3.83,2.2,3.61,4.42-.09,.88-.47,1.71-1.08,2.36l-1.58,1.68c-.61,.65-.87,1.56-.68,2.44l.49,2.25c.47,2.18-.91,4.33-3.09,4.8-.87,.19-1.77,.08-2.57-.29l-2.08-.98c-.81-.38-1.76-.34-2.53,.11l-1.99,1.16c-.67,.39-1.43,.58-2.2,.55Z"/><path class="cls-10" d="M464.69,215.39c-2.23-.1-3.96-1.99-3.86-4.22,0-.11,.01-.21,.03-.32l.29-2.28c.11-.89-.22-1.78-.89-2.37l-1.71-1.53c-1.66-1.48-1.81-4.03-.32-5.7,.59-.66,1.38-1.11,2.26-1.28l2.26-.43c.88-.17,1.62-.76,1.98-1.58l.93-2.11c.9-2.04,3.28-2.96,5.32-2.06,.81,.36,1.48,.97,1.91,1.75l1.11,2.02c.43,.79,1.22,1.31,2.11,1.4l2.29,.23c2.22,.22,3.83,2.2,3.61,4.42-.09,.88-.47,1.71-1.08,2.36l-1.58,1.68c-.61,.65-.87,1.56-.68,2.44l.49,2.25c.47,2.18-.91,4.33-3.09,4.8-.87,.19-1.77,.08-2.57-.29l-2.08-.98c-.81-.38-1.76-.34-2.53,.11l-1.99,1.16c-.67,.39-1.43,.58-2.2,.55Z"/><path class="cls-10" d="M496.29,214.53c-2.23-.1-3.96-1.99-3.86-4.22,0-.11,.01-.21,.03-.32l.29-2.28c.11-.89-.22-1.78-.89-2.37l-1.71-1.53c-1.66-1.48-1.81-4.03-.32-5.7,.59-.66,1.38-1.11,2.26-1.28l2.26-.43c.88-.17,1.62-.76,1.98-1.58l.93-2.11c.9-2.04,3.28-2.96,5.32-2.06,.81,.36,1.48,.97,1.91,1.75l1.11,2.02c.43,.79,1.22,1.31,2.11,1.4l2.29,.23c2.22,.22,3.83,2.2,3.61,4.42-.09,.88-.47,1.71-1.08,2.36l-1.58,1.68c-.61,.65-.87,1.56-.68,2.44l.49,2.25c.47,2.18-.91,4.33-3.09,4.8-.87,.19-1.77,.08-2.57-.29l-2.08-.98c-.81-.38-1.76-.34-2.53,.11l-1.99,1.16c-.67,.39-1.43,.58-2.2,.55Z"/><path class="cls-1" d="M697.6,484.13l.92-20.78c9.64-5.15,20.38-7.87,31.31-7.93-15.04,12.29-13.16,35.99-23.35,52.53-6.52,10.4-17.42,17.26-29.61,18.66l-12.58,7.7c-3.49-19.48,1.72-39.52,14.26-54.83,3.52-4.21,7.55-7.96,12.01-11.16,3.01,7.95,7.04,15.81,7.04,15.81Z"/><path class="cls-6" d="M769.75,536.14H432.46c-.53,0-.96-.43-.97-.96s.43-.96,.96-.97h337.3c.53,0,.96,.43,.97,.96s-.43,.96-.96,.97h0Z"/></svg>