<svg width="755" height="325" viewBox="0 0 755 325" fill="none" xmlns="http://www.w3.org/2000/svg">
<path d="M206.977 323.277H3.41343C4.26742 322.451 5.4228 321.334 6.86661 319.936C10.2968 316.615 15.3548 311.714 21.867 305.388C34.8912 292.738 53.7317 274.396 76.9972 251.625C123.528 206.083 187.759 142.826 258.56 71.9692C329.161 1.31195 387.474 -5.59391 428.026 4.93532C448.345 10.211 464.282 19.8825 475.143 28.2413C480.572 32.4196 484.728 36.2661 487.523 39.064C488.921 40.4628 489.977 41.5991 490.683 42.383C490.856 42.5759 491.009 42.7475 491.139 42.8964L206.977 323.277Z" stroke="#8C1CEC" stroke-opacity="0.25" stroke-width="2"/>
<path d="M753.141 43.1059C753.282 43.2629 753.409 43.4058 753.522 43.5338L737.144 59.6923L592.415 202.445L592.415 202.445L469.273 324H265.87C266.724 323.173 267.88 322.055 269.325 320.655C272.755 317.332 277.813 312.428 284.325 306.1C297.349 293.443 316.19 275.093 339.455 252.317C385.986 206.765 450.217 143.509 521.018 72.6923L521.018 72.6921C591.619 2.03486 649.932 -4.871 690.484 5.65821C710.803 10.9339 726.74 20.6054 737.601 28.9641C743.03 33.1424 747.186 36.9889 749.981 39.7869C751.378 41.1857 752.435 42.3219 753.141 43.1059Z" stroke="#8C1CEC" stroke-opacity="0.25" stroke-width="2"/>
</svg>
