<svg width="1728" height="1013" viewBox="0 0 1728 1013" fill="none" xmlns="http://www.w3.org/2000/svg">
<path d="M370.064 1009.73H-270.425C-269.799 1009.12 -269.01 1008.36 -268.06 1007.44C-265.32 1004.79 -261.243 1000.85 -255.898 995.674C-245.207 985.325 -229.443 970.047 -209.146 950.334C-168.553 910.907 -109.832 853.738 -37.319 782.766C107.707 640.821 307.9 443.666 528.57 222.822C749.04 2.17697 931.534 -19.7106 1058.8 13.3338C1122.48 29.867 1172.41 60.1703 1206.42 86.3464C1223.42 99.4334 1236.44 111.485 1245.21 120.261C1249.59 124.649 1252.91 128.217 1255.13 130.686C1256.25 131.92 1257.08 132.88 1257.64 133.529C1257.73 133.633 1257.81 133.728 1257.88 133.815L370.159 1009.73H370.064Z" stroke="#8C1CEC" stroke-width="2"/>
<path d="M547.618 1011.98C548.244 1011.37 549.034 1010.61 549.984 1009.69C552.725 1007.04 556.801 1003.09 562.146 997.917C572.837 987.561 588.601 972.275 608.898 952.552C649.491 913.105 708.212 855.912 780.725 784.925C925.75 642.949 1125.94 445.794 1346.61 225.075L1345.96 224.421L1346.61 225.075C1567.08 4.43076 1749.58 -17.4568 1876.84 15.5875C1940.52 32.1208 1990.45 62.4241 2024.46 88.6001C2041.47 101.687 2054.49 113.739 2063.25 122.515C2067.64 126.902 2070.96 130.471 2073.18 132.94C2074.29 134.174 2075.12 135.133 2075.68 135.783C2075.69 135.788 2075.69 135.794 2075.7 135.799L2023.23 187.56L1572.13 632.5L1572.83 633.212L1572.13 632.501L1187.7 1011.98H547.618Z" stroke="#8C1CEC" stroke-width="2"/>
</svg>
