<svg xmlns="http://www.w3.org/2000/svg" viewBox="0 0 449.84 50.7"><defs><style>.cls-1{fill:#8c1cec;}.cls-2{fill:#32cbe4;}</style></defs><g id="Laag_2" data-name="Laag 2"><g id="Laag_1-2" data-name="Laag 1"><path class="cls-1" d="M37.88,36.15,69.52,5S59.2-7.6,43.49,8.1,15,36.15,15,36.15Z"/><path class="cls-1" d="M98.62,5,96.73,6.9l-16,15.83L67,36.23H44.09s12.8-12.34,28.5-28S98.62,5,98.62,5Z"/><path class="cls-1" d="M.08,28.21a13.28,13.28,0,0,1,23.75-6.09l-11.94,12C7.26,38.7-.74,34.93.05,28.44Z"/><path class="cls-1" d="M110.57,16.51a13.4,13.4,0,0,1-24,6.14L98.65,10.59c4.67-4.67,12.75-.87,11.95,5.69Z"/><path class="cls-1" d="M135.73,36.37a17.6,17.6,0,0,1-9.11-2.32,16.19,16.19,0,0,1-6.1-6.42,19.77,19.77,0,0,1-2.18-9.41,19.47,19.47,0,0,1,2.23-9.48,16.28,16.28,0,0,1,6.15-6.38,18.93,18.93,0,0,1,18.14,0A16.26,16.26,0,0,1,151,8.81a19.6,19.6,0,0,1,2.19,9.41A19.61,19.61,0,0,1,151,27.66a16.26,16.26,0,0,1-6.15,6.4A17.6,17.6,0,0,1,135.73,36.37Zm0-8.09A7.21,7.21,0,0,0,142,25.46a12,12,0,0,0,2-7.24,11.75,11.75,0,0,0-2.09-7.33,7.31,7.31,0,0,0-6.19-2.74,7.91,7.91,0,0,0-4.65,1.28A7.5,7.5,0,0,0,128.39,13a14.6,14.6,0,0,0-.88,5.26,11.79,11.79,0,0,0,2.09,7.34A7.25,7.25,0,0,0,135.73,28.28Z"/><path class="cls-1" d="M168.68,24.08a3.34,3.34,0,0,0,.17.44v-.44ZM190.91,8.87a15.9,15.9,0,0,0-5.68-6.45A15.59,15.59,0,0,0,176.62.06a13.85,13.85,0,0,0-8.25,2.39c-.2.15-.41.3-.61.47a14.77,14.77,0,0,0-4.45,6,23.88,23.88,0,0,0-1.72,9.26,23.75,23.75,0,0,0,1.73,9.27A14.68,14.68,0,0,0,168.5,34a3.37,3.37,0,0,0,.35.22,13.54,13.54,0,0,0,5.88,2,19.45,19.45,0,0,0,2.33.14,17.43,17.43,0,0,0,2.2-.14A14.05,14.05,0,0,0,185.38,34a16.14,16.14,0,0,0,5.56-6.5,21.09,21.09,0,0,0,2-9.27A20.92,20.92,0,0,0,190.91,8.87Zm-8,14.62a8.27,8.27,0,0,1-2.65,3.77,7.23,7.23,0,0,1-4.58,1.4A7.47,7.47,0,0,1,171,27.35a6.81,6.81,0,0,1-2.18-2.83v-.44h-.17a3.12,3.12,0,0,1-.15-.39,17.77,17.77,0,0,1-.77-5.48,17.7,17.7,0,0,1,.77-5.47A7.34,7.34,0,0,1,171,9.07a6.84,6.84,0,0,1,4.36-1.3,7.64,7.64,0,0,1,4.77,1.42A8.22,8.22,0,0,1,182.86,13a14.61,14.61,0,0,1,.89,5.23A15.27,15.27,0,0,1,182.9,23.49Zm-14.22.59a3.12,3.12,0,0,1-.15-.39,17.77,17.77,0,0,1-.77-5.48V.06h-7.64V50.7h8.73V24.08Z"/><path class="cls-1" d="M215.92,36.37a18.56,18.56,0,0,1-9.31-2.28,16.39,16.39,0,0,1-6.31-6.27A18.15,18.15,0,0,1,198,18.66a20.64,20.64,0,0,1,2.22-9.81,16.28,16.28,0,0,1,6.15-6.48,17.41,17.41,0,0,1,9-2.31,16.13,16.13,0,0,1,9.21,2.55,15,15,0,0,1,5.6,7.17,23.88,23.88,0,0,1,1.28,10.86h-8.57V17.45q0-5.25-1.67-7.56T215.8,7.58q-4.44,0-6.52,2.69c-1.39,1.8-2.08,4.44-2.08,8q0,4.8,2.08,7.43a7.34,7.34,0,0,0,6.13,2.63,8.23,8.23,0,0,0,4.37-1.11A7.18,7.18,0,0,0,222.55,24l8.66,2.48a15.19,15.19,0,0,1-6.13,7.33A17,17,0,0,1,215.92,36.37Zm-11.4-15.73V14.2h22.8v6.44Z"/><path class="cls-1" d="M237.64,36.23V.06h7.71v12h1.08V36.23Zm23.51,0V19.62c0-.81,0-1.83-.13-3.08a13.82,13.82,0,0,0-.8-3.77A7.13,7.13,0,0,0,258,9.61a6.5,6.5,0,0,0-4.28-1.27,8.84,8.84,0,0,0-2.39.36A5.81,5.81,0,0,0,249,10.09a7.44,7.44,0,0,0-1.83,3,15.83,15.83,0,0,0-.72,5.28l-5-2.41a18.75,18.75,0,0,1,1.65-7.82,14,14,0,0,1,5-5.9A14.63,14.63,0,0,1,256.5,0a13.67,13.67,0,0,1,6.59,1.4,11.08,11.08,0,0,1,4,3.55,15.33,15.33,0,0,1,2,4.48,23.06,23.06,0,0,1,.73,4.26c.09,1.28.13,2.21.13,2.8V36.23Z"/><path class="cls-1" d="M278.15,36.23V.19h7.65v12h1.08V36.23Zm20.77,0V15.44A8.26,8.26,0,0,0,297.31,10a6,6,0,0,0-8.79,0,7.34,7.34,0,0,0-1.64,4.94l-3.63-2.61a11.53,11.53,0,0,1,1.69-6.19,12.18,12.18,0,0,1,4.54-4.33,12.75,12.75,0,0,1,6.38-1.6A11.61,11.61,0,0,1,302.5,2a10.51,10.51,0,0,1,3.84,4.69,16.39,16.39,0,0,1,1.24,6.46V36.23Zm20.7,0V15.44A8.26,8.26,0,0,0,318,10a5.43,5.43,0,0,0-4.44-1.94,5.72,5.72,0,0,0-3.15.86,5.79,5.79,0,0,0-2.09,2.41,8.08,8.08,0,0,0-.75,3.57L304,12.44a12.12,12.12,0,0,1,1.67-6.38,11.79,11.79,0,0,1,4.49-4.32A12.82,12.82,0,0,1,316.37.19q5.89,0,8.9,3.57a14,14,0,0,1,3,9.34V36.23Z"/><path class="cls-1" d="M346.12,36.37A12.71,12.71,0,0,1,339.86,35,9.6,9.6,0,0,1,336,31.16a10.59,10.59,0,0,1-1.32-5.24,12.66,12.66,0,0,1,.73-4.36,9,9,0,0,1,2.38-3.49,13.19,13.19,0,0,1,4.41-2.53,32.78,32.78,0,0,1,4.55-1.24q2.64-.54,6-1c2.23-.32,4.68-.69,7.36-1.09l-3.13,1.72a6,6,0,0,0-1.46-4.49c-1-1-2.61-1.44-4.91-1.44a9.71,9.71,0,0,0-4,.93,5.27,5.27,0,0,0-2.89,3.28l-7.84-2.49a13.29,13.29,0,0,1,4.91-6.94C343.16,1,346.44.06,350.57.06a21.88,21.88,0,0,1,8.09,1.4A10.15,10.15,0,0,1,364,6.31a10.42,10.42,0,0,1,1.21,3.82c.12,1.27.19,2.69.19,4.27v21h-7.58V28.34l1.08,1.47a16.46,16.46,0,0,1-5.43,5A15.64,15.64,0,0,1,346.12,36.37ZM348,29.55a8.74,8.74,0,0,0,4-.84,8.61,8.61,0,0,0,2.61-1.93A8.52,8.52,0,0,0,355.93,25a8.93,8.93,0,0,0,.78-3.27c.07-1.24.11-2.27.11-3.1l2.54.64c-2.56.42-4.64.78-6.24,1.06s-2.87.55-3.85.78a22.53,22.53,0,0,0-2.58.77,8.42,8.42,0,0,0-2.05,1.1,3.73,3.73,0,0,0-1.15,1.29,3.21,3.21,0,0,0-.37,1.56,3.46,3.46,0,0,0,.59,2,3.71,3.71,0,0,0,1.67,1.29A6.77,6.77,0,0,0,348,29.55Z"/><path class="cls-1" d="M370.51,36.23V35.1L387.39,8h-15V.06h28.35V1.2L384,28.33h16.18v7.9Z"/><path class="cls-1" d="M421.21,36.37a18.56,18.56,0,0,1-9.31-2.28,16.39,16.39,0,0,1-6.31-6.27,18.15,18.15,0,0,1-2.28-9.16,20.64,20.64,0,0,1,2.23-9.81,16.28,16.28,0,0,1,6.15-6.48,17.41,17.41,0,0,1,9-2.31,16.13,16.13,0,0,1,9.21,2.55,15,15,0,0,1,5.6,7.17,23.88,23.88,0,0,1,1.28,10.86h-8.57V17.45q0-5.25-1.67-7.56t-5.46-2.31q-4.44,0-6.52,2.69c-1.39,1.8-2.08,4.44-2.08,8q0,4.8,2.08,7.43a7.34,7.34,0,0,0,6.13,2.63,8.23,8.23,0,0,0,4.37-1.11A7.18,7.18,0,0,0,427.84,24l8.66,2.48a15.25,15.25,0,0,1-6.13,7.33A17,17,0,0,1,421.21,36.37Zm-11.4-15.73V14.2h22.8v6.44Z"/><circle class="cls-2" cx="445.69" cy="32.08" r="4.15"/></g></g></svg>