<svg xmlns="http://www.w3.org/2000/svg" viewBox="0 0 501.06 56.04"><defs><style>.cls-1{fill:#fff;}.cls-2{fill:#32cbe4;}</style></defs><g id="Laag_2" data-name="Laag 2"><g id="Laag_1-2" data-name="Laag 1"><path class="cls-1" d="M41.93,40,77,5.47S65.52-8.44,48.14,8.94,16.6,40,16.6,40Z"/><path class="cls-1" d="M109.16,5.55l-2.09,2.06L89.3,25.13,74.14,40.07H48.81S63,26.41,80.35,9,109.16,5.55,109.16,5.55Z"/><path class="cls-1" d="M.09,31.19a14.7,14.7,0,0,1,26.29-6.73L13.16,37.68c-5.13,5.13-14,1-13.1-6.23Z"/><path class="cls-1" d="M122.38,18.25a14.84,14.84,0,0,1-26.54,6.8l13.35-13.36c5.18-5.17,14.11-1,13.22,6.3Z"/><path class="cls-1" d="M153.86,40.2a19.29,19.29,0,0,1-10.07-2.57,17.84,17.84,0,0,1-6.74-7.09,21.75,21.75,0,0,1-2.41-10.4A21.61,21.61,0,0,1,137.1,9.66a18,18,0,0,1,6.8-7.06,21,21,0,0,1,20,0,17.93,17.93,0,0,1,6.78,7.09,21.68,21.68,0,0,1,2.43,10.41,21.57,21.57,0,0,1-2.45,10.43,17.87,17.87,0,0,1-6.79,7.08A19.5,19.5,0,0,1,153.86,40.2Zm0-8.94c3.07,0,5.37-1,6.88-3.11a13.3,13.3,0,0,0,2.27-8A13,13,0,0,0,160.7,12a8,8,0,0,0-6.84-3,8.74,8.74,0,0,0-5.14,1.41,8.31,8.31,0,0,0-3,3.91,16.12,16.12,0,0,0-1,5.81,13,13,0,0,0,2.3,8.11A8,8,0,0,0,153.86,31.26Z"/><path class="cls-1" d="M180.82,56V.07h8.45V26.62h1.2V56ZM199.55,40.2a16.22,16.22,0,0,1-9.47-2.64,16.21,16.21,0,0,1-5.72-7.18,26.07,26.07,0,0,1-1.92-10.24,26.45,26.45,0,0,1,1.9-10.25,16.39,16.39,0,0,1,5.6-7.18A15.29,15.29,0,0,1,199.06.07a17.11,17.11,0,0,1,9.5,2.61,17.48,17.48,0,0,1,6.29,7.12,23,23,0,0,1,2.23,10.34,23.15,23.15,0,0,1-2.2,10.24,17.67,17.67,0,0,1-6.14,7.18A16.13,16.13,0,0,1,199.55,40.2ZM198,31.68a7.9,7.9,0,0,0,5.07-1.55A9,9,0,0,0,206,26a16.84,16.84,0,0,0,1-5.82,16.21,16.21,0,0,0-1-5.79,9.14,9.14,0,0,0-3.05-4.19,8.39,8.39,0,0,0-5.26-1.57A7.66,7.66,0,0,0,192.81,10a8.18,8.18,0,0,0-2.69,4.05,19.49,19.49,0,0,0-.85,6.06,19.38,19.38,0,0,0,.85,6.05,7.93,7.93,0,0,0,2.76,4A8.34,8.34,0,0,0,198,31.68Z"/><path class="cls-1" d="M242.5,40.2a20.65,20.65,0,0,1-10.3-2.51,18.15,18.15,0,0,1-7-6.94,20,20,0,0,1-2.51-10.12,22.7,22.7,0,0,1,2.46-10.84A17.92,17.92,0,0,1,232,2.62a19.28,19.28,0,0,1,10-2.55,17.78,17.78,0,0,1,10.17,2.82,16.56,16.56,0,0,1,6.2,7.92,26.58,26.58,0,0,1,1.41,12h-9.47V19.29q0-5.8-1.85-8.36t-6-2.55q-4.89,0-7.2,3c-1.54,2-2.31,4.91-2.31,8.79q0,5.31,2.31,8.22a8.16,8.16,0,0,0,6.78,2.9A9.07,9.07,0,0,0,246.76,30a7.82,7.82,0,0,0,3.06-3.56l9.58,2.75a16.87,16.87,0,0,1-6.78,8.1A18.78,18.78,0,0,1,242.5,40.2ZM229.9,22.81V15.7h25.2v7.11Z"/><path class="cls-1" d="M266.51,40.05V.07H275V13.32h1.2V40.05Zm26,0V21.68c0-.88-.05-2-.14-3.4a16,16,0,0,0-.88-4.16,7.92,7.92,0,0,0-2.41-3.49,7.17,7.17,0,0,0-4.74-1.41,9.57,9.57,0,0,0-2.64.4A6.38,6.38,0,0,0,279,11.15a8.19,8.19,0,0,0-2,3.33,17.54,17.54,0,0,0-.79,5.83l-5.5-2.66A20.72,20.72,0,0,1,272.56,9a15.5,15.5,0,0,1,5.51-6.52A16.3,16.3,0,0,1,287.35,0a15.1,15.1,0,0,1,7.29,1.55A12.21,12.21,0,0,1,299,5.47a16.81,16.81,0,0,1,2.24,5,26.5,26.5,0,0,1,.81,4.7c.09,1.41.14,2.45.14,3.1V40.05Z"/><path class="cls-1" d="M311.29,40.05V.21h8.45V13.42h1.19V40.05Zm22.95,0v-23a9.12,9.12,0,0,0-1.78-6,6.61,6.61,0,0,0-9.71,0,8,8,0,0,0-1.82,5.45l-4-2.88a12.7,12.7,0,0,1,1.87-6.84,13.48,13.48,0,0,1,5-4.79A14.18,14.18,0,0,1,330.86.21a12.79,12.79,0,0,1,7.34,2,11.52,11.52,0,0,1,4.24,5.18,18.07,18.07,0,0,1,1.38,7.14V40.05Zm22.88,0v-23a9.12,9.12,0,0,0-1.78-6,6,6,0,0,0-4.91-2.14,6.32,6.32,0,0,0-3.48,1,6.42,6.42,0,0,0-2.31,2.67,9,9,0,0,0-.82,3.94l-4-2.73a13.4,13.4,0,0,1,1.85-7.06,13,13,0,0,1,5-4.78A14.17,14.17,0,0,1,353.53.21q6.51,0,9.84,4t3.33,10.32V40.05Z"/><path class="cls-1" d="M386.41,40.2a14.19,14.19,0,0,1-6.92-1.56,10.69,10.69,0,0,1-4.29-4.19,11.64,11.64,0,0,1-1.46-5.79,13.83,13.83,0,0,1,.81-4.83A9.84,9.84,0,0,1,377.17,20a14.34,14.34,0,0,1,4.88-2.8,34.67,34.67,0,0,1,5-1.37c1.95-.4,4.15-.78,6.62-1.15l8.13-1.21-3.45,1.9c0-2.25-.54-3.91-1.62-5s-2.89-1.59-5.42-1.59a10.77,10.77,0,0,0-4.4,1,5.87,5.87,0,0,0-3.2,3.63l-8.66-2.75A14.63,14.63,0,0,1,380.5,3q4-3,10.84-3a24.14,24.14,0,0,1,8.94,1.55A11.17,11.17,0,0,1,406.2,7a11.36,11.36,0,0,1,1.33,4.23c.14,1.4.22,3,.22,4.71V39.15h-8.38V31.33L400.56,33a18,18,0,0,1-6,5.55A17.4,17.4,0,0,1,386.41,40.2Zm2-7.53a9.71,9.71,0,0,0,4.46-.93,10.22,10.22,0,0,0,2.88-2.13,8.89,8.89,0,0,0,1.46-2,9.68,9.68,0,0,0,.87-3.61c.08-1.37.12-2.52.12-3.43l2.82.7c-2.84.47-5.14.87-6.9,1.18s-3.18.61-4.26.86a27,27,0,0,0-2.86.85,10.53,10.53,0,0,0-2.27,1.21,4.4,4.4,0,0,0-1.26,1.43,3.67,3.67,0,0,0-.41,1.72,3.84,3.84,0,0,0,.65,2.24,4.13,4.13,0,0,0,1.85,1.43A7.65,7.65,0,0,0,388.45,32.67Z"/><path class="cls-1" d="M413.38,40.05V38.79L432,8.81H415.49V.07h31.33V1.33l-18.59,30h17.89v8.73Z"/><path class="cls-1" d="M469.42,40.2a20.65,20.65,0,0,1-10.3-2.51,18.15,18.15,0,0,1-7-6.94,20,20,0,0,1-2.51-10.12A22.7,22.7,0,0,1,452.1,9.79a17.92,17.92,0,0,1,6.79-7.17,19.28,19.28,0,0,1,10-2.55A17.78,17.78,0,0,1,479,2.89a16.56,16.56,0,0,1,6.2,7.92,26.58,26.58,0,0,1,1.41,12h-9.47V19.29q0-5.8-1.85-8.36t-6-2.55q-4.89,0-7.2,3c-1.54,2-2.31,4.91-2.31,8.79q0,5.31,2.31,8.22a8.16,8.16,0,0,0,6.78,2.9A9.07,9.07,0,0,0,473.68,30a7.82,7.82,0,0,0,3.06-3.56l9.58,2.75a16.87,16.87,0,0,1-6.78,8.1A18.8,18.8,0,0,1,469.42,40.2Zm-12.6-17.39V15.7H482v7.11Z"/><circle class="cls-2" cx="496.48" cy="35.47" r="4.59"/></g></g></svg>