<svg xmlns="http://www.w3.org/2000/svg" viewBox="0 0 143.83 47.5"><defs><style>.cls-1{fill:none;stroke:#8c1cec;stroke-miterlimit:10;}</style></defs><g id="Laag_2" data-name="Laag 2"><g id="Laag_1-2" data-name="Laag 1"><path class="cls-1" d="M49.4,46.9,90.24,6.64S76.91-9.58,56.64,10.7,19.85,46.9,19.85,46.9Z"/><path class="cls-1" d="M127.8,6.74l-2.44,2.4L104.64,29.57,87,47H57.42S73.93,31.07,94.2,10.79,127.8,6.74,127.8,6.74Z"/><path class="cls-1" d="M.61,36.64a17.14,17.14,0,0,1,30.65-7.85L15.84,44.21c-6,6-16.29,1.12-15.27-7.27C.58,36.84.6,36.74.61,36.64Z"/><path class="cls-1" d="M143.22,21.55a17.31,17.31,0,0,1-30.95,7.93l15.57-15.57c6-6,16.45-1.13,15.42,7.34C143.24,21.35,143.23,21.45,143.22,21.55Z"/></g></g></svg>