<?xml version="1.0" encoding="UTF-8"?><svg id="Laag_2" xmlns="http://www.w3.org/2000/svg" viewBox="0 0 142.83 46.5"><defs><style>.cls-1{fill:#8c1cec;}</style></defs><g id="Laag_1-2"><path class="cls-1" d="M48.9,46.4L89.74,6.14s-13.32-16.22-33.6,4.05C35.86,30.47,19.35,46.4,19.35,46.4h29.54Z"/><path class="cls-1" d="M127.3,6.24l-2.44,2.4-20.72,20.43-17.68,17.43h-29.54s16.51-15.93,36.78-36.21c20.27-20.27,33.6-4.05,33.6-4.05Z"/><path class="cls-1" d="M.11,36.14c1.03-7.45,7.05-13.47,14.49-14.51,6.59-.92,12.58,1.91,16.16,6.65l-15.42,15.42C9.37,49.69-.95,44.83,.07,36.44c.01-.1,.02-.2,.04-.3Z"/><path class="cls-1" d="M142.72,21.05c-1.04,7.52-7.11,13.6-14.63,14.65-6.65,.93-12.7-1.93-16.32-6.72l15.57-15.57c6.03-6.03,16.45-1.13,15.42,7.34-.01,.1-.03,.2-.04,.3Z"/></g></svg>