<?xml version="1.0" encoding="utf-8"?>
<!-- Generator: Adobe Illustrator 26.3.1, SVG Export Plug-In . SVG Version: 6.00 Build 0)  -->
<svg version="1.1" id="Laag_1" xmlns="http://www.w3.org/2000/svg" xmlns:xlink="http://www.w3.org/1999/xlink" x="0px" y="0px"
	 viewBox="0 0 330.7 107.7" style="enable-background:new 0 0 330.7 107.7;" xml:space="preserve">
<path d="M113.2,107.7l94.5-93.2c0,0-30.9-37.5-77.8,9.4s-85.2,83.8-85.2,83.8H113.2z"/>
<path d="M294.7,14.4l-5.6,5.6l-48,47.3l-40.9,40.3h-68.4c0,0,38.2-36.9,85.2-83.8S294.7,14.4,294.7,14.4L294.7,14.4z"/>
<path d="M0.2,83.7c2.4-17.2,16.3-31.2,33.5-33.6C49,48,62.9,54.5,71.2,65.5l-35.7,35.7C21.7,115-2.2,103.8,0.2,84.4
	C0.2,84.1,0.2,83.9,0.2,83.7L0.2,83.7z"/>
<path d="M330.4,48.7C328,66.1,314,80.2,296.5,82.6c-15.4,2.2-29.4-4.5-37.8-15.6l36-36c14-14,38.1-2.6,35.7,17
	C330.5,48.3,330.5,48.5,330.4,48.7z"/>
</svg>
