<?xml version="1.0" encoding="UTF-8"?><svg id="Laag_1" xmlns="http://www.w3.org/2000/svg" viewBox="0 0 841.89 595.28"><defs><style>.cls-1{fill:#f2f2f2;}.cls-2{fill:#e6e6e6;}.cls-3{fill:#fff;}.cls-4{fill:#fcc0c0;}.cls-5{fill:#8c1cec;}.cls-6{fill:#ccc;}.cls-7{fill:#3f3d56;}.cls-8{fill:#2f2e41;}.cls-9{fill:#5c0f9e;font-family:Manrope-ExtraBold, Manrope;font-size:161.73px;font-variation-settings:'wght' 800;font-weight:700;}</style></defs><g><path class="cls-1" d="m632.68,511.51c2.29.14,3.56-2.71,1.82-4.36l-.17-.69c.02-.05.05-.11.07-.16,1.37-3.26,5.13-4.81,8.4-3.45,10.33,4.27-.58,14.09.24,20.73.29,2.29,9.27,2.42,8.76,4.67,4.78-10.44,7.29-21.84,7.28-33.31,0-2.88-.16-5.76-.48-8.63-.27-2.35-.63-4.69-1.11-7-2.56-12.51-8.11-24.42-16.1-34.37-3.84-2.1-1.5-5.38-3.43-9.31-.7-1.42-6.9-1.45-7.16-3.01.28.04,4.29-4.13,2.96-6.19-.87-1.35-.6-3.08.52-4.24.11-.11.21-.23.31-.36,3.31-4.49,7.87-3.71,10.25,2.39,5.08,2.56,5.14,6.82,2.02,10.91-1.98,2.6-2.26,6.13-4,8.92.18.23.37.45.54.68,3.29,4.21,6.13,8.74,8.53,13.5-.68-5.29.32-11.66,2.02-15.76,1.95-4.71,5.62-8.68,8.84-12.75,3.84-4.87,11.66-2.66,12.34,3.51,0,.06.01.12.02.18-.48.27-.94.55-1.4.86-2.59,1.72-1.7,5.74,1.38,6.21h.07c-.17,1.72-6.25,7.12-6.68,8.79,4.11,15.87,1.03,17.97-11.61,18.24l-.66.95c1.2,3.45,2.16,6.97,2.89,10.55.68,3.32,1.16,6.67,1.42,10.04.33,4.25.3,8.52-.05,12.76l.02-.15c.91-4.67,3.44-9.04,7.13-12.06,5.49-4.51,13.24-6.17,19.15-9.8,2.85-1.74,6.5.51,6,3.81l-.02.16c-.88.36-1.74.77-2.57,1.24-.48.27-.94.55-1.4.86-2.6,1.72-1.7,5.74,1.38,6.21h.07c.05.02.09.02.14.03-1.51,3.59-15.9,8.65-18.54,11.53-2.56,13.87-1.3,13.45-13.1,9.42h0c-1.29,5.62-3.17,11.11-5.59,16.34h-19.99c-.07-.22-.14-.44-.2-.67,1.85.11,3.71,0,5.53-.33-1.48-1.82-2.97-3.65-4.45-5.47-.04-.04-.06-.07-.09-.11l-.02-.03-2.06-6.78c.16-1.5.43-2.99.79-4.46h0s0,0,0,0h0Z"/><path class="cls-7" d="m421.42,529.2l-176.9.06c-8.89,0-16.85-4.59-21.29-12.28-2.22-3.85-3.34-8.07-3.34-12.29,0-4.22,1.11-8.44,3.33-12.29l88.39-160.92c4.44-7.7,12.4-12.3,21.29-12.3,8.89,0,16.85,4.59,21.29,12.28l88.52,160.88c2.22,3.84,3.33,8.05,3.33,12.27,0,4.22-1.11,8.44-3.33,12.29-4.44,7.7-12.4,12.3-21.29,12.3h0Zm-199.31-24.52c0,3.84,19.52-4.44,21.54-.94,4.05,7-7.22,23.3.86,23.3,0,0,192.23-4.25,196.27-11.25,2.02-3.5,3.03-7.34,3.03-11.18,0-3.84-1.01-7.68-3.04-11.18l-88.52-160.88c-4.03-6.98-11.28-11.16-19.36-11.16-8.08,0-110.79,179.44-110.79,183.29h0,0Z"/><path class="cls-7" d="m423.38,526.98c-2.22,4.44,101.64,3.07,102.86,3.07,0,0,29.19-.64,29.8-1.71.31-.53.46-1.12.46-1.7s-.15-1.17-.46-1.7l-13.44-24.43c-.61-1.06-1.71-1.69-2.94-1.69-.05,0-.13.05-.22.13-17.93,16.02-40.03,26.62-64.08,26.97-25.57.38-51.84.77-51.99,1.05h0Z"/><path class="cls-6" d="m142.13,529.93c0,.73.59,1.32,1.32,1.32l579.43-.2c.73,0,1.32-.59,1.32-1.32,0-.73-.59-1.32-1.32-1.32l-579.43.2c-.73,0-1.32.59-1.32,1.32h0Z"/><g><polygon class="cls-4" points="590.19 523.52 580.16 523.53 575.37 484.83 590.18 484.82 590.19 523.52"/><path class="cls-8" d="m555.82,523.31h0c-.31.53-.48,2.22-.48,2.84h0c0,1.88,1.53,3.41,3.41,3.4h31.07c1.28-.01,2.32-1.05,2.32-2.33v-1.29s1.54-3.89-1.63-8.68c0,0-3.93,3.75-9.81-2.12l-1.73-3.14-12.54,9.18-6.95.86c-1.52.19-2.87-.03-3.65,1.29h0Z"/></g><g><polygon class="cls-4" points="551.72 490.42 542.21 493.64 525.28 458.51 539.31 453.76 551.72 490.42"/><path class="cls-8" d="m519.08,501.23h0c-.13.6.26,2.26.46,2.84h0c.6,1.78,2.54,2.74,4.32,2.13l29.43-9.96c1.22-.41,1.87-1.73,1.46-2.95l-.41-1.23s.21-4.18-4.32-7.7c0,0-2.52,4.82-9.97,1.13l-2.65-2.42-8.94,12.71-6.31,3.04c-1.38.67-2.73.89-3.05,2.39h0s0,0,0,0Z"/></g><polygon class="cls-8" points="536.22 265.9 516.76 330.36 493.78 388.34 530.16 471.14 543.64 465.14 527.5 389.08 561.35 337.47 577.14 498.59 590.63 497.83 608.93 303.35 611.53 261.01 536.22 265.9"/><path class="cls-2" d="m595,123.12l-28.48,5.26-2.24,12.74-17.23,8.25-8.96,93.68s-14.98,19.49-2.99,25.48l76.44-7.52s3.74-13.86,0-15.17c-3.75-1.31-3.76-34.41-3.76-34.41l17.21-68.08-25.48-8.98-4.5-11.24h0Z"/><circle class="cls-4" cx="578.2" cy="99.88" r="23"/><path class="cls-8" d="m593.43,103.29c-1.83,1-.09,5.8-1.24,6.22-1.33.48-6.16-5.02-6.22-11.18-.02-1.87.41-2.76,0-4.97-.54-2.89-2.2-6.3-3.73-6.21-.91.05-1.8,1.34-1.86,2.49-.09,1.61,1.47,2.24,1.24,3.11-.43,1.65-6.99,2.79-9.32,0-1.83-2.18-.43-6.02-1.25-6.21-.6-.14-1.25,1.97-3.73,4.35-.93.9-2.32,2.24-3.11,1.87-1.14-.53-.31-4.3-.62-4.35-.26-.04-.42,2.61-1.86,4.97-1.85,3.04-5.67,5.38-7.46,4.35-1.09-.63-1.18-2.39-1.24-3.73-.14-2.82-4.23-9.29-3.17-12.31,2.15-6.13,5.85-1.81,7.52-3.86,2.26-2.77,4.29-1.28,8.08-4.35,3.7-3,3.73-6.02,6.21-6.22,2.23-.18,3.03,2.2,5.59,1.86,2.18-.29,2.65-2.13,4.35-1.87,1.56.25,1.66,1.87,3.73,2.48,1.32.39,1.61-.17,3.11,0,3.11.36,5.2,3.2,5.59,3.73,1.51,2.05.92,2.91,2.49,4.97,1.35,1.78,4.34,1.02,5.46,1.91,3.67,2.9,5.25,8.25,5.28,14.34.02,4.26-.53,6.42-1.77,11.8-.94,4.09-5.3,9.37-7.71,11.72-.65.63-2.46,2.4-3.73,1.87-1.21-.51-1.24-2.8-1.24-3.11,0-1.04.27-2.33,2.48-5.59,2.32-3.43,3.25-3.82,3.11-4.97-.25-2.04-3.51-3.91-4.97-3.11,0,0,0,0,0,0Z"/><g><path class="cls-4" d="m513.22,317.68c-.72,5.99,1.8,11.22,5.61,11.68,3.81.46,7.49-4.03,8.2-10.03.31-2.62,0-5.1-.75-7.09l2.71-25.44-11.96-1.02-1.41,25.18c-1.21,1.76-2.09,4.09-2.4,6.72h0,0Z"/><path class="cls-2" d="m547.61,148.76s-6.2.09-10.3,8.1c-2.18,4.26-13.85,83.9-13.85,83.9l-10.75,65.24,18.31.09,14.27-61.79,12-35.83-9.68-59.72h0Z"/></g><path class="cls-4" d="m599.13,308.11c-1.75,5.78-.19,11.36,3.48,12.48s8.08-2.66,9.83-8.44c.77-2.53.9-5.02.5-7.12l7.12-24.57-11.6-3.1-5.79,24.55c-1.5,1.52-2.77,3.67-3.54,6.19h0s0,0,0,0Z"/><path class="cls-2" d="m611.87,144.47s8.99-6.75,16.49,3.74c7.5,10.49,10.53,96.67,10.53,96.67l-20.97,53.22-15.74-5.24,14.97-65.2-26.25-49.45,20.97-33.73h0Z"/><g><circle class="cls-5" cx="384.51" cy="412.72" r="80.99"/><g><circle class="cls-3" cx="384.53" cy="454.93" r="7.44"/><path class="cls-3" d="m384.5,363.08c-.68,4.54.54,5.49.55,25.06,0,19.57,4.07,45.8-.52,45.8s-6.27-54.14-22.21-58.93c-18.74-5.63,24.39-26.62,22.18-11.93h0Z"/></g></g><path class="cls-7" d="m275.82,454.07l-7.32,15.46c8.85-6.34,22.66-11.81,33.66-14.74-10.24-4.95-22.78-12.93-30.27-20.83l4.21,16.34c-49.34-10.05-84.77-47.9-84.79-91.26l-1.78-.61c.02,45.29,34.96,85.38,86.29,95.64Z"/></g><text class="cls-9" transform="translate(178.75 279.09)"><tspan x="0" y="0">404</tspan></text></svg>