<?xml version="1.0" encoding="UTF-8"?><svg id="Laag_1" xmlns="http://www.w3.org/2000/svg" viewBox="0 0 841.89 595.28"><defs><style>.cls-1{fill:#f0f0f0;}.cls-2{fill:#f4f4f4;}.cls-3{fill:#fff;}.cls-4{fill:#ffb6b6;}.cls-5{fill:#8c1cec;}.cls-6{fill:#3f3d56;}.cls-7{fill:#5c0f9e;}.cls-8{fill:#32cbe4;}.cls-9{fill:#2f2e41;}</style></defs><path class="cls-1" d="m286.19,488.13c-23.82,0-47.61-.43-71.36-1.28-33.94-1.22-69.03-2.48-101.65-20.57-22.82-12.65-43.03-32.96-58.44-58.72-10.3-17.46-17.86-36.4-22.4-56.16-8.47-35.97-8.18-73.45.84-109.28,3.16-12.29,7.52-24.23,13.01-35.67,23.79-49.26,67.18-82.33,119.04-90.72.43-.06.86-.06,1.29-.03.23.01.47.03.7.02l.31-.1c.78-.27,1.59-.48,2.4-.62,79.99-11.91,164.54,12.19,244.52,69.67,61.84,44.45,143.8,68.39,250.55,73.18l1.52.08c29.72,1.71,58.46,13.96,83.13,35.43,24.35,21.19,42.63,49.47,52.87,81.78,1.26,3.94,2.41,8.04,3.43,12.18,1.93,7.84-.4,16.11-6.13,21.8h0s-.27.28-.27.28c-.64.64-1.31,1.25-2,1.81l-.81.67c-6.82,5.62-12.21,10.06-18.66,13.51-4.3,2.28-8.88,4.01-13.61,5.14-26.01,6.34-52.43,12.22-78.52,17.48-50.67,10.22-102.66,18.64-154.56,25.05-81.35,10.03-163.24,15.06-245.2,15.06ZM165.91,117.45c-.16,0-.32,0-.48.03-51.38,8.32-94.35,41.06-117.91,89.83-5.44,11.32-9.76,23.15-12.89,35.32-8.94,35.52-9.23,72.66-.83,108.31,4.5,19.57,11.98,38.33,22.18,55.62,15.26,25.51,35.27,45.61,57.85,58.13,32.33,17.93,67.26,19.18,101.04,20.4,105.65,3.77,211.43-.83,316.36-13.77,51.86-6.4,103.82-14.82,154.45-25.03,26.07-5.25,52.47-11.13,78.47-17.47,4.62-1.1,9.09-2.78,13.29-5.01,6.32-3.38,11.66-7.78,18.41-13.34l.81-.67c.59-.49,1.17-1.01,1.73-1.55l.16-.17c5.55-5.6,7.71-12.98,5.92-20.26h0c-1.01-4.1-2.15-8.16-3.39-12.06-20.92-65.99-75.02-112.63-134.64-116.05l-1.51-.08c-48.76-2.19-91.44-8.25-130.45-18.53-46.57-12.27-87.23-30.75-120.85-54.92-79.67-57.27-163.88-81.27-243.51-69.42-.74.13-1.48.32-2.19.57l-.55.15c-.31.01-.63.01-.94-.01-.18,0-.36-.02-.54-.02h0Z"/><path class="cls-9" d="m272.79,221.29c-2.21-2.12-4.46-13.92-7.28-15.11,2.1,4.65.58,5.88.57,10.99.03,2.9-.31,5.79-1.01,8.6h-47.7v-37.22c0-14.07,11.4-25.47,25.47-25.47h0c1.28.02,2.54.21,3.78.55,8.34,2.25,14.85,8.78,17.08,17.13,3.64,13.29,9.42,35.41,9.09,40.53Z"/><path class="cls-4" d="m220.18,267.09l.02-29.01-17.06,1.52,6.02,18.3-2.82,46c-3.89.87-6.33,4.73-5.46,8.62s4.73,6.33,8.62,5.46c3.65-.82,6.07-4.29,5.57-8l5.1-42.89Z"/><polygon class="cls-4" points="253.74 474.42 260.63 474.42 263.91 447.85 253.74 447.85 253.74 474.42"/><path class="cls-9" d="m251.41,471.03l10.89-.65v4.67l10.36,7.15c1.32.91,1.66,2.73.74,4.06-.54.79-1.44,1.26-2.4,1.26h-12.97l-2.24-4.62-.87,4.62h-4.89l1.37-16.48Z"/><polygon class="cls-4" points="213.9 474.42 220.79 474.42 224.07 447.85 213.9 447.85 213.9 474.42"/><path class="cls-9" d="m211.57,471.03l10.89-.65v4.67l10.36,7.15c1.32.91,1.66,2.73.74,4.06-.54.79-1.44,1.26-2.4,1.26h-12.97l-2.24-4.62-.87,4.62h-4.89l1.37-16.48Z"/><path class="cls-2" d="m247.6,206.74l-14.27.28-10.08,10.64-8.08,1.18c-7.53,1.1-13.26,7.32-13.75,14.92h0l1.4,7.69h8.4l4.86,28.52c-1.89,4.81-2.02,8.61,1.86,10.1l12.04,22.67,35.55-15.95c1.8-3.1,2.38-6.21.54-9.24l2.54-43.66h8.54c0-8.17-2.76-15.05-10.88-15.96-3.22-.35-6.46-.53-9.7-.55l-8.96-10.64Z"/><path class="cls-9" d="m265.52,286.79s-34.71,6.16-47.58-6.72c0,0-1.31,2.22-3.28,5.9-.57,1.06-1.66,1.78-2.32,3.06-.6,1.17-2.14,2.6-2.8,3.92-.53,1.06.32,2.45-.23,3.6-6.59,13.83-14.3,33.34-12.65,46.22,1.06,8.31,3.26,27.64,5.58,48.4.18,1.62-1.29,3.71-1.1,5.34.17,1.54,1.99,2.63,2.16,4.18.11,1.03-1.16,2.07-1.04,3.1.12,1.12,1.63,2.23,1.76,3.35,3.17,28.67,6.08,55.43,6.08,55.43h16.23l3.06-61.12-2.5-22.28,5.88-45.06,8.12,42.82,1.04,24.1,8.58,62.66h15.01v-60.66l1.12-3.15-1.12-4.04,1.12-4.35-1.12-4.74v-99.93Z"/><path class="cls-4" d="m251.99,198.46c-5.37,7.14-15.52,8.57-22.66,3.2-7.14-5.37-8.57-15.52-3.2-22.66,5.37-7.14,15.52-8.57,22.66-3.2,3,2.26,5.12,5.49,6,9.14.05.19.09.39.12.59.92,4.53-.15,9.24-2.93,12.93Z"/><path class="cls-9" d="m248.61,189.23c-.34-1.72-1.21-3.3-2.49-4.51.13,1.65-.1,3.31-.67,4.86-4.26.38-8.53-.47-12.32-2.44-2.85-1.94-6.49-1.77-10.72,0,0-8.66,7.01-15.67,15.67-15.67h2.8c8.66,0,15.67,7.02,15.67,15.67-2.58.93-5.24,1.62-7.95,2.08Z"/><circle class="cls-1" cx="126.16" cy="343.97" r="45.03"/><circle class="cls-1" cx="413.11" cy="137.37" r="45.03"/><circle class="cls-1" cx="770.68" cy="351.03" r="45.03"/><path class="cls-5" d="m494.33,142.28v102.1c0,4.41-3.55,8.01-7.97,8.05-.03,0-.06,0-.09,0h-11.88c-19.8,0-35.85-16.05-35.85-35.85h0v-74.31c0-4.45,3.61-8.06,8.06-8.06h4.82c-2.23,6.51,28.05,9.25,29.71,0h5.16c4.45,0,8.06,3.61,8.06,8.06h0Z"/><path class="cls-6" d="m459.07,126.59c0-.58.47-1.05,1.06-1.06h7.18c.58,0,1.05.48,1.05,1.06,0,.58-.47,1.05-1.05,1.05h-7.18c-.58,0-1.05-.47-1.06-1.06Z"/><path class="cls-6" d="m488.74,265.39h-45.4c-7.33,0-13.28-5.95-13.28-13.28v-71.37c-.51-.36-.81-.95-.8-1.57v-7.18c0-.62.3-1.21.8-1.57v-1.93c-.51-.36-.81-.95-.8-1.57v-7.18c0-.62.3-1.21.8-1.57v-3.48c-.63-.34-1.02-.99-1.02-1.7v-7.18c0-.71.39-1.37,1.02-1.7v-9.54c0-7.33,5.95-13.28,13.28-13.28h45.4c7.33,0,13.28,5.95,13.28,13.28v20.8c.49.3.78.84.78,1.41v13.69c0,.57-.3,1.11-.78,1.41v80.24c0,7.33-5.95,13.28-13.28,13.28Zm-45.4-142.35c-6.36,0-11.51,5.16-11.52,11.52v11.04l-.85.03c-.09,0-.16.08-.17.17v7.18c0,.09.07.17.17.17l.85.03v6.22l-.67.17c-.08.02-.13.09-.13.16v7.18c0,.08.06.15.13.16l.67.17v4.41l-.67.17c-.08.02-.13.09-.13.16v7.18c0,.08.06.15.13.17l.67.17v72.61c0,6.36,5.16,11.51,11.52,11.52h45.4c6.36,0,11.51-5.16,11.52-11.52v-81.75h.78v-13.49h-.78v-22.31c0-6.36-5.16-11.51-11.52-11.52h-45.4Z"/><circle class="cls-6" cx="471.31" cy="126.59" r="1.06"/><path class="cls-3" d="m241.68,331.08h-118.12c-3.49,0-6.32-2.84-6.33-6.33v-57.56c0-3.49,2.84-6.32,6.33-6.33h118.12c3.49,0,6.32,2.84,6.33,6.33v57.56c0,3.49-2.84,6.32-6.33,6.33Z"/><path class="cls-6" d="m241.68,331.08h-118.12c-3.49,0-6.32-2.84-6.33-6.33v-57.56c0-3.49,2.84-6.32,6.33-6.33h118.12c3.49,0,6.32,2.84,6.33,6.33v57.56c0,3.49-2.84,6.32-6.33,6.33Zm-118.12-68.45c-2.52,0-4.56,2.05-4.56,4.57v57.55c0,2.52,2.05,4.56,4.57,4.56h118.12c2.52,0,4.56-2.05,4.57-4.57v-57.55c0-2.52-2.05-4.56-4.57-4.56h-118.12Z"/><path class="cls-8" d="m188.95,322.57c-23.3,0-47.59-.22-56.65-.37-2.48-.05-4.47-2.07-4.48-4.55v-47.64c0-.89.72-1.61,1.61-1.61h106.37c.89,0,1.61.72,1.61,1.61v32.32c-.04,10.98-8.85,19.9-19.83,20.09-8.45.11-18.45.15-28.64.15Z"/><path class="cls-6" d="m229.48,299.36h-96.11c-1.65,0-3.12-1.04-3.68-2.59l-10.88-30.52c-.72-2.03.34-4.27,2.37-4.99.42-.15.86-.23,1.3-.23l120.14-.17c2.16,0,3.91,1.74,3.91,3.9,0,.23-.02.46-.06.69l.09.04-.34.8h0s-13.15,30.69-13.15,30.69c-.61,1.44-2.02,2.37-3.58,2.37Zm13.15-36.73l-120.14.17c-1.18,0-2.14.96-2.14,2.14,0,.24.04.48.12.71l10.88,30.52c.31.85,1.11,1.42,2.01,1.42h96.11c.85,0,1.63-.51,1.96-1.3l13.15-30.69.65.28-.65-.28c.47-1.09-.04-2.34-1.12-2.81-.27-.11-.55-.17-.84-.17Z"/><circle class="cls-3" cx="182.44" cy="298.48" r="7.53"/><circle class="cls-3" cx="466.73" cy="233.15" r="7.53"/><path class="cls-6" d="m751.37,342.31l-20.1-19.85c-1.98-1.97-4.65-3.07-7.44-3.05h-.07c-2.81,0-5.5,1.14-7.47,3.14-9.34,9.45-9.53,24.6-.43,34.29.21.23.43.45.65.67,1.22,1.22,2.57,2.3,4.03,3.22,3.97,2.57,8.61,3.93,13.34,3.91h.15c6.56-.02,12.84-2.67,17.44-7.35,4.11-4.17,4.07-10.87-.09-14.99h0Zm-1.17,13.75c-7.69,7.75-19.77,9.03-28.92,3.07-1.27-.84-2.46-1.8-3.54-2.87-9.02-8.91-9.11-23.44-.2-32.46,1.64-1.67,3.89-2.62,6.23-2.62h.05c2.32,0,4.55.91,6.2,2.54l20.1,19.86c3.47,3.43,3.5,9.01.08,12.48h0Z"/><path class="cls-6" d="m685.41,277.17l-20.1-19.86c-1.98-1.96-4.66-3.06-7.44-3.05h-.06c-2.81.01-5.51,1.15-7.48,3.15-7.63,7.75-9.32,19.56-4.17,29.14h0c1.04,1.92,2.32,3.68,3.82,5.24.17.19.36.39.56.58,4.62,4.58,10.86,7.15,17.37,7.13h.16c6.56-.03,12.84-2.68,17.44-7.35,4.11-4.16,4.07-10.87-.1-14.98,0,0,0,0,0,0h0Zm-1.17,13.75c-4.27,4.34-10.09,6.8-16.18,6.82h-.15c-12.68,0-22.95-10.29-22.95-22.96,0-6.04,2.38-11.83,6.62-16.12,3.43-3.47,9.01-3.5,12.48-.08l20.1,19.85c3.46,3.43,3.49,9.02.07,12.49Z"/><path class="cls-7" d="m752.66,348.55l-22.16-21.89c-3.03-2.98-7.9-2.95-10.88.07-7.55,7.62-7.49,19.92.14,27.47,7.62,7.55,19.92,7.49,27.47-.14.01-.01.02-.02.03-.03l5.41-5.48Z"/><path class="cls-7" d="m686.7,283.4l-22.16-21.89c-3.03-2.98-7.9-2.95-10.88.07-7.54,7.63-7.48,19.93.15,27.47,7.63,7.54,19.93,7.48,27.47-.15,0,0,.01-.01.02-.02l5.41-5.48Z"/><path class="cls-6" d="m728.3,362.18l-.53,1.39c-2.49-.94-4.9-1.89-7.24-2.84-41.39-16.89-61.15-36.66-74.37-74.18h0c-.63-1.77-1.24-3.58-1.83-5.43l1.39-.45c.47,1.78,1.15,3.49,2.03,5.1.72,2.06,1.47,4.06,2.23,6.01,12.42,31.67,30.74,49.77,65.86,65.05,1.77.77,3.58,1.53,5.43,2.29,2.15,1.4,4.53,2.44,7.02,3.05Z"/><rect class="cls-6" x="686.36" y="288.94" width="1.77" height="64.45" transform="translate(-24.19 584.44) rotate(-45.36)"/><path class="cls-4" d="m276.71,260.37l.02-29.01-17.06,1.52,6.02,18.3-21.85,33.12c-3.89.87-6.33,4.73-5.46,8.62.87,3.89,4.73,6.33,8.62,5.46,3.65-.82,6.07-4.29,5.57-8l24.13-30.01Z"/></svg>