<?xml version="1.0" encoding="UTF-8"?><svg id="Laag_1" xmlns="http://www.w3.org/2000/svg" viewBox="0 0 841.89 595.28"><defs><style>.cls-1{fill:#fff;}.cls-2{fill:#ccc;}.cls-3{fill:#dba579;}.cls-4{fill:#3f3d56;}.cls-5{fill:#3f332d;}.cls-6{fill:#32cbe4;}.cls-7{fill:#2f2e41;}</style></defs><g id="f59d61bb-6173-4011-886f-cab752b15cf5"><path id="ea601028-2261-4201-a5c6-6d1fee0209f8-120" class="cls-3" d="m773.16,316.09c-4.22-2.44-5.67-7.84-3.23-12.07.26-.45.56-.88.89-1.27l-9.21-67.32,19.18.94,3.01,65.66c3.53,3.4,3.64,9.02.24,12.56-2.85,2.96-7.35,3.58-10.89,1.5h0Z"/><path id="bab8e504-63c3-4a02-b094-c521f4d0da0a-121" class="cls-2" d="m783.43,237.27c-.39.46-.9.82-1.46,1.04l-17.24,6.58c-1.8.69-3.82-.15-4.6-1.91l-15.27-34.32c-1.47-3.18-1.72-6.79-.7-10.15,1.53-4.88,5.6-8.53,10.62-9.52,1.89-.39,3.85-.36,5.73.08,4.58,1.02,8.34,4.29,9.99,8.68l13.58,35.9c.46,1.23.22,2.62-.63,3.63Z"/><path id="e3cfda6a-f51e-4c96-8af0-12d99ec512c5-122" class="cls-3" d="m693.6,480.39h-11.93l-4.33-46.23,16.25.22v46.01Z"/><path id="a90fb924-173c-4f4a-b9ae-ede5dff37993-123" class="cls-7" d="m673.15,476.98h23v14.48h-37.49c0-8,6.48-14.48,14.48-14.48h0Z"/><path id="f7d48866-455f-47a0-876b-9c2c9b7d2f2d-124" class="cls-3" d="m749.05,480.39h-11.93l-5.67-46.01h17.6v46.01Z"/><path id="ae80d259-143f-4a2f-8815-2d5111ab51c8-125" class="cls-7" d="m728.61,476.98h23v14.48h-37.49c0-8,6.48-14.48,14.48-14.48h0Z"/><path id="b7aaac11-5418-4b5b-a747-2fb27f89cd88-126" class="cls-7" d="m750.55,464.02l-18.73-1.39c-2.21-.16-3.95-1.94-4.06-4.15l-4.18-86.33c-.09-1.88-1.69-3.33-3.57-3.24-1.55.08-2.86,1.19-3.17,2.71l-17.42,85.04c-.45,2.16-2.43,3.66-4.64,3.48l-16.94-1.35c-2.41-.19-4.21-2.3-4.02-4.71h0s0-.06,0-.09l15.71-157.11c.24-2.41,2.39-4.16,4.79-3.92.17.02.33.04.49.08l59.74,12.99c2.04.45,3.48,2.27,3.45,4.36l-2.78,149.34c-.05,2.38-1.99,4.29-4.37,4.3-.11,0-.22,0-.33-.01Z"/><circle id="eccc2a78-7d3a-4be1-aa48-fb8bb5d1e30a" class="cls-3" cx="734.16" cy="141.64" r="23.9"/><path id="a0a57a86-6e42-4b50-b3a1-f8a38df428dd-127" class="cls-2" d="m697.09,309.01c-4.65-4.17-7.24-10.17-7.1-16.41,0-34.35,29.73-111.08,30.66-113.47.09-.58.87-.83,4.99-3.61s10.06-3.21,17.65-1.27c1.57.4,2.79,1.65,3.16,3.23l1.41,2.04c.25,1.05.98,1.92,1.98,2.34,6.12,2.58,25.59,14.48,18.95,59.24-6.16,41.59-8.66,66.04-9.45,74.63-.19,2.1-1.86,3.77-3.96,3.96-3,.27-8.15.63-14.29.63-14.23,0-33.74-1.92-44.01-11.31Z"/><path id="e2026d9f-0f48-4627-b939-bcbd235b248e-128" class="cls-3" d="m668.53,296.29c-2.15-4.38-.34-9.67,4.04-11.82.47-.23.95-.42,1.45-.56l29.86-61.03,15.41,11.47-34.08,56.2c1.04,4.79-2,9.52-6.8,10.56-4.01.87-8.1-1.13-9.88-4.82h0Z"/><path id="aa5178ad-b05d-4950-85b1-a624717fe499-129" class="cls-2" d="m720.98,236.57c-.58.17-1.2.18-1.79.04l-17.98-4.14c-1.88-.43-3.09-2.25-2.76-4.15l6.45-37.01c.56-3.46,2.36-6.6,5.07-8.82,3.99-3.2,9.4-3.96,14.12-1.99,1.79.73,3.4,1.84,4.71,3.26,3.23,3.4,4.53,8.2,3.45,12.77l-8.73,37.37c-.3,1.28-1.28,2.3-2.55,2.66h0Z"/><path id="f1455aca-238f-491a-b535-1c1a045e39f4-130" class="cls-5" d="m728.57,163.23c-2.36-2.41-3.39-5.82-2.76-9.13.83-4.36,1.32-7.21,1.42-8.25h0c.32-3.55-3.27-6.42-6.82-6.88-.14-.02-.25-.03-.35-.04.09.09.19.18.27.26.67.63,1.51,1.42,1.31,2.24-.12.49-.57.84-1.37,1.06-5.55,1.55-9.83.13-13.46-4.49-1.02-1.31-1.72-2.84-2.05-4.47-1.3-6.38,2.16-11.81,5.3-15.25,2.58-2.83,6.77-6.27,12.06-6.57,4.11-.23,9,2.14,10.45,6.4,1.4-2.07,3.69-3.36,6.19-3.48,2.81-.06,5.57.71,7.94,2.21,11.59,6.64,16.57,22.45,10.87,34.53-3.58,7.6-11.34,13.25-20.25,14.76-.56.09-1.12.14-1.69.14-2.67,0-5.23-1.09-7.08-3.02h0Z"/></g><path id="f152a38b-6c6f-456c-96ce-4c801960ccf2-131" class="cls-4" d="m382.2,282.08c-1.03-2.44-3.41-4.03-6.06-4.05h-120.86c-3.62,0-6.55,2.93-6.55,6.55v152.9c0,3.62,2.93,6.55,6.55,6.55h120.87c3.62,0,6.55-2.94,6.55-6.55v-152.9c0-.86-.17-1.71-.5-2.5h0Zm-.96,155.4c0,2.81-2.28,5.09-5.1,5.1h-120.86c-2.81,0-5.1-2.28-5.1-5.1v-152.9c0-2.81,2.28-5.09,5.1-5.1h120.87c2.08,0,3.95,1.28,4.73,3.21.07.19.14.38.19.58.12.43.17.87.17,1.32v152.9Z"/><path id="fabca9b7-6499-499c-b0ba-e512eedfa0e6-132" class="cls-4" d="m356.97,314.12h-36.41c-1.61,0-2.91-1.3-2.91-2.91s1.3-2.91,2.91-2.91h36.41c1.61,0,2.91,1.3,2.91,2.91s-1.3,2.91-2.91,2.91h0Z"/><path id="b1b2178d-f6c7-4a19-857a-cc93cc70df69-133" class="cls-4" d="m356.97,329.42h-36.41c-1.61,0-2.91-1.3-2.91-2.91s1.3-2.91,2.91-2.91h36.41c1.61,0,2.91,1.3,2.91,2.91s-1.3,2.91-2.91,2.91h0Z"/><path id="bd84b5e9-e9c5-4886-bcfd-3c769a5bd20c-134" class="cls-6" d="m301.89,338.12h-26.61c-1.81,0-3.27-1.47-3.28-3.28v-31.4c0-1.81,1.47-3.27,3.28-3.28h26.61c1.81,0,3.27,1.47,3.28,3.28v31.4c0,1.81-1.47,3.27-3.28,3.28Z"/><path id="ad20b6ae-6256-4ad3-9ba5-bff6ef303c78-135" class="cls-2" d="m356.72,360.72h-82.28c-1.61,0-2.91-1.3-2.91-2.91s1.3-2.91,2.91-2.91h82.28c1.61,0,2.91,1.3,2.91,2.91s-1.3,2.91-2.91,2.91Z"/><path id="f5b31b5a-d389-4394-a0c3-430493f21651-136" class="cls-2" d="m356.72,376.01h-82.28c-1.61,0-2.91-1.31-2.9-2.92,0-1.6,1.3-2.9,2.9-2.9h82.28c1.61,0,2.92,1.3,2.92,2.9,0,1.61-1.3,2.92-2.9,2.92h-.02Z"/><path id="e6b00d4f-f233-434b-82e7-f520ed55a592-137" class="cls-2" d="m356.72,391.3h-82.28c-1.61,0-2.91-1.31-2.9-2.92,0-1.6,1.3-2.9,2.9-2.9h82.28c1.61,0,2.92,1.3,2.92,2.9,0,1.61-1.3,2.92-2.9,2.92h-.02Z"/><path id="f83e6214-6629-4e95-ad35-3c9b0c78a3d6-138" class="cls-2" d="m356.72,406.59h-82.28c-1.61,0-2.91-1.31-2.9-2.92,0-1.6,1.3-2.9,2.9-2.9h82.28c1.61,0,2.92,1.3,2.92,2.9,0,1.61-1.3,2.92-2.9,2.92h-.02Z"/><path id="b83f14e7-a754-4235-a578-aebf681d4a1c-139" class="cls-2" d="m356.72,421.89h-82.28c-1.61,0-2.91-1.31-2.9-2.92,0-1.6,1.3-2.9,2.9-2.9h82.28c1.61,0,2.92,1.3,2.92,2.9,0,1.61-1.3,2.92-2.9,2.92h-.02Z"/><path id="a38c097c-1c01-4356-80b1-56a89c2c58fa-140" class="cls-4" d="m622.96,492.82h169.89c.48,0,.87-.39.87-.87s-.39-.87-.87-.87h-169.89c-.48,0-.87.39-.87.87s.39.87.87.87Z"/><circle id="af1d3ae0-b86a-44f8-8168-f2f371efc620" class="cls-6" cx="317.76" cy="213.08" r="28.11"/><path id="b4906b3b-71df-4c7e-84d8-52e6769e6d26-141" class="cls-1" d="m314.97,223.8c-.63,0-1.25-.2-1.75-.58l-.03-.02-6.61-5.05c-1.29-.98-1.53-2.83-.55-4.11.98-1.29,2.83-1.53,4.11-.55,0,0,0,0,0,0l4.28,3.28,10.11-13.19c.99-1.29,2.83-1.53,4.11-.54h0s-.06.09-.06.09l.06-.09c1.28.99,1.53,2.83.54,4.11l-11.89,15.51c-.56.72-1.42,1.15-2.33,1.14h0Z"/><circle id="eb67bc87-0ab3-400d-9346-8836e9b135a0" class="cls-2" cx="132.7" cy="181.19" r="19.05"/><path id="a587243e-22a7-4e92-b127-7238b8715868-142" class="cls-1" d="m130.82,188.45c-.43,0-.85-.14-1.19-.39l-.02-.02-4.48-3.43c-.86-.69-1-1.94-.31-2.8.67-.83,1.87-.99,2.73-.36l2.9,2.22,6.85-8.94c.67-.87,1.92-1.04,2.79-.37h0s-.04.06-.04.06l.04-.06c.87.67,1.03,1.92.37,2.79l-8.06,10.51c-.38.49-.96.78-1.58.78h0Z"/><path id="b24c2fd4-5735-4a8b-b246-c12b52e11f5f-143" class="cls-2" d="m186.23,225.85c-.81-1.92-2.68-3.17-4.76-3.19h-95.11c-2.85,0-5.15,2.31-5.16,5.16v120.31c0,2.85,2.31,5.15,5.16,5.16h95.11c2.85,0,5.15-2.31,5.16-5.16v-120.31c0-.68-.13-1.34-.39-1.97Zm-.75,122.28c0,2.21-1.8,4-4.01,4.01h-95.11c-2.21,0-4.01-1.79-4.01-4.01h0v-120.31c0-2.21,1.8-4,4.01-4.01h95.11c1.64,0,3.11,1.01,3.72,2.53.06.15.11.3.15.45.09.34.14.69.14,1.04v120.31Z"/><path id="f030a160-4767-48dc-a1cd-6e8d6a87c559-144" class="cls-2" d="m166.38,251.07h-28.65c-1.27,0-2.29-1.03-2.29-2.29s1.03-2.29,2.29-2.29h28.65c1.27,0,2.29,1.03,2.29,2.3,0,1.26-1.02,2.28-2.29,2.29h0Z"/><path id="f0576b91-fb67-46c0-9bc8-b0d78fa4e393-145" class="cls-2" d="m166.38,263.1h-28.65c-1.27,0-2.29-1.03-2.29-2.3,0-1.26,1.02-2.28,2.29-2.29h28.65c1.27,0,2.29,1.03,2.29,2.3,0,1.26-1.02,2.28-2.29,2.29h0Z"/><path id="bb47cdff-cafb-4bb6-bfa7-d7f244c106f8-146" class="cls-2" d="m123.03,269.95h-20.93c-1.42,0-2.58-1.15-2.58-2.58v-24.7c0-1.42,1.15-2.58,2.58-2.58h20.93c1.42,0,2.58,1.16,2.58,2.58v24.7c0,1.42-1.15,2.58-2.58,2.58Z"/><path id="b9c4730d-541e-403a-bfc4-7f597a133cff-147" class="cls-2" d="m166.18,287.73h-64.74c-1.27,0-2.29-1.03-2.29-2.3,0-1.26,1.02-2.28,2.29-2.29h64.74c1.27,0,2.29,1.03,2.29,2.29s-1.03,2.29-2.29,2.29Z"/><path id="b0b4ad5b-1090-4149-ad9f-38443074182d-148" class="cls-2" d="m166.18,299.77h-64.74c-1.27,0-2.29-1.03-2.29-2.3,0-1.26,1.02-2.28,2.29-2.29h64.74c1.27,0,2.29,1.03,2.29,2.3,0,1.26-1.02,2.28-2.29,2.29Z"/><path id="a36ae105-a865-43f2-a38b-4a3728e49bb5-149" class="cls-2" d="m166.18,311.8h-64.74c-1.27,0-2.29-1.03-2.29-2.29s1.03-2.29,2.29-2.29h64.74c1.27,0,2.29,1.03,2.29,2.29s-1.03,2.29-2.29,2.29Z"/><path id="bd69ee89-5535-4e79-aba4-c83b03de0083-150" class="cls-2" d="m166.18,323.83h-64.74c-1.27,0-2.29-1.03-2.29-2.3,0-1.26,1.02-2.28,2.29-2.29h64.74c1.27,0,2.29,1.03,2.29,2.29s-1.03,2.29-2.29,2.29Z"/><path id="a075ca9b-1e14-49c6-b2ff-3fb4066a82fb-151" class="cls-2" d="m166.18,335.86h-64.74c-1.27,0-2.29-1.03-2.29-2.29s1.03-2.29,2.29-2.29h64.74c1.27,0,2.29,1.03,2.29,2.29s-1.03,2.29-2.29,2.29Z"/><path id="b99f005d-5535-4af5-95d9-44a7a4f0c0b8-152" class="cls-2" d="m66.05,353.79h133.68c.38,0,.69-.31.69-.69s-.31-.69-.69-.69H66.05c-.38,0-.69.3-.69.68s.3.69.68.69h0Z"/><circle id="b1c5fac5-a790-403a-b8d0-31ae0bc4b4ba" class="cls-2" cx="498.63" cy="181.19" r="19.05" transform="translate(239.9 644.35) rotate(-80.78)"/><path id="a5ae1e6c-de0b-426c-a811-1990f7b7ccda-153" class="cls-1" d="m496.74,188.45c-.43,0-.85-.14-1.19-.39l-.02-.02-4.48-3.43c-.86-.69-1-1.94-.31-2.8.67-.83,1.87-.99,2.73-.36l2.9,2.22,6.85-8.94c.67-.87,1.92-1.04,2.79-.37h0s-.04.06-.04.06l.04-.06c.87.67,1.03,1.92.37,2.79l-8.06,10.51c-.38.49-.96.78-1.58.78h0Z"/><path id="e481f25f-f0ef-423d-9e4a-b2d79b6febf5-154" class="cls-2" d="m552.15,225.85c-.81-1.92-2.68-3.17-4.76-3.19h-95.11c-2.85,0-5.15,2.31-5.16,5.16v120.31c0,2.85,2.31,5.15,5.16,5.16h95.11c2.85,0,5.15-2.31,5.16-5.16v-120.31c0-.68-.13-1.34-.39-1.97Zm-.75,122.28c0,2.21-1.8,4-4.01,4.01h-95.11c-2.21,0-4.01-1.79-4.01-4.01h0v-120.31c0-2.21,1.8-4,4.01-4.01h95.11c1.64,0,3.11,1.01,3.72,2.53.06.15.11.3.15.45.09.34.14.69.14,1.04v120.31Z"/><path id="a5b052e7-0a6d-48d5-ba9e-291ff1ca3bfd-155" class="cls-2" d="m532.3,251.07h-28.65c-1.27,0-2.29-1.03-2.29-2.29s1.03-2.29,2.29-2.29h28.65c1.27,0,2.29,1.03,2.29,2.3,0,1.26-1.02,2.28-2.29,2.29h0Z"/><path id="bd247f09-cb3d-4df5-9c12-787ea9e72b07-156" class="cls-2" d="m532.3,263.1h-28.65c-1.27,0-2.29-1.03-2.29-2.3,0-1.26,1.02-2.28,2.29-2.29h28.65c1.27,0,2.29,1.03,2.29,2.3,0,1.26-1.02,2.28-2.29,2.29h0Z"/><path id="b3d7a89f-9ffc-4079-aa15-40ad611f9a98-157" class="cls-2" d="m488.96,269.95h-20.93c-1.42,0-2.58-1.15-2.58-2.58v-24.7c0-1.42,1.15-2.58,2.58-2.58h20.93c1.42,0,2.58,1.16,2.58,2.58v24.7c0,1.42-1.15,2.58-2.58,2.58Z"/><path id="e1bf4aca-fc8d-43da-a727-289201e2eac7-158" class="cls-2" d="m532.1,287.73h-64.74c-1.27,0-2.29-1.03-2.29-2.3,0-1.26,1.02-2.28,2.29-2.29h64.74c1.27,0,2.29,1.03,2.29,2.3,0,1.26-1.02,2.28-2.29,2.29Z"/><path id="b286f981-abb8-47cd-9209-f09770ef33ad-159" class="cls-2" d="m532.1,299.77h-64.74c-1.27,0-2.29-1.03-2.29-2.29s1.03-2.29,2.29-2.29h64.74c1.27,0,2.29,1.03,2.29,2.29s-1.03,2.29-2.29,2.29Z"/><path id="ad15bc08-a918-4115-a327-9a31c97a6753-160" class="cls-2" d="m532.1,311.8h-64.74c-1.27,0-2.29-1.03-2.29-2.29s1.03-2.29,2.29-2.29h64.74c1.27,0,2.29,1.03,2.29,2.29s-1.03,2.29-2.29,2.29Z"/><path id="a508ff04-1989-4f94-915f-90cf16933556-161" class="cls-2" d="m532.1,323.83h-64.74c-1.27,0-2.29-1.03-2.29-2.3,0-1.26,1.02-2.28,2.29-2.29h64.74c1.27,0,2.29,1.03,2.29,2.3,0,1.26-1.02,2.28-2.29,2.29Z"/><path id="e65b0501-2d31-4d85-b27f-ea92835ed026-162" class="cls-2" d="m532.1,335.86h-64.74c-1.27,0-2.29-1.03-2.29-2.29s1.03-2.29,2.29-2.29h64.74c1.27,0,2.29,1.03,2.29,2.29s-1.03,2.29-2.29,2.29Z"/><path id="a3e956aa-8abe-48aa-ba4a-17518f20fda0-163" class="cls-2" d="m431.97,353.79h133.68c.38,0,.69-.31.69-.69s-.31-.69-.69-.69h-133.68c-.38,0-.69.3-.69.68,0,.38.3.69.68.69h0Z"/><path id="b01c4841-6b77-41d3-9bc6-bba4643c130f-164" class="cls-4" d="m230.03,444.55h169.89c.48,0,.87-.39.87-.87s-.39-.87-.87-.87h-169.89c-.48,0-.87.39-.87.87s.39.87.87.87Z"/></svg>