<?xml version="1.0" encoding="UTF-8"?><svg id="Laag_1" xmlns="http://www.w3.org/2000/svg" viewBox="0 0 841.89 595.28"><defs><style>.cls-1{fill:#f0f0f0;}.cls-2{fill:#e6e6e6;}.cls-3{fill:#f4f4f4;}.cls-4{fill:#ffb6b6;}.cls-5{fill:#e4e4e4;}.cls-6,.cls-7{fill:#8c1cec;}.cls-8{fill:#9e616a;}.cls-9{fill:#3f3d56;}.cls-10{fill:#5c0f9e;}.cls-11{fill:#32cbe4;}.cls-12{fill:#2f2e41;}.cls-7{stroke:#1d1d1b;stroke-miterlimit:10;}</style></defs><ellipse class="cls-1" cx="497.64" cy="366.48" rx="130.96" ry="15.1"/><ellipse class="cls-1" cx="184.16" cy="489.81" rx="63.65" ry="9.9"/><rect class="cls-2" x="555.77" y="89.42" width="4.22" height="81.48" transform="translate(371.86 671.98) rotate(-84.18)"/><circle class="cls-2" cx="495.16" cy="123.47" r="7.85"/><rect class="cls-5" x="555.77" y="112.47" width="4.22" height="81.48" transform="translate(348.93 692.7) rotate(-84.18)"/><circle class="cls-5" cx="495.16" cy="146.52" r="7.85"/><rect class="cls-11" x="555.77" y="135.52" width="4.22" height="81.48" transform="translate(326.01 713.41) rotate(-84.18)"/><circle class="cls-11" cx="495.16" cy="169.56" r="7.85"/><polygon class="cls-5" points="34.15 264.86 114.27 204.05 113.62 322.45 38.08 384.76 34.15 264.86"/><polygon class="cls-7" points="219.5 133.35 334.42 117.12 336.15 217.21 220.51 236.36 219.5 133.35"/><polygon class="cls-10" points="736.4 266.04 736.4 352.22 792.05 405.7 794.65 318.35 736.4 266.04"/><g id="f1012d9b-0a3f-4e62-89ec-f75ec41b1f18"><path id="f1db56c4-d40a-4b97-925d-862f8518bc4b-138" class="cls-10" d="m736.73,188.65v12.71l38.78,31.5,1.82-10.9-40.6-33.31Z"/></g><path id="a03c9d69-04e1-44a9-b627-9efaf6e70c5d-139" class="cls-2" d="m737.34,210.45l-.61,12.72,73.31,69.05-1.21-14.53-71.49-67.24Z"/><path id="f49e7db1-285b-4bca-9b97-2387afac8e22-140" class="cls-2" d="m736.73,234.08v12.11l73.31,70.28v-15.75l-73.31-66.64Z"/><polygon class="cls-8" points="159.69 478.78 155.17 478.78 153.02 461.36 159.69 461.36 159.69 478.78"/><path class="cls-12" d="m160.84,483.16h-14.56v-.18c0-3.13,2.54-5.67,5.67-5.67h8.9s0,5.85,0,5.85Z"/><polygon class="cls-8" points="175.7 474.3 171.53 476.03 162.9 460.74 169.06 458.2 175.7 474.3"/><path class="cls-12" d="m178.44,477.91l-13.46,5.56-.07-.17c-1.19-2.89.18-6.21,3.08-7.4h0s8.22-3.39,8.22-3.39l2.23,5.41Z"/><path class="cls-12" d="m162.66,347.77s16.76,7.94,5.62,44.32l-.85,28.78-5.55,52.91-9.04-.58-4-50.94-13.32-42.07,2.64-20.32,24.49-12.11Z"/><path class="cls-6" d="m137.08,365.25l1.36-26.42c-9.27-15.56.23-24.45,1-25.14l8.49-12.4,7.43-2.04c5.21-1.43,10.6,1.64,12.03,6.85.24.87.36,1.77.35,2.67l-.33,43.28-30.34,13.19Z"/><polygon class="cls-12" points="154.04 429.96 163.38 468.7 174.08 464.35 159.57 429.29 154.04 429.96"/><path class="cls-8" d="m139.8,378.95c2.39-1.01,3.51-3.77,2.49-6.16-.11-.25-.24-.5-.39-.73l9.47-13.41-7.89-.45-8.39,12.64c-2.09,1.57-2.51,4.53-.94,6.62,1.31,1.75,3.65,2.37,5.65,1.5h0Z"/><polygon class="cls-6" points="143.08 314.25 147.22 343.46 135.53 365.48 145.31 371.6 162.17 346.68 155.11 311.37 143.08 314.25"/><circle id="aaba450f-0f04-490f-b553-501192395cc8" class="cls-8" cx="151.67" cy="281.91" r="12.49" transform="translate(-140.29 413.21) rotate(-85.93)"/><path class="cls-12" d="m170.51,328.5c.47-6.99,3.39-13.54,5.75-20.13,2.36-6.6,4.19-13.78,2.41-20.55-1.04-3.49-2.68-6.78-4.84-9.71-3.9-5.66-8.88-10.92-15.33-13.31-6.45-2.39-14.57-1.2-18.82,4.21-1.56,1.9-2.39,4.29-2.37,6.75.06,2.48,1.34,4.77,3.41,6.12,1.18.71,2.58,1.05,3.65,1.91,1.07.86,1.66,2.62.68,3.59l.39.19c3.49.75,5.44,4.71,5.41,8.29s-1.48,6.96-2.38,10.42c-.9,3.46-1.16,7.43.91,10.34,2.07,2.89,6.06,4.16,7.57,7.38,2.06,4.39-1.67,9.42-1.22,14.25.43,4.64,4.77,8.14,9.32,9.14,4.55,1,9.27.05,13.83-.89-6.2-3.25-8.85-11.01-8.38-18Z"/><path class="cls-8" d="m459.89,264.38l.61-20.3-2.71-18.88-4.05.27-3.41,19.86,3.81,21.3c-1.87,2.57-1.31,6.17,1.26,8.04,2.57,1.87,6.17,1.31,8.04-1.26,1.87-2.57,1.31-6.17-1.26-8.04-.68-.5-1.46-.84-2.29-1h0Z"/><polygon class="cls-8" points="459.38 312.01 448.01 360.12 456.58 360.73 472.99 314.16 459.38 312.01"/><polygon class="cls-8" points="479.64 308.85 495.32 355.73 502.92 351.74 490.88 304.6 479.64 308.85"/><path class="cls-12" d="m458.79,268.47s-5.45,6.02,3.95,17.58l-12.18,63.82,9.05,3.29,16.46-42.8,14.81,37.04,11.52-4.94-15.74-56.42,1.75-14.37-4.35-4.02-25.28.81Z"/><path class="cls-9" d="m470.1,203.49s-16.48,6.46-14.83,16.33l4.05,39.04-4.17,13.54s27.81,4.47,32.89-.6l.97-42.93,1.82-16.97-8.81-3.56-2.2-3.26-9.73-1.6Z"/><polygon class="cls-9" points="457.79 214.93 451.78 228.46 460.72 231.92 457.79 214.93"/><path class="cls-8" d="m502.84,270l-7.25-38.69-11.53-.96,3.25,19.42,7.85,21.97c-1.79,2.64-1.1,6.22,1.54,8,2.64,1.79,6.22,1.1,8-1.54,1.79-2.64,1.1-6.22-1.54-8-.11-.07-.22-.14-.33-.21h0Z"/><path class="cls-9" d="m477.72,216.64l6.65,18.88,12.87-1.7s2.82-17.47-6.41-21.91l-13.11,4.73Z"/><path id="aadf75e6-ac14-4c0d-b07b-d38ba10ebdab-141" class="cls-8" d="m486.75,189.09c-.34,16.16-25.23,13.4-21.93-2.48,2.54-12.63,22.27-10.39,21.93,2.48Z"/><path id="e2c3cfee-80d7-4301-b109-7608295bf7e0-142" class="cls-9" d="m480.68,174.23c-7.8,1.33-19.89-1.8-19.65,10.42-.8,1.2-1.68,2.51-1.11,4.01,2.75,3.36,4.19,8.56,7.79,10.91,3.2-.02,7.38.42,9.53-2.37.91-2.29-.7-5.08.67-7.23,1.8-.58,3.57,1.73,4.27-1.56-.2-1.63.5-3.23,1.84-4.19,2.83-3.24.9-9.2-3.33-9.99Z"/><path class="cls-12" d="m445.8,358.92h13.46s0,0,0,0c4.74,0,8.58,3.84,8.58,8.58v.28h-22.03s0-8.85,0-8.85Z"/><path class="cls-12" d="m492.02,353.11l13.16-2.84h0c4.63-1,9.19,1.95,10.19,6.58l.06.27-21.54,4.64-1.87-8.66Z"/><polygon class="cls-4" points="547.93 362.26 552.28 362.26 554.35 345.49 547.93 345.49 547.93 362.26"/><path class="cls-12" d="m546.82,360.84h8.56s0,0,0,0c3.01,0,5.46,2.44,5.46,5.46v.18h-14.02s0-5.63,0-5.63Z"/><polygon class="cls-4" points="525.71 362.26 530.06 362.26 532.13 345.49 525.71 345.49 525.71 362.26"/><path class="cls-12" d="m524.6,360.84h8.56s0,0,0,0c3.01,0,5.46,2.44,5.46,5.46v.18h-14.02s0-5.63,0-5.63Z"/><path class="cls-4" d="m576.48,175.38c0-2.73-2.21-4.94-4.94-4.94-2.73,0-4.94,2.21-4.94,4.94,0,.64.13,1.28.37,1.88l-9.99,15.81-6.22,12.54,5.13,4.56,3.95-4.16,12.92-25.84c2.18-.56,3.71-2.52,3.72-4.78Z"/><path class="cls-4" d="m524.63,227.23l-9.79-1.52-2.33,17.72-12.71,27.35c-2.32,1.44-3.02,4.49-1.58,6.81,1.44,2.32,4.49,3.02,6.81,1.58,2.31-1.44,3.02-4.49,1.58-6.8l13.29-24,4.74-21.14Z"/><path class="cls-12" d="m530.06,256.75s-8.61,7.96-7.52,27.99l2.41,30.94-.61,43.12,8.85-.7,7.73-72.27,7.41,29.63-2.66,39.47,8.52.2,8.95-44.61-2.12-33.07-3.56-20.71h-27.4Z"/><path class="cls-3" d="m539.27,210.11l-20.58,5.76,10.46,31.35-1.56,11.99,31.73.21-7.35-23.18s4.12-8.48-.58-14.42l-12.12-11.7Z"/><path class="cls-3" d="m536.8,215.05l2.47-4.94s-.08-1.24,5.72-1.86l6.81-6.77,6.23,6.21-10.53,15.58-10.7-8.23Z"/><path class="cls-3" d="m526.92,219.99s-7.41-8.23-11.52-4.12c-4.12,4.12-2.01,17.2-2.01,17.2l12.82,1.99.71-15.07Z"/><path id="bf97ead5-a8ed-4eb0-acc5-869eed05cf08-143" class="cls-4" d="m530.68,188.35c12.62.06,12.61,19.24,0,19.29-12.61-.06-12.61-19.24,0-19.29Z"/><path class="cls-12" d="m532.09,197.36c1.71,1,3.48,2.03,5.44,2.25s4.19-.61,4.98-2.43c.25-.63.38-1.3.39-1.97.17-3.45-1.02-6.82-3.32-9.4-2.34-2.55-5.67-3.96-9.12-3.86-3.26.14-6.27,1.68-9.16,3.19-2.66,1.39-5.47,2.92-6.91,5.55-2.14,3.9-.58,8.67-.16,13.09.59,6.67-1.56,13.29-5.95,18.35l17.95,1.7c2.17.32,4.39.3,6.55-.07,5.65-1.26,9.2-6.86,7.94-12.51-.45-2.01-1.48-3.84-2.96-5.26-2.55-2.45-6.64-4.19-6.75-7.72"/><polygon class="cls-10" points="36.35 240.79 102.1 192.66 101.58 196.78 36.56 245.34 36.35 240.79"/><path id="e675ae52-c925-4d34-8b81-f405477c3ca7-144" class="cls-1" d="m379.53,463.83c18.13-.07,18.13,3.93,0,3.85-18.13.07-18.13-3.93,0-3.85Z"/><path id="e3c5ec81-3296-48b2-bdc0-fdf32bb949c4-145" class="cls-1" d="m115.32,462.18c18.13-.07,18.13,3.93,0,3.85-18.13.07-18.13-3.93,0-3.85Z"/><path id="a417f11e-12d9-4890-9c52-a0b47cfebf3d-146" class="cls-1" d="m622.33,392.22c18.13-.07,18.13,3.93,0,3.85-18.13.07-18.13-3.93,0-3.85Z"/><path class="cls-1" d="m620.88,389.3c.04-1.76-1.22-3.67-2.98-3.68-1.44.1-2.63,1.18-2.86,2.61-.18,1.41.24,2.83,1.15,3.91.91,1.07,1.96,2,3.13,2.78l.31-1.13c-.22.14-.45.25-.69.34.95-1.48,1.9-3.07,1.94-4.83Z"/><path class="cls-1" d="m619.63,393.79c.27-.17.52-.38.74-.61-.2.04-.4.1-.61.13l-.13.48Z"/><path class="cls-1" d="m632.82,380.04c-1.65-1.3-3.86-1.64-5.82-.91-1.94.77-3.44,2.36-4.1,4.34-.64,1.89-.5,3.94-.81,5.91-.18,1.41-.78,2.73-1.72,3.8,3.15-.63,6.22-1.64,9.13-3.01,2.1-.99,4.28-2.36,5.01-4.57.6-2.02-.06-4.21-1.68-5.56Z"/><path class="cls-1" d="m379.72,460.9c.04-1.76-1.22-3.67-2.98-3.68-1.44.1-2.63,1.18-2.86,2.61-.18,1.41.24,2.83,1.15,3.91.91,1.07,1.96,2,3.13,2.78l.31-1.13c-.22.14-.45.25-.69.34.95-1.48,1.9-3.07,1.94-4.83Z"/><path class="cls-1" d="m378.47,465.39c.27-.17.52-.38.74-.61-.2.04-.4.1-.61.13l-.13.48Z"/><path class="cls-1" d="m391.67,451.64c-1.65-1.3-3.86-1.64-5.82-.91-1.94.77-3.44,2.36-4.1,4.34-.64,1.89-.5,3.94-.81,5.91-.18,1.41-.78,2.73-1.72,3.8,3.15-.63,6.22-1.64,9.13-3.01,2.1-.99,4.28-2.36,5.01-4.57.6-2.02-.06-4.21-1.68-5.56Z"/><path class="cls-1" d="m115.52,459.26c.04-1.76-1.22-3.67-2.98-3.68-1.44.1-2.63,1.18-2.86,2.61-.18,1.41.24,2.83,1.15,3.91.91,1.07,1.96,2,3.13,2.78l.31-1.13c-.22.14-.45.25-.69.34.95-1.48,1.9-3.07,1.94-4.83Z"/><path class="cls-1" d="m114.27,463.75c.27-.17.52-.38.74-.61-.2.04-.4.1-.61.13l-.13.48Z"/><path class="cls-1" d="m127.47,450c-1.65-1.3-3.86-1.64-5.82-.91-1.94.77-3.44,2.36-4.1,4.34-.64,1.89-.5,3.94-.81,5.91-.18,1.41-.78,2.73-1.72,3.8,3.15-.63,6.22-1.64,9.13-3.01,2.1-.99,4.28-2.36,5.01-4.57.6-2.02-.06-4.21-1.68-5.56Z"/></svg>