<svg width="534" height="419" viewBox="0 0 534 419" fill="none" xmlns="http://www.w3.org/2000/svg">
<path d="M14.1343 58.6404C19.5653 53.221 26.9314 50.1762 34.6123 50.1762H349.388C357.069 50.1762 364.436 53.221 369.866 58.6404C375.297 64.0598 378.348 71.4098 378.348 79.0735V275.546C378.348 354.265 314.399 418.08 235.51 418.08H34.6123C26.9314 418.08 19.5653 415.035 14.1343 409.616C8.70344 404.197 5.65259 396.846 5.65259 389.183V79.0735C5.65259 71.4098 8.70344 64.0598 14.1343 58.6404Z" fill="#FDFDFD" stroke="#F1F1F1"/>
<path d="M394.987 257.791C393.378 258.236 391.691 258.327 390.044 258.057C388.396 257.788 386.827 257.164 385.444 256.23C384.062 255.296 382.899 254.073 382.037 252.646C381.175 251.219 380.633 249.623 380.45 247.967L325.444 231.39L326.298 215.08L391.486 235.245C394.302 235.145 397.057 236.079 399.23 237.871C401.402 239.663 402.84 242.187 403.272 244.966C403.703 247.745 403.099 250.586 401.572 252.95C400.045 255.313 397.702 257.036 394.987 257.791V257.791Z" fill="#957361"/>
<path d="M209.793 173.659C204.223 169.021 212.379 146.033 210.18 139.37C210.048 138.966 209.923 138.562 209.805 138.156C209.556 137.296 209.611 136.377 209.962 135.553L230.636 125.849C236.023 128.046 240.987 131.159 245.305 135.052L277.243 171.452L308.972 200.047L322.894 206.241L369.029 226.774L368.551 228.15L368.547 228.154L363.476 242.85L363.476 242.858L373.62 249.915L340.409 244.923L318.444 235.882L297.295 227.178C266.068 208.425 214.69 198.704 209.793 173.659Z" fill="#32CBE4"/>
<path d="M356.988 342.346C356.379 342.623 355.699 342.706 355.04 342.584C354.382 342.463 353.777 342.142 353.307 341.665C352.837 341.189 352.526 340.58 352.415 339.921C352.303 339.262 352.398 338.585 352.685 337.981C352.64 337.647 352.607 337.408 352.562 337.074C352.508 337.019 352.454 336.964 352.4 336.909C346.941 331.384 337.5 335.213 337.404 342.971C337.318 349.857 336.566 357.021 338.303 363.571C339.072 366.466 340.338 369.205 342.045 371.668C331.232 361.417 322.755 348.966 317.187 335.158C315.794 331.692 314.595 328.151 313.598 324.551C312.783 321.599 312.1 318.617 311.548 315.607C308.574 299.263 309.526 282.449 314.328 266.545C317.974 262.138 320.178 256.722 320.645 251.027C320.819 248.977 320.695 246.912 320.276 244.898C319.778 245.177 315.107 237.761 315.306 237.111C314.127 236.294 312.592 236.267 311.356 235.503C305.206 231.706 300.095 234.843 300.171 243.314C295.287 248.846 297.282 253.983 303.013 257.398C306.659 259.571 308.688 263.673 312.13 266.184C312.025 266.546 311.908 266.903 311.803 267.265C309.892 273.902 308.637 280.71 308.056 287.591C306.32 280.911 302.042 273.737 298.008 269.623C293.414 264.935 287.135 261.95 281.328 258.632C274.352 254.645 265.88 260.991 268.037 268.718C268.058 268.793 268.079 268.867 268.1 268.942C268.802 269.035 269.5 269.153 270.194 269.296C271.067 269.48 271.864 269.922 272.481 270.566C273.098 271.21 273.506 272.025 273.651 272.904C273.796 273.783 273.672 274.685 273.294 275.492C272.916 276.299 272.303 276.974 271.535 277.427L271.456 277.473C272.487 279.451 273.667 281.348 274.987 283.147C277.706 304.211 291.175 306.892 306.546 301.107C306.952 301.145 307.349 301.186 307.751 301.215C308.144 310.559 309.753 319.813 312.537 328.743C314.197 334.005 316.279 339.124 318.766 344.051L318.667 343.881C315.284 338.649 310.196 334.743 304.261 332.822C295.478 330.048 285.342 331.787 276.466 330.284C272.193 329.561 268.883 334.027 271.076 337.758C271.111 337.817 271.147 337.877 271.182 337.936C272.418 337.943 273.652 338.027 274.878 338.187C275.58 338.28 276.278 338.398 276.972 338.541C277.845 338.725 278.643 339.167 279.26 339.811C279.876 340.455 280.284 341.27 280.429 342.149C280.574 343.028 280.45 343.93 280.072 344.737C279.694 345.544 279.081 346.218 278.313 346.672L278.234 346.718C278.177 346.751 278.129 346.78 278.072 346.813C281.625 350.413 285.773 353.376 290.333 355.572C300.116 370.996 314.033 367.265 326.292 356.731L326.3 356.728C330.574 362.864 335.475 368.54 340.925 373.665L365 364.037C364.979 363.736 364.946 363.429 364.916 363.131C362.744 364.162 360.454 364.924 358.096 365.399C359.004 362.498 359.904 359.579 360.812 356.678C360.836 356.621 360.856 356.563 360.873 356.504C361.329 355.022 361.798 353.545 362.254 352.064L362.254 352.062C360.924 348.611 359.155 345.346 356.989 342.346L356.988 342.346Z" fill="#F2F2F2"/>
<path d="M224.66 363.488L224.384 363.144C223.589 358.043 224.66 363.488 224.66 363.488Z" fill="#2F2E41"/>
<path d="M238.763 418.507H161.634C155.642 403.643 151.483 393.011 151.483 393.011C151.483 393.011 150.473 403.424 149.031 418.507H79.3027C78.6502 377.52 77.7366 335.436 77.4358 322.071L211.275 325.046L224.588 341.892C224.633 342.174 224.678 342.484 224.735 342.834C225.274 346.257 232.521 383 238.763 418.507Z" fill="#2F2E41"/>
<path d="M237.593 130.234L237.58 130.21C237.155 129.422 236.471 128.805 235.642 128.462C227.174 121.905 217.902 118.916 207.496 120.96C205.792 115.814 204.204 115.814 204.204 115.814L181.635 108.376L178.389 88.5888L122.781 86.7106L117.727 111.403C117.727 111.403 86.645 116.963 86.645 120.983C86.645 125.004 91.8253 125.004 86.645 125.004C81.4647 125.004 80.0775 120.409 75.5936 125.004C75.2095 125.39 74.804 125.754 74.3792 126.095C74.3273 126.141 74.2698 126.181 74.218 126.227C69.1506 130.205 65.1683 135.391 62.6384 141.309C60.1085 147.226 59.1123 153.684 59.7419 160.087L69.3024 254.99L79.5077 356.257L219.169 362.058L228.523 275.885L238.037 132.509C238.122 131.724 237.967 130.931 237.593 130.234Z" fill="#32CBE4"/>
<path d="M8.32841 384.732C9.12579 386.734 9.93047 388.2 10.7423 388.926L281.604 389.5C282.416 388.775 283.221 387.308 284.018 385.306C293.492 361.523 275.62 335.734 249.973 335.685L42.3873 335.292C16.775 335.244 -1.13241 360.981 8.32841 384.732Z" fill="white"/>
<path d="M281.824 390.075L281.604 390.074L10.5223 389.499L10.359 389.353C9.51471 388.599 8.67577 387.157 7.79411 384.944C5.55179 379.411 4.72472 373.408 5.38748 367.477C6.05025 361.545 8.18201 355.872 11.5905 350.968C14.9937 345.962 19.5734 341.864 24.9296 339.031C30.2859 336.198 36.2556 334.718 42.3175 334.718H42.3889L249.975 335.111C256.059 335.123 262.047 336.621 267.417 339.473C272.787 342.326 277.376 346.448 280.782 351.477C284.186 356.396 286.313 362.082 286.971 368.023C287.629 373.965 286.799 379.976 284.554 385.518C283.672 387.731 282.833 389.173 281.989 389.928L281.824 390.075ZM28.8399 388.298L258.509 387.603C274.72 387.554 286.645 371.938 281.841 356.487C281.388 354.942 280.71 353.471 279.829 352.121C276.528 347.247 272.081 343.253 266.877 340.488C261.672 337.723 255.869 336.271 249.973 336.26L42.3866 335.867H42.3175C39.6816 335.954 37.0823 336.509 34.6408 337.504C21.232 342.568 12.2657 355.295 11.5201 369.582C11.5106 369.764 11.5012 369.946 11.4917 370.128C11.3747 372.394 11.7061 374.661 12.467 376.8C13.228 378.938 14.4036 380.906 15.9268 382.591C17.4499 384.276 19.2908 385.645 21.3442 386.621C23.3976 387.596 25.6235 388.158 27.8946 388.275C28.2094 388.291 28.5246 388.299 28.84 388.298L28.8399 388.298Z" fill="#EFEFEF"/>
<path d="M334.282 181.765C331.316 169.333 331.81 157.087 336.89 145.09C336.944 144.347 337.29 143.657 337.853 143.169C338.417 142.681 339.151 142.437 339.895 142.489L367.652 144.454C368.396 144.507 369.088 144.853 369.577 145.415C370.065 145.977 370.311 146.71 370.259 147.452L367.651 184.128C367.597 184.87 367.251 185.561 366.687 186.049C366.124 186.536 365.39 186.781 364.646 186.729L336.889 184.764C336.145 184.71 335.453 184.365 334.964 183.803C334.475 183.24 334.23 182.508 334.282 181.765Z" fill="#F2F2F2"/>
<path d="M337.2 170.839C334.826 164.712 336.344 156.286 338.876 147.26C338.927 146.565 339.251 145.918 339.779 145.461C340.306 145.005 340.994 144.775 341.691 144.824L365.546 146.513C366.242 146.563 366.89 146.887 367.348 147.413C367.806 147.94 368.036 148.626 367.987 149.321L365.666 181.958C365.616 182.653 365.291 183.3 364.764 183.756C364.236 184.213 363.549 184.442 362.852 184.394L348.074 183.347C344.971 183.124 342.084 181.682 340.045 179.337C338.006 176.992 336.983 173.935 337.2 170.839Z" fill="white"/>
<path d="M353.714 172.437C352.986 172.312 352.257 172.187 351.528 172.062C351.864 171.272 352.058 170.428 352.101 169.571C352.446 164.981 352.48 160.347 352.664 155.747C352.66 155.579 352.606 155.416 352.51 155.277C352.415 155.138 352.281 155.03 352.125 154.966C351.969 154.902 351.798 154.884 351.632 154.914C351.467 154.945 351.313 155.022 351.19 155.138C349.361 156.65 347.531 158.163 345.701 159.675C344.844 160.383 346.071 161.596 346.922 160.894C348.235 159.808 349.549 158.723 350.862 157.637C350.741 160.651 350.621 163.665 350.5 166.678C350.443 168.125 350.619 169.881 350.025 171.241C349.944 171.425 349.838 171.596 349.71 171.751C348.904 171.612 348.097 171.474 347.29 171.336C346.71 171.236 345.973 171.72 346.228 172.396C346.783 173.866 348.42 174.33 349.824 173.763C349.948 173.708 350.067 173.644 350.182 173.572L353.255 174.099C354.342 174.285 354.809 172.625 353.714 172.437Z" fill="#8C1CEC"/>
<path d="M495.448 305.255C492.482 292.822 492.976 280.577 498.056 268.579C498.11 267.837 498.456 267.146 499.019 266.659C499.583 266.171 500.317 265.926 501.061 265.978L528.818 267.943C529.562 267.997 530.254 268.343 530.743 268.905C531.232 269.467 531.477 270.2 531.425 270.942L528.817 307.618C528.763 308.36 528.417 309.051 527.853 309.538C527.29 310.026 526.556 310.271 525.812 310.219L498.055 308.254C497.311 308.2 496.619 307.854 496.13 307.292C495.641 306.73 495.396 305.997 495.448 305.255Z" fill="#F2F2F2"/>
<path d="M498.365 294.328C495.99 288.202 497.508 279.775 500.041 270.75C500.091 270.055 500.416 269.408 500.943 268.951C501.471 268.494 502.159 268.265 502.855 268.314L526.71 270.003C527.407 270.053 528.055 270.377 528.513 270.903C528.971 271.429 529.2 272.116 529.152 272.811L526.831 305.447C526.781 306.142 526.456 306.789 525.929 307.246C525.401 307.703 524.713 307.932 524.017 307.883L509.239 306.837C506.136 306.614 503.248 305.171 501.21 302.826C499.171 300.481 498.148 297.425 498.365 294.328Z" fill="white"/>
<path d="M513.937 288.106C514.254 287.958 514.555 287.776 514.833 287.564C515.572 286.956 516.119 286.146 516.407 285.233C516.694 284.321 516.71 283.344 516.453 282.423C515.333 278.319 510.415 278.294 507.019 278.788C505.923 278.947 506.389 280.608 507.478 280.45C509.766 280.117 513.359 279.848 514.589 282.342C514.87 282.928 514.97 283.584 514.876 284.227C514.782 284.87 514.5 285.47 514.063 285.952C513.542 286.474 512.855 286.8 512.12 286.874C511.408 286.565 510.635 286.421 509.859 286.453C509.059 286.491 508.613 287.652 509.423 288.059C510.14 288.415 510.93 288.601 511.731 288.602C512.395 288.921 512.95 289.43 513.326 290.063C513.701 290.697 513.881 291.427 513.842 292.162C513.766 292.663 513.591 293.144 513.328 293.579C513.066 294.013 512.72 294.391 512.311 294.692C511.902 294.992 511.437 295.21 510.944 295.331C510.451 295.453 509.938 295.476 509.436 295.4L509.414 295.397C508.329 295.179 507.865 296.84 508.955 297.059C510.418 297.334 511.93 297.017 513.159 296.18C514.388 295.342 515.234 294.052 515.509 292.592C515.524 292.513 515.538 292.434 515.549 292.354C515.618 291.571 515.508 290.782 515.229 290.047C514.95 289.311 514.509 288.648 513.937 288.106Z" fill="#8C1CEC"/>
<path d="M464.366 108.82C461.399 96.3876 461.894 84.1421 466.974 72.1446C467.027 71.4023 467.374 70.7116 467.937 70.224C468.5 69.7363 469.234 69.4916 469.978 69.5434L497.736 71.5088C498.479 71.5623 499.172 71.908 499.66 72.4702C500.149 73.0323 500.394 73.7649 500.342 74.5073L497.734 111.183C497.681 111.925 497.334 112.616 496.771 113.104C496.208 113.591 495.473 113.836 494.73 113.784L466.972 111.819C466.229 111.765 465.536 111.42 465.048 110.857C464.559 110.295 464.314 109.563 464.366 108.82Z" fill="#F2F2F2"/>
<path d="M467.282 97.8934C464.907 91.7668 466.425 83.3407 468.958 74.3149C469.008 73.6198 469.333 72.9729 469.86 72.5162C470.388 72.0595 471.076 71.8303 471.772 71.8788L495.627 73.5679C496.324 73.618 496.972 73.9418 497.43 74.4683C497.887 74.9947 498.117 75.6809 498.069 76.3761L495.748 109.013C495.698 109.708 495.373 110.355 494.846 110.811C494.318 111.268 493.63 111.497 492.934 111.449L478.156 110.402C475.053 110.179 472.165 108.737 470.127 106.392C468.088 104.047 467.065 100.99 467.282 97.8934Z" fill="white"/>
<path d="M481.952 81.4695C479.506 80.6227 476.787 82.5525 476.51 85.0545C476.195 87.8903 479.252 90.129 481.899 89.3583C482.963 89.0483 482.51 87.3849 481.44 87.6967C479.5 88.2617 477.43 86.1716 478.546 84.3029C478.799 83.8518 479.184 83.4885 479.65 83.2613C480.115 83.034 480.639 82.9536 481.151 83.0308C481.586 83.151 481.987 83.3713 482.321 83.674C482.655 83.9767 482.914 84.3533 483.076 84.7737C484.028 86.9141 482.897 89.087 481.397 90.6427C480.542 91.5299 479.539 92.2194 478.618 93.0281C478.17 93.3659 477.797 93.7936 477.525 94.2837C477.253 94.7738 477.087 95.3154 477.037 95.8735C477.061 96.5012 477.257 97.1103 477.603 97.635C477.949 98.1596 478.433 98.5798 479.001 98.8502C480.473 99.6057 482.148 99.3655 483.714 99.114C484.808 98.9383 484.344 97.2776 483.255 97.4524C481.885 97.6723 479.834 98.0056 478.966 96.5804C478.223 95.3599 479.754 94.2882 480.589 93.6389C482.686 92.0071 484.807 89.8999 485.121 87.1255C485.379 84.8527 484.222 82.2557 481.952 81.4695Z" fill="#8C1CEC"/>
<path d="M60.7235 249.352L74.3995 255.498C67.9702 260.701 58.1794 267.703 48.59 270.942L33.3541 260.575C27.6788 238.737 31.1553 216.234 37.9761 197.205C41.7551 186.631 46.7664 176.537 52.9069 167.131C52.278 160.728 53.2744 154.27 55.8043 148.353C58.3342 142.436 62.3161 137.249 67.3831 133.271C67.4406 133.225 67.4924 133.185 67.5442 133.139C72.5911 137.51 76.7137 142.841 79.6708 148.82C82.6278 154.8 84.36 161.308 84.7659 167.963L85.071 172.995L85.6812 182.909L87.2295 208.227L68.8681 236.716L60.7235 249.352Z" fill="#39CFE8"/>
<path d="M100.068 357.439C100.228 357.639 100.431 357.8 100.663 357.911C100.894 358.021 101.147 358.078 101.404 358.077H194.845C195.101 358.076 195.353 358.019 195.584 357.909C195.814 357.799 196.017 357.64 196.178 357.442C196.339 357.244 196.454 357.012 196.514 356.764C196.574 356.516 196.578 356.258 196.526 356.009L195.075 349.134C195.015 348.853 194.886 348.592 194.699 348.375C194.512 348.157 194.273 347.989 194.005 347.887C193.81 347.811 193.603 347.772 193.395 347.772H102.848C102.64 347.772 102.433 347.811 102.238 347.887C101.97 347.989 101.731 348.157 101.544 348.375C101.357 348.592 101.228 348.853 101.168 349.134L99.7171 356.009C99.6655 356.258 99.6702 356.516 99.731 356.763C99.7917 357.011 99.9069 357.242 100.068 357.439Z" fill="#2F2E41"/>
<path d="M64.2957 203.53V311.087C64.2967 312.458 64.8429 313.772 65.8141 314.741C66.7854 315.71 68.1024 316.255 69.476 316.256H229.203C230.576 316.255 231.893 315.71 232.864 314.741C233.836 313.772 234.382 312.458 234.383 311.087V203.53C234.38 202.161 233.833 200.848 232.862 199.881C231.891 198.913 230.575 198.368 229.203 198.367H69.476C68.1036 198.368 66.7879 198.913 65.8169 199.881C64.8459 200.848 64.2989 202.161 64.2957 203.53Z" fill="#3F3D56"/>
<path d="M129.355 295.154V354.062H170.712V295.154C170.712 294.731 170.577 294.318 170.325 293.977C170.073 293.635 169.718 293.384 169.313 293.259C169.122 293.196 168.921 293.165 168.72 293.167H131.353C130.824 293.166 130.316 293.374 129.942 293.747C129.567 294.119 129.356 294.625 129.355 295.152V295.154ZM145.495 315.395C145.506 314.234 145.976 313.124 146.802 312.307C147.629 311.489 148.746 311.031 149.91 311.031C151.073 311.031 152.19 311.489 153.017 312.307C153.843 313.124 154.313 314.234 154.324 315.395V322.23C154.318 323.395 153.851 324.509 153.023 325.331C152.196 326.152 151.077 326.613 149.91 326.613C148.743 326.613 147.623 326.152 146.796 325.331C145.969 324.509 145.501 323.395 145.495 322.23V315.395Z" fill="#2F2E41"/>
<path d="M153.491 84.5053C173.368 84.5053 189.481 68.4263 189.481 48.5918C189.481 28.7574 173.368 12.6783 153.491 12.6783C133.615 12.6783 117.501 28.7574 117.501 48.5918C117.501 68.4263 133.615 84.5053 153.491 84.5053Z" fill="#957361"/>
<path d="M196.583 42.3091C192.703 43.5112 188.962 44.2197 186.439 41.0438C183.916 37.8678 184.575 34.2363 180.822 32.7053C177.791 31.4653 174.292 31.9967 171.236 33.1482C170.69 33.3506 170.158 33.5784 169.638 33.8061C169.346 33.553 169.055 33.3127 168.738 33.0849C166.352 31.392 163.407 30.6765 160.508 31.0857C162.627 32.1069 164.37 33.7668 165.492 35.8307C164.452 36.3494 163.335 36.7371 162.334 37.3111C148.59 45.1964 133.305 48.3721 134.552 35.2107C138.711 46.143 135.478 50.0402 129.379 60.0235L129.138 60.6055C129.746 57.9864 125.467 57.8623 121.771 58.7582C119.04 59.42 120.807 65.7712 124.307 70.1461C116.483 58.3912 104.765 40.4439 114.898 31.4399C116.393 30.112 117.33 28.2383 117.599 23.4431C117.758 20.6 122.607 19.8876 125.169 21.1529C125.54 16.8779 127.037 12.7768 129.509 9.26574C131.981 5.75464 135.339 2.95845 139.244 1.16086C147.08 -2.31876 155.05 3.03394 163.564 4.07108C168.288 4.64653 171.871 6.54519 172.06 12.5614C172.185 16.5678 178.235 18.0023 182.191 18.7108C184.702 19.1537 187.529 18.888 189.533 20.4696C191.853 22.3044 191.879 25.5309 191.866 28.631C189.596 28.5663 187.357 29.1786 185.437 30.3897C187.788 30.4487 190.059 31.2457 191.93 32.6673C191.966 32.6895 191.999 32.7149 192.031 32.7432C192.716 37.9564 192.437 39.0573 196.583 42.3091Z" fill="#2F2E41"/>
<path d="M222.54 217.423C236.603 213.062 251.658 217.778 265.798 213.753C269.05 212.865 272.124 211.424 274.886 209.493C277.241 207.711 279.453 205.747 281.5 203.619C285.754 199.421 290.373 195.013 296.764 195.062C305.179 195.126 311.641 201.364 317.25 206.872C318.043 207.65 319.265 206.433 318.471 205.653C313.317 200.592 307.748 195.252 300.411 193.742C297.12 193.013 293.685 193.298 290.559 194.558C287.848 195.788 285.37 197.478 283.238 199.554C280.979 201.621 278.895 203.872 276.605 205.907C274.215 208.077 271.461 209.812 268.469 211.032C261.986 213.608 254.876 213.918 247.981 213.843C239.327 213.749 230.466 213.161 222.081 215.761C221.023 216.089 221.475 217.753 222.54 217.423H222.54Z" fill="#3F3D56"/>
<path d="M320.334 195.259L324.657 202.864L326.749 206.543C327.12 207.197 327.502 207.846 327.864 208.506C328.087 208.911 328.572 209.641 328.108 210.025C327.701 210.224 327.243 210.295 326.794 210.23C326.032 210.231 325.27 210.214 324.508 210.207L320.221 210.163L311.36 210.074C311.137 210.081 310.924 210.176 310.769 210.336C310.613 210.497 310.526 210.712 310.526 210.935C310.526 211.159 310.613 211.373 310.769 211.534C310.924 211.695 311.137 211.789 311.36 211.797C316.504 211.849 321.651 211.957 326.794 211.953C327.692 212.038 328.59 211.793 329.319 211.264C329.675 210.909 329.912 210.452 329.994 209.956C330.076 209.461 330 208.952 329.776 208.502C329.269 207.397 328.686 206.329 328.03 205.306L326.148 201.994L321.825 194.39C321.705 194.201 321.517 194.065 321.299 194.012C321.081 193.959 320.852 193.993 320.658 194.106C320.465 194.218 320.323 194.402 320.262 194.617C320.202 194.832 320.228 195.062 320.334 195.259V195.259Z" fill="#3F3D56"/>
<path d="M377.472 213.892H337.738C337.521 213.893 337.305 213.851 337.104 213.769C336.902 213.687 336.719 213.566 336.565 213.413C336.41 213.26 336.288 213.078 336.204 212.878C336.12 212.677 336.076 212.462 336.076 212.245C336.075 212.028 336.117 211.813 336.2 211.612C336.283 211.411 336.404 211.229 336.558 211.075C336.711 210.921 336.894 210.799 337.094 210.715C337.295 210.632 337.511 210.589 337.728 210.588C337.731 210.588 337.735 210.588 337.738 210.588H377.472C377.689 210.587 377.905 210.629 378.106 210.712C378.308 210.794 378.491 210.915 378.645 211.068C378.799 211.221 378.922 211.403 379.006 211.603C379.09 211.803 379.133 212.018 379.134 212.235C379.135 212.452 379.093 212.668 379.01 212.868C378.927 213.069 378.806 213.252 378.652 213.406C378.499 213.56 378.316 213.682 378.115 213.765C377.915 213.849 377.699 213.892 377.482 213.892C377.478 213.892 377.475 213.892 377.472 213.892Z" fill="#8C1CEC"/>
<path d="M377.472 240.502H337.739C337.522 240.503 337.306 240.461 337.105 240.378C336.904 240.296 336.721 240.175 336.567 240.022C336.413 239.869 336.29 239.687 336.206 239.487C336.123 239.287 336.079 239.072 336.078 238.855C336.078 238.638 336.12 238.423 336.202 238.222C336.285 238.022 336.406 237.839 336.56 237.685C336.713 237.532 336.895 237.409 337.096 237.326C337.296 237.242 337.512 237.199 337.729 237.198C337.732 237.198 337.736 237.198 337.739 237.198H377.472C377.69 237.197 377.905 237.239 378.106 237.322C378.307 237.404 378.49 237.525 378.644 237.678C378.799 237.831 378.921 238.013 379.005 238.213C379.089 238.413 379.132 238.628 379.133 238.845C379.133 239.062 379.091 239.277 379.009 239.478C378.926 239.678 378.805 239.861 378.651 240.015C378.498 240.169 378.316 240.291 378.115 240.374C377.915 240.458 377.7 240.501 377.482 240.502C377.479 240.502 377.476 240.502 377.472 240.502Z" fill="#8C1CEC"/>
<path d="M416.477 227.197H337.738C337.521 227.198 337.305 227.156 337.104 227.074C336.902 226.992 336.719 226.871 336.565 226.718C336.41 226.565 336.288 226.383 336.204 226.183C336.12 225.982 336.076 225.767 336.076 225.55C336.075 225.333 336.117 225.118 336.2 224.917C336.283 224.716 336.404 224.534 336.558 224.38C336.711 224.226 336.894 224.104 337.094 224.02C337.295 223.937 337.511 223.894 337.728 223.893C337.731 223.893 337.735 223.893 337.738 223.893H416.477C416.695 223.892 416.91 223.934 417.111 224.017C417.313 224.099 417.496 224.22 417.65 224.373C417.805 224.526 417.927 224.708 418.011 224.908C418.095 225.108 418.139 225.323 418.139 225.54C418.14 225.757 418.098 225.972 418.015 226.173C417.932 226.374 417.811 226.557 417.657 226.711C417.504 226.864 417.322 226.987 417.121 227.07C416.92 227.154 416.705 227.197 416.487 227.197C416.484 227.197 416.48 227.197 416.477 227.197Z" fill="#8C1CEC"/>
<path d="M363.759 198.29C372.501 186.464 387.43 181.365 396.433 169.764C398.527 167.126 400.148 164.148 401.227 160.961C402.067 158.133 402.683 155.243 403.069 152.318C404.005 146.422 405.109 140.14 410.287 136.402C417.105 131.479 426.014 132.685 433.803 133.808C434.026 133.834 434.25 133.773 434.428 133.637C434.606 133.502 434.725 133.303 434.758 133.082C434.792 132.861 434.739 132.635 434.609 132.453C434.479 132.27 434.284 132.145 434.064 132.104C426.906 131.073 419.25 130.063 412.442 133.182C409.358 134.54 406.76 136.8 404.989 139.663C403.534 142.257 402.542 145.083 402.056 148.015C401.463 151.016 401.121 154.062 400.483 157.055C399.846 160.217 398.656 163.242 396.97 165.993C393.276 171.9 387.732 176.353 382.133 180.368C375.104 185.408 367.615 190.172 362.403 197.223C361.746 198.112 363.097 199.186 363.759 198.29L363.759 198.29Z" fill="#3F3D56"/>
<path d="M429.395 122.628L437.392 126.2L441.262 127.928C441.949 128.235 442.642 128.533 443.325 128.85C443.745 129.045 444.57 129.346 444.424 129.93C444.325 130.327 443.791 130.647 443.487 130.871C442.874 131.323 442.249 131.76 441.631 132.204L438.151 134.703L430.959 139.868C430.783 140.007 430.669 140.208 430.639 140.429C430.609 140.651 430.666 140.875 430.799 141.055C430.931 141.235 431.129 141.357 431.35 141.394C431.57 141.432 431.797 141.382 431.982 141.256C436.157 138.258 440.368 135.303 444.51 132.259C445.284 131.798 445.861 131.07 446.134 130.212C446.211 129.716 446.13 129.208 445.902 128.76C445.674 128.312 445.311 127.947 444.863 127.716C443.799 127.126 442.695 126.611 441.56 126.173L438.077 124.618L430.08 121.046C429.871 120.965 429.639 120.967 429.432 121.053C429.225 121.139 429.06 121.302 428.971 121.507C428.882 121.712 428.877 121.944 428.956 122.153C429.035 122.362 429.192 122.533 429.395 122.628L429.395 122.628Z" fill="#3F3D56"/>
<path d="M501.224 131.758H461.491C461.273 131.758 461.057 131.717 460.856 131.634C460.655 131.552 460.472 131.431 460.317 131.278C460.163 131.125 460.04 130.943 459.956 130.743C459.872 130.542 459.829 130.328 459.828 130.11C459.827 129.893 459.87 129.678 459.952 129.477C460.035 129.277 460.157 129.094 460.31 128.94C460.464 128.786 460.646 128.664 460.847 128.581C461.048 128.497 461.263 128.454 461.481 128.453C461.484 128.453 461.487 128.453 461.491 128.453H501.224C501.442 128.453 501.657 128.494 501.859 128.577C502.06 128.659 502.243 128.78 502.397 128.933C502.552 129.086 502.674 129.268 502.758 129.468C502.842 129.669 502.886 129.883 502.886 130.1C502.887 130.318 502.845 130.533 502.762 130.734C502.679 130.934 502.558 131.117 502.404 131.271C502.251 131.425 502.069 131.547 501.868 131.63C501.667 131.714 501.452 131.757 501.234 131.758C501.231 131.758 501.227 131.758 501.224 131.758Z" fill="#8C1CEC"/>
<path d="M394.266 250.45C403.007 262.276 417.936 267.375 426.939 278.976C429.033 281.613 430.654 284.592 431.733 287.779C432.573 290.607 433.189 293.497 433.576 296.422C434.511 302.318 435.616 308.6 440.793 312.338C447.612 317.261 456.52 316.055 464.309 314.932C464.532 314.906 464.756 314.967 464.934 315.102C465.112 315.238 465.231 315.437 465.265 315.658C465.299 315.879 465.245 316.105 465.115 316.287C464.986 316.47 464.79 316.595 464.57 316.636C457.413 317.667 449.756 318.677 442.948 315.558C439.864 314.199 437.266 311.94 435.496 309.077C434.041 306.483 433.048 303.657 432.562 300.725C431.969 297.723 431.627 294.678 430.99 291.685C430.352 288.523 429.162 285.498 427.476 282.747C423.782 276.84 418.238 272.387 412.639 268.372C405.61 263.332 398.121 258.568 392.909 251.517C392.252 250.628 393.603 249.554 394.266 250.45L394.266 250.45Z" fill="#3F3D56"/>
<path d="M459.901 326.112L467.898 322.54L471.768 320.812C472.455 320.505 473.148 320.208 473.831 319.89C474.251 319.695 475.076 319.394 474.93 318.811C474.831 318.413 474.297 318.093 473.993 317.869C473.38 317.417 472.755 316.98 472.137 316.536L468.657 314.037L461.465 308.872C461.29 308.733 461.175 308.532 461.145 308.311C461.115 308.089 461.172 307.865 461.305 307.685C461.437 307.505 461.635 307.383 461.856 307.346C462.076 307.308 462.303 307.358 462.488 307.484C466.663 310.482 470.874 313.437 475.016 316.481C475.789 316.942 476.367 317.67 476.64 318.528C476.717 319.024 476.636 319.532 476.408 319.98C476.18 320.428 475.817 320.793 475.369 321.024C474.305 321.614 473.201 322.129 472.066 322.567L468.583 324.122L460.586 327.694C460.378 327.775 460.145 327.773 459.939 327.687C459.732 327.601 459.566 327.438 459.478 327.233C459.389 327.028 459.383 326.796 459.462 326.587C459.541 326.378 459.699 326.207 459.901 326.112H459.901Z" fill="#3F3D56"/>
<path d="M531.73 321.874H491.997C491.558 321.876 491.136 321.703 490.825 321.395C490.513 321.087 490.337 320.668 490.335 320.23C490.334 319.792 490.506 319.371 490.815 319.06C491.123 318.749 491.543 318.573 491.982 318.57C491.987 318.57 491.992 318.57 491.997 318.57H531.73C532.169 318.569 532.59 318.741 532.902 319.05C533.213 319.358 533.389 319.777 533.391 320.215C533.393 320.653 533.221 321.074 532.912 321.385C532.603 321.696 532.184 321.872 531.745 321.874C531.74 321.874 531.735 321.874 531.73 321.874Z" fill="#8C1CEC"/>
<path d="M78.7801 257.657C78.0278 259.145 76.9607 260.451 75.6526 261.487C74.3445 262.522 72.8266 263.262 71.2039 263.654C69.5812 264.047 67.8925 264.083 66.2545 263.76C64.6164 263.437 63.0682 262.763 61.7169 261.784L20.3346 281.436L17.5613 269.862L59.7049 245.079C61.5249 242.932 64.0709 241.525 66.8607 241.126C69.6504 240.727 72.4899 241.363 74.8412 242.913C77.1925 244.464 78.8921 246.821 79.6181 249.538C80.344 252.256 80.0459 255.145 78.7801 257.657Z" fill="#957361"/>
<path d="M62.8337 197.967L33.7145 257.34L46.0207 251.774L54.5854 247.897L58.8794 264.175C58.8794 264.175 56.0359 266.932 51.5521 270.556C45.1227 275.76 35.3319 282.762 25.7426 286.001C18.2368 288.54 10.8635 288.775 5.32632 284.043C-5.18399 275.059 5.09033 239.385 15.0193 212.223C21.6674 194.033 28.1543 179.668 28.1543 179.668C28.1543 160.484 65.4633 132.899 72.3877 129.125C76.342 126.977 77.4354 130.105 77.4354 130.105L55.7366 161.805L62.2235 188.054L64.0597 195.469L62.8337 197.967Z" fill="#32CBE4"/>
</svg>
