<?xml version="1.0" encoding="UTF-8"?><svg id="Laag_1" xmlns="http://www.w3.org/2000/svg" viewBox="0 0 841.89 595.28"><defs><style>.cls-1{fill:#f9f9a2;}.cls-2{fill:#e6e6e6;}.cls-3{fill:#f4f4f4;}.cls-4{fill:#fff;}.cls-5{fill:#8c1cec;}.cls-6{fill:#d8adad;}.cls-7{fill:#ccc;}.cls-8{fill:#3f3d56;}.cls-9{fill:#5c0f9e;}.cls-10{fill:#32cbe4;}.cls-11{fill:#2f2e41;}</style></defs><path class="cls-1" d="m656.14,273.47l2.23-17.9c1.65-13.25,13.73-22.65,26.98-21,13.25,1.65,22.65,13.73,21,26.98l-2.23,17.9c-.22,1.78-1.85,3.04-3.62,2.82l-41.53-5.18c-1.78-.22-3.04-1.85-2.82-3.62Z"/><circle class="cls-6" cx="676.04" cy="261.09" r="17.72"/><path class="cls-1" d="m652.52,256.29c1.32-10.47,10.87-17.9,21.34-16.61l3.58.45c10.47,1.32,17.9,10.87,16.61,21.34l-.04.36-7.57-.94-1.68-7.55-1.42,7.16-3.91-.49-.85-3.81-.72,3.61-25.4-3.17.04-.36Z"/><path class="cls-6" d="m589.35,324.32c2.05,4.02,6.96,5.62,10.98,3.57.43-.22.84-.47,1.22-.76l16.1,9.43,8.12-8.39-22.92-13c-2.97-3.43-8.15-3.8-11.58-.83-2.87,2.48-3.66,6.61-1.92,9.98h0Z"/><path class="cls-8" d="m642.11,341.26c-11.87,0-32.77-5.32-33.93-5.61l-.37-.09,3.29-16.65,31.92,6.3,17.34-24.42,19.91-2.02-.56.73c-.26.34-25.92,34.12-29.91,39.79-1.01,1.43-3.89,1.98-7.69,1.98Z"/><path class="cls-8" d="m645.3,403.76l-.48-.23c-.1-.05-10.19-4.96-15.42-14.54-5.2-9.54,19.15-49.98,20.85-52.79l.02-12.85,8.76-23.65,11.17-6.31-9.59,22.38-15.32,87.98Z"/><polygon class="cls-6" points="634.11 541.82 623.43 541.82 618.35 500.64 634.11 500.64 634.11 541.82"/><path class="cls-11" d="m636.83,552.17h-34.42v-.44c0-7.4,6-13.4,13.4-13.4h21.02s0,13.83,0,13.83Z"/><polygon class="cls-6" points="748.77 532.46 738.62 535.79 720.98 498.24 735.95 493.33 748.77 532.46"/><path class="cls-11" d="m754.58,541.45l-32.71,10.72-.14-.41c-2.3-7.03,1.53-14.6,8.56-16.9h0s19.98-6.55,19.98-6.55l4.31,13.15Z"/><path class="cls-11" d="m728.1,525.73l-30.43-50.8-25.69-54.28-23.12,47.95-9.18,62.1-32.21.45.13-.5,49.28-195.83,38.6,5.77-1.76,25.48,1.05,1.49c8.72,12.39,17.73,25.19,12.56,39l14.66,43.52,32.45,72.47-26.34,3.19Z"/><path class="cls-10" d="m658.65,377.25c-5.59,0-11.97-6.39-8.66-17.29l-.21-.16,7.95-35.13c-6.94-9.92,2.21-18.11,3.07-18.85l4.37-7.86,19.27-12.22,9.75,81.01-.14.14c-7.04,6.74-30.69,10.36-35.38,10.36Z"/><path class="cls-8" d="m698.11,395.53c-.77.01-1.53-.07-2.28-.24-.75-.19-1.96-1.14-3.84-7.25-7.45-24.27-16.25-97.28-9.86-104.43l.15-.16,10.5,1.75c.87-.64,5.45-3.84,9.68-3.28,1.76.22,3.35,1.16,4.39,2.59l.07.09,3.34,47.57,12.25,55.98-.29.13c-.71.32-16.01,7.23-24.11,7.23Z"/><path class="cls-6" d="m691.05,376.93c4.51-.15,8.04-3.93,7.89-8.43-.02-.48-.07-.96-.17-1.43l15.37-10.58-4.15-10.91-21.49,15.25c-4.36,1.24-6.9,5.77-5.66,10.14,1.03,3.65,4.43,6.12,8.22,5.96h0Z"/><path class="cls-8" d="m709.06,364.97l-13.69-10.04,19.24-26.24-14.76-26.05,6.61-18.89.43.81c.2.38,19.92,37.94,23.36,43.96,3.58,6.26-19.93,34.93-20.94,36.15l-.24.29Z"/><path class="cls-2" d="m401.18,483.05l-11.65-4.9-7.99-58.4h-106.42l-8.66,58.16-10.42,5.21c-1.22.61-1.72,2.1-1.11,3.32.42.84,1.28,1.37,2.21,1.37h143.07c1.37,0,2.47-1.11,2.47-2.47,0-1-.6-1.89-1.51-2.28Z"/><path class="cls-7" d="m590.29,427.52H67.55c-5.71-.01-10.33-4.65-10.33-10.36v-73.71h543.41v73.71c0,5.71-4.62,10.34-10.33,10.36Z"/><path class="cls-8" d="m601.17,378.29H56.73V62.88c0-6.89,5.59-12.48,12.48-12.48h519.47c6.89,0,12.48,5.59,12.49,12.48v315.41Z"/><path class="cls-4" d="m568.65,355.39H89.25c-5.31,0-9.62-4.31-9.63-9.62V82.91c0-5.31,4.31-9.62,9.63-9.63h479.4c5.31,0,9.62,4.31,9.63,9.63v262.86c0,5.31-4.31,9.62-9.63,9.62Z"/><path class="cls-7" d="m463.4,488.42H194.02c-.57.01-1.07-.36-1.23-.9-.17-.65.22-1.32.87-1.49.1-.03.21-.04.31-.04h269.33c.6-.02,1.13.37,1.29.95.15.66-.27,1.31-.93,1.46-.09.02-.17.03-.26.03Z"/><rect class="cls-3" x="447.79" y="115.78" width="115.75" height="88.43"/><rect class="cls-4" x="453.54" y="120.18" width="104.25" height="79.64"/><path class="cls-5" d="m507.49,179.25s.03,0,.04,0c15.33-.8,27.11-13.88,26.3-29.21-.73-13.97-11.73-25.22-25.68-26.26-.18-.01-.35.05-.48.17-.13.12-.2.28-.2.46l-.61,54.21c0,.35.28.64.63.64h0Z"/><path class="cls-2" d="m485.69,132.74c.22,0,.42.09.57.25l18.66,19.08c.15.15.24.36.23.58l-.29,25.94c0,.23-.1.44-.26.59-.17.15-.39.23-.62.21-15.41-1.15-26.96-14.58-25.81-29.99.45-6.07,2.87-11.82,6.89-16.39.15-.17.36-.27.59-.28.01,0,.02,0,.03,0Z"/><path class="cls-9" d="m504.67,123.56c.21,0,.41.08.56.23.16.16.25.37.25.6l-.26,23.4c0,.45-.37.81-.82.81-.22,0-.42-.09-.57-.25l-16.28-16.65c-.32-.32-.31-.84.01-1.15,0,0,.02-.02.03-.03,4.74-4.17,10.74-6.62,17.04-6.95.02,0,.03,0,.05,0Z"/><path class="cls-9" d="m496.28,190.49c-.03,2.76-2.29,4.97-5.05,4.94s-4.97-2.29-4.94-5.05c.03-2.76,2.29-4.97,5.05-4.94h0c2.76.03,4.96,2.29,4.94,5.05Z"/><path class="cls-5" d="m510.54,190.65c-.03,2.76-2.29,4.97-5.05,4.94s-4.97-2.29-4.94-5.05c.03-2.76,2.29-4.97,5.05-4.94h0c2.76.03,4.96,2.29,4.94,5.05Z"/><path class="cls-2" d="m524.8,190.81c-.03,2.76-2.29,4.97-5.05,4.94-2.76-.03-4.97-2.29-4.94-5.05.03-2.76,2.29-4.97,5.05-4.94h0c2.76.03,4.96,2.29,4.94,5.05Z"/><rect class="cls-3" x="446.57" y="218.13" width="115.75" height="88.43"/><rect class="cls-4" x="452.32" y="222.52" width="104.25" height="79.64"/><circle class="cls-8" cx="470.01" cy="244.37" r="4.33"/><path class="cls-8" d="m539.55,241c1.62,0,2.94,1.31,2.94,2.93s-1.31,2.94-2.93,2.94h-45.53c-1.62,0-2.94-1.31-2.94-2.94s1.31-2.94,2.94-2.94h45.52m0-.72h-45.52c-2.02,0-3.66,1.63-3.66,3.65s1.63,3.66,3.65,3.66h45.53c2.02,0,3.66-1.63,3.66-3.65s-1.63-3.66-3.65-3.66h0Z"/><path class="cls-10" d="m521.59,247.59h-34.27c-2.02,0-3.66-1.63-3.66-3.65,0-2.02,1.63-3.66,3.65-3.66h34.28c2.02,0,3.65,1.64,3.65,3.66,0,2.01-1.63,3.64-3.65,3.65Z"/><circle class="cls-8" cx="470.01" cy="262.35" r="4.33"/><path class="cls-8" d="m539.55,258.98c1.62,0,2.94,1.31,2.94,2.93s-1.31,2.94-2.93,2.94h-45.53c-1.62,0-2.94-1.31-2.94-2.94s1.31-2.94,2.94-2.94h45.52m0-.72h-45.52c-2.02,0-3.65,1.64-3.65,3.65s1.64,3.65,3.65,3.65h45.52c2.02,0,3.65-1.64,3.65-3.65s-1.64-3.65-3.65-3.65Z"/><path class="cls-10" d="m534.53,265.57h-47.21c-2.02,0-3.66-1.63-3.66-3.65,0-2.02,1.63-3.66,3.65-3.66h47.22c2.02,0,3.65,1.64,3.65,3.66,0,2.01-1.63,3.64-3.65,3.65Z"/><circle class="cls-8" cx="470.01" cy="280.32" r="4.33"/><path class="cls-8" d="m539.55,276.95c1.62,0,2.94,1.31,2.94,2.93s-1.31,2.94-2.93,2.94h-45.53c-1.62,0-2.94-1.31-2.94-2.94s1.31-2.94,2.94-2.94h45.52m0-.72h-45.52c-2.02,0-3.65,1.64-3.65,3.65s1.64,3.65,3.65,3.65h45.52c2.02,0,3.65-1.64,3.65-3.65s-1.64-3.65-3.65-3.65Z"/><path class="cls-10" d="m506.49,283.54h-19.17c-2.02,0-3.66-1.63-3.66-3.65,0-2.02,1.63-3.66,3.65-3.66h19.18c2.02,0,3.65,1.64,3.65,3.66,0,2.01-1.63,3.64-3.65,3.65Z"/><rect class="cls-3" x="97.6" y="131.43" width="323.38" height="165.73"/><rect class="cls-4" x="108.38" y="139.66" width="301.82" height="149.26"/><path class="cls-8" d="m372.77,266.16h-220.02c-.38,0-.69-.31-.69-.69v-105.46c0-.38.31-.69.69-.69s.69.31.69.69h0v104.77h219.34c.38,0,.69.31.69.69s-.31.69-.69.69Z"/><path class="cls-5" d="m199.75,258.58h-20.01c-1.13,0-2.04-.92-2.04-2.04v-27.59c0-1.13.92-2.04,2.04-2.04h20.01c1.13,0,2.04.92,2.04,2.04v27.59c0,1.13-.92,2.04-2.04,2.04Z"/><path class="cls-5" d="m236.25,258.58h-20.01c-1.13,0-2.04-.92-2.04-2.04v-53.75c0-1.13.92-2.04,2.04-2.04h20.01c1.13,0,2.04.92,2.04,2.04v53.75c0,1.13-.92,2.04-2.04,2.04Z"/><path class="cls-5" d="m272.74,258.58h-20.01c-1.13,0-2.04-.92-2.04-2.04v-27.59c0-1.13.92-2.04,2.04-2.04h20.01c1.13,0,2.04.92,2.04,2.04v27.59c0,1.13-.92,2.04-2.04,2.04Z"/><path class="cls-5" d="m309.24,258.58h-20.01c-1.1.02-2.02-.85-2.04-1.95v-64.27c.03-1.1.94-1.97,2.04-1.95h20.01c1.1-.02,2.02.85,2.04,1.95v64.27c-.03,1.1-.94,1.98-2.04,1.95Z"/><path class="cls-5" d="m345.73,258.58h-20.01c-1.13,0-2.04-.92-2.04-2.04v-82.67c0-1.13.92-2.04,2.04-2.04h20.01c1.13,0,2.04.92,2.04,2.04v82.67c0,1.13-.92,2.04-2.04,2.04Z"/><circle class="cls-8" cx="189.75" cy="214.51" r="4.13"/><circle class="cls-8" cx="226.24" cy="187.66" r="4.13"/><circle class="cls-8" cx="262.74" cy="214.51" r="4.13"/><circle class="cls-8" cx="299.23" cy="174.58" r="4.13"/><circle class="cls-8" cx="335.73" cy="159.43" r="4.13"/><polygon class="cls-8" points="262.82 215.44 226.24 188.04 190.16 215.06 189.34 213.96 226.24 186.32 262.65 213.59 298.83 174 298.97 173.94 335.47 159.23 335.98 160.51 299.63 175.16 262.82 215.44"/><path class="cls-7" d="m808.36,554.47h-304.15c-.44,0-.8-.36-.8-.8s.36-.8.8-.8h304.15c.44,0,.8.36.8.8s-.36.8-.8.8Z"/></svg>