<svg width="504" height="414" viewBox="0 0 504 414" fill="none" xmlns="http://www.w3.org/2000/svg">
<path d="M409.909 41.641C413.127 28.5109 410.067 13.1981 399.67 4.56152C399.466 19.2616 394.072 33.416 384.44 44.5203C380.71 48.7894 376.117 53.149 375.936 58.8159C375.823 62.342 377.544 65.7288 379.915 68.3403C382.286 70.9518 385.278 72.9061 388.234 74.8307L388.668 75.5969C398.183 65.9962 406.69 54.7711 409.909 41.641Z" fill="#5C0F9E"/>
<path d="M399.46 4.75357C403.447 15.2084 404.04 26.6543 401.155 37.4654C400.575 39.8038 399.63 42.0362 398.355 44.0803C397.049 46.0314 395.244 47.597 393.128 48.6144C391.175 49.6027 389.062 50.3874 387.383 51.8335C386.534 52.5865 385.854 53.5105 385.387 54.5448C384.921 55.5791 384.678 56.7005 384.675 57.8352C384.594 60.6625 385.533 63.3504 386.543 65.9469C387.664 68.8299 388.874 71.8067 388.615 74.9632C388.584 75.3456 389.179 75.372 389.21 74.9902C389.661 69.4984 385.933 64.8597 385.341 59.533C385.065 57.0475 385.537 54.4637 387.374 52.6516C388.98 51.0669 391.158 50.2559 393.145 49.2723C395.223 48.3101 397.034 46.8533 398.42 45.0294C399.795 43.0568 400.824 40.8646 401.464 38.5466C402.987 33.3509 403.684 27.9481 403.529 22.5359C403.387 16.3581 402.189 10.2502 399.987 4.47642C399.851 4.11911 399.324 4.39859 399.46 4.75356V4.75357Z" fill="white"/>
<path d="M402.289 34.0388C404.168 34.2769 406.07 33.8391 407.656 32.8036C409.242 31.7681 410.409 30.2023 410.947 28.3859C411.055 28.018 410.489 27.8332 410.381 28.2016C409.882 29.894 408.796 31.3524 407.317 32.3137C405.838 33.2749 404.064 33.6757 402.316 33.4436C401.936 33.3936 401.911 33.9891 402.289 34.0388Z" fill="white"/>
<path d="M394.185 48.2433C391.786 45.2036 390.62 41.3709 390.92 37.5096C390.95 37.127 390.355 37.1005 390.325 37.4826C390.02 41.5014 391.242 45.4874 393.745 48.6451C393.984 48.9459 394.423 48.5425 394.185 48.2433Z" fill="white"/>
<path d="M402.669 16.6887C401.923 16.7481 401.174 16.6212 400.489 16.3193C399.804 16.0175 399.204 15.5502 398.745 14.9593C398.51 14.6556 398.071 15.0595 398.305 15.3612C398.816 16.0116 399.478 16.5269 400.235 16.8621C400.991 17.1972 401.818 17.3421 402.643 17.2839C402.721 17.2849 402.796 17.2561 402.854 17.2034C402.912 17.1506 402.948 17.0778 402.954 16.9998C402.957 16.9209 402.929 16.844 402.875 16.7858C402.822 16.7275 402.748 16.6926 402.669 16.6887Z" fill="white"/>
<path d="M354.707 13.0615C354.848 13.2553 354.99 13.4491 355.129 13.6477C357.016 16.2631 358.686 19.0275 360.125 21.9135C360.24 22.1349 360.352 22.3609 360.461 22.5851C363.853 29.5751 365.918 37.1344 366.551 44.8785C366.8 47.9603 366.814 51.0566 366.594 54.1405C366.289 58.3996 365.62 62.9933 366.708 66.9868C366.816 67.4047 366.951 67.8155 367.11 68.2168L387.699 76.0671C387.755 76.0615 387.809 76.0606 387.865 76.055L388.673 76.4061C388.696 76.2478 388.715 76.0832 388.738 75.9249C388.751 75.8332 388.76 75.7397 388.774 75.6479C388.781 75.5862 388.788 75.5244 388.799 75.4691C388.801 75.4486 388.804 75.4279 388.804 75.4121C388.815 75.3568 388.818 75.3044 388.827 75.2538C388.941 74.3339 389.048 73.4116 389.15 72.4869C389.151 72.4822 389.151 72.4822 389.149 72.4758C389.988 65.4371 389.99 58.3238 389.154 51.2847C389.126 51.075 389.1 50.8607 389.063 50.6474C388.63 47.5076 387.941 44.4085 387.004 41.3809C386.485 39.7247 385.883 38.0959 385.2 36.5007C383.426 32.3822 381.016 28.5685 378.058 25.1992C372.159 18.4835 364.179 13.7295 355.38 13.1028C355.155 13.0869 354.934 13.0727 354.707 13.0615Z" fill="#5C0F9E"/>
<path d="M354.653 13.3407C364.129 19.2867 371.492 28.0685 375.695 38.4386C376.639 40.6549 377.228 43.0064 377.441 45.4063C377.572 47.7508 377.074 50.0877 375.997 52.1743C375.032 54.14 373.817 56.0389 373.347 58.205C373.122 59.3173 373.135 60.4646 373.385 61.5714C373.635 62.6783 374.116 63.7199 374.797 64.6278C376.434 66.9341 378.802 68.5145 381.171 69.9795C383.801 71.6061 386.559 73.2539 388.252 75.9303C388.457 76.2546 388.948 75.9172 388.743 75.5935C385.798 70.9371 380.029 69.4788 376.351 65.582C374.635 63.7636 373.456 61.4169 373.832 58.8635C374.161 56.6307 375.412 54.6715 376.406 52.6897C377.486 50.6696 378.056 48.4156 378.064 46.1246C377.975 43.7217 377.477 41.3514 376.593 39.1155C374.681 34.0498 371.986 29.3163 368.605 25.0882C364.773 20.2414 360.14 16.0859 354.907 12.8017C354.583 12.5986 354.331 13.1389 354.653 13.3407V13.3407Z" fill="white"/>
<path d="M374.538 35.0198C376.182 34.0783 377.437 32.5829 378.081 30.8009C378.724 29.0188 378.713 27.0661 378.049 25.2914C377.914 24.9328 377.351 25.1265 377.486 25.4856C378.107 27.137 378.117 28.956 377.515 30.6142C376.912 32.2724 375.737 33.6607 374.202 34.5284C373.868 34.7173 374.207 35.2077 374.538 35.0198Z" fill="white"/>
<path d="M376.618 51.243C372.873 50.2609 369.635 47.9029 367.551 44.6391C367.344 44.3155 366.853 44.6527 367.059 44.9759C369.235 48.3683 372.609 50.8153 376.509 51.8287C376.88 51.925 376.988 51.3388 376.618 51.243Z" fill="white"/>
<path d="M364.399 20.9373C363.839 21.4342 363.164 21.7841 362.435 21.9557C361.707 22.1273 360.947 22.1152 360.224 21.9204C359.854 21.8194 359.747 22.4058 360.115 22.5061C360.914 22.7176 361.754 22.73 362.559 22.5422C363.365 22.3544 364.112 21.9721 364.736 21.4288C364.799 21.3825 364.842 21.314 364.856 21.237C364.87 21.1601 364.855 21.0806 364.813 21.0147C364.768 20.9498 364.699 20.9053 364.622 20.8908C364.544 20.8764 364.464 20.8931 364.399 20.9373V20.9373Z" fill="white"/>
<path d="M327.484 309.653C258.457 309.653 202.3 253.478 202.3 184.43C202.3 115.382 258.457 59.207 327.484 59.207C334.781 59.2061 342.065 59.8375 349.254 61.0941C349.344 61.1095 349.429 61.1425 349.506 61.1912C349.583 61.2399 349.65 61.3032 349.702 61.3776C349.754 61.452 349.791 61.5361 349.811 61.6249C349.831 61.7137 349.833 61.8055 349.817 61.8952C349.802 61.9848 349.769 62.0704 349.72 62.1472C349.671 62.224 349.607 62.2903 349.533 62.3425C349.458 62.3947 349.374 62.4316 349.285 62.4512C349.197 62.4708 349.105 62.4727 349.015 62.4568C341.905 61.2143 334.701 60.5899 327.484 60.5907C259.22 60.5907 203.683 116.145 203.683 184.43C203.683 252.715 259.22 308.269 327.484 308.269C395.748 308.269 451.284 252.715 451.284 184.43C451.315 153.566 439.794 123.808 418.989 101.016C418.867 100.88 418.803 100.701 418.812 100.519C418.821 100.336 418.902 100.164 419.037 100.041C419.172 99.9179 419.35 99.8532 419.533 99.8611C419.715 99.869 419.887 99.9489 420.011 100.083C441.048 123.131 452.698 153.221 452.668 184.43C452.668 253.478 396.51 309.653 327.484 309.653Z" fill="#5C0F9E"/>
<path d="M382.68 102.154C396.359 102.154 407.448 91.0621 407.448 77.379C407.448 63.6959 396.359 52.6035 382.68 52.6035C369.001 52.6035 357.912 63.6959 357.912 77.379C357.912 91.0621 369.001 102.154 382.68 102.154Z" fill="#8C1CEC"/>
<path d="M379.301 90.2725C378.873 90.2725 378.451 90.1729 378.069 89.9815C377.686 89.7901 377.354 89.5122 377.097 89.1699L370.34 80.1576C370.123 79.8681 369.965 79.5386 369.875 79.188C369.785 78.8374 369.766 78.4726 369.817 78.1143C369.868 77.756 369.989 77.4114 370.174 77.1C370.358 76.7886 370.602 76.5165 370.891 76.2994C371.181 76.0823 371.51 75.9243 371.86 75.8345C372.211 75.7447 372.576 75.7248 372.934 75.776C373.292 75.8272 373.637 75.9484 373.948 76.1328C374.259 76.3172 374.531 76.5612 374.748 76.8507L379.169 82.7463L390.523 65.7103C390.929 65.1047 391.559 64.6849 392.274 64.5429C392.99 64.401 393.732 64.5485 394.339 64.9531C394.945 65.3577 395.367 65.9865 395.511 66.7015C395.655 67.4166 395.51 68.1596 395.108 68.7678L381.593 89.0452C381.349 89.4119 381.02 89.7147 380.635 89.9281C380.249 90.1415 379.818 90.2593 379.378 90.2716C379.352 90.2721 379.326 90.2725 379.301 90.2725Z" fill="white"/>
<path d="M324.263 164.997L286.069 58.709L287.038 58.3608L280.013 38.8116L279.045 39.1602L267.317 6.52654C266.88 5.3077 266.206 4.18709 265.335 3.22869C264.464 2.27029 263.413 1.49286 262.242 0.940803C261.07 0.388743 259.802 0.0728557 258.509 0.0111866C257.215 -0.0504826 255.923 0.143271 254.704 0.581382L185.658 25.4082C184.439 25.8463 183.319 26.5201 182.361 27.3913C181.403 28.2625 180.625 29.3139 180.073 30.4855C179.522 31.6571 179.206 32.926 179.144 34.2197C179.082 35.5134 179.276 36.8066 179.714 38.0255L187.89 60.7796L186.36 61.3692L191.58 74.9272L192.805 74.4552L193.889 77.471L192.585 77.9733L197.804 91.5314L198.803 91.1467L236.659 196.496C237.095 197.716 237.768 198.838 238.638 199.798C239.509 200.758 240.56 201.536 241.732 202.089C242.904 202.641 244.173 202.957 245.467 203.017C246.762 203.078 248.055 202.882 249.273 202.441L318.319 177.615C320.778 176.727 322.785 174.9 323.899 172.535C325.013 170.17 325.144 167.459 324.263 164.997Z" fill="#222222"/>
<path d="M245.642 198.938C244.67 198.936 243.721 198.635 242.927 198.075C242.132 197.514 241.528 196.723 241.199 195.808L183.652 35.6653C183.229 34.4858 183.291 33.1862 183.825 32.0525C184.359 30.9187 185.321 30.0435 186.5 29.6195L201.191 24.3371L201.169 24.8512C201.132 25.7438 201.314 26.6319 201.7 27.4373C202.086 28.2428 202.665 28.9408 203.384 29.47C204.104 29.9992 204.942 30.3432 205.826 30.4719C206.71 30.6005 207.611 30.5097 208.452 30.2076L241.055 18.4845C241.842 18.1238 242.534 17.5829 243.073 16.9055C243.612 16.2281 243.984 15.4332 244.159 14.5852C244.333 13.7513 244.306 12.8882 244.083 12.0664C243.859 11.2446 243.444 10.4874 242.872 9.85645L242.528 9.4737L257.703 4.01703C258.882 3.59481 260.181 3.65763 261.314 4.19172C262.447 4.72582 263.322 5.68759 263.747 6.86613L318.652 159.656C319.772 162.786 319.606 166.233 318.189 169.24C316.772 172.247 314.221 174.57 311.094 175.698L247.243 198.657C246.729 198.843 246.188 198.938 245.642 198.938Z" fill="white"/>
<path d="M240.017 85.3515C250.33 85.3515 258.69 76.9883 258.69 66.6718C258.69 56.3554 250.33 47.9922 240.017 47.9922C229.703 47.9922 221.343 56.3554 221.343 66.6718C221.343 76.9883 229.703 85.3515 240.017 85.3515Z" fill="#8C1CEC"/>
<path d="M286.289 93.8371L221.621 117.09C221.419 117.163 221.205 117.196 220.99 117.186C220.776 117.176 220.565 117.124 220.371 117.032C220.176 116.941 220.002 116.812 219.857 116.653C219.712 116.494 219.601 116.308 219.528 116.106C219.455 115.904 219.423 115.689 219.434 115.475C219.444 115.26 219.496 115.05 219.588 114.855C219.68 114.661 219.809 114.487 219.968 114.342C220.128 114.198 220.314 114.087 220.516 114.015L285.184 90.7619C285.592 90.6166 286.04 90.6388 286.431 90.8237C286.822 91.0086 287.124 91.3411 287.27 91.7482C287.416 92.1553 287.395 92.6039 287.212 92.9955C287.028 93.3871 286.696 93.6897 286.289 93.8371Z" fill="#E6E6E6"/>
<path d="M267.085 108.58L245.814 116.228C245.612 116.301 245.398 116.334 245.183 116.324C244.969 116.314 244.758 116.262 244.564 116.171C244.369 116.079 244.195 115.95 244.05 115.791C243.906 115.633 243.794 115.447 243.721 115.244C243.649 115.042 243.617 114.828 243.627 114.613C243.637 114.399 243.69 114.188 243.782 113.994C243.873 113.8 244.002 113.625 244.162 113.481C244.321 113.337 244.507 113.225 244.709 113.153L265.98 105.505C266.388 105.358 266.837 105.379 267.229 105.564C267.621 105.749 267.923 106.082 268.07 106.49C268.216 106.897 268.195 107.347 268.01 107.739C267.826 108.131 267.493 108.433 267.085 108.58Z" fill="#E6E6E6"/>
<path d="M272.145 122.66L250.874 130.308C250.672 130.381 250.457 130.413 250.243 130.403C250.029 130.393 249.819 130.34 249.625 130.249C249.431 130.157 249.257 130.029 249.112 129.87C248.968 129.711 248.856 129.525 248.784 129.324C248.711 129.122 248.679 128.907 248.689 128.693C248.7 128.479 248.752 128.268 248.843 128.074C248.935 127.88 249.063 127.706 249.222 127.562C249.381 127.417 249.567 127.306 249.768 127.233L271.04 119.585C271.447 119.438 271.897 119.459 272.288 119.644C272.68 119.829 272.983 120.162 273.129 120.57C273.276 120.977 273.255 121.427 273.07 121.819C272.885 122.211 272.552 122.513 272.145 122.66V122.66Z" fill="#E6E6E6"/>
<path d="M274.737 129.871L253.465 137.52C253.263 137.593 253.049 137.625 252.834 137.616C252.62 137.606 252.409 137.554 252.214 137.462C252.02 137.371 251.845 137.242 251.701 137.083C251.556 136.924 251.444 136.738 251.372 136.536C251.299 136.334 251.267 136.119 251.277 135.905C251.288 135.69 251.34 135.479 251.432 135.285C251.524 135.091 251.653 134.916 251.812 134.772C251.972 134.628 252.158 134.516 252.36 134.444L273.631 126.796C273.833 126.723 274.048 126.69 274.263 126.7C274.477 126.71 274.688 126.762 274.882 126.853C275.077 126.945 275.251 127.074 275.396 127.232C275.54 127.391 275.652 127.577 275.725 127.779C275.797 127.982 275.829 128.196 275.819 128.411C275.809 128.626 275.756 128.836 275.664 129.03C275.573 129.225 275.443 129.399 275.284 129.543C275.125 129.687 274.939 129.799 274.737 129.871L274.737 129.871Z" fill="#E6E6E6"/>
<path d="M281.509 111.231L236.379 127.459C236.177 127.532 235.963 127.565 235.748 127.555C235.533 127.545 235.323 127.493 235.128 127.401C234.934 127.31 234.759 127.181 234.615 127.022C234.47 126.863 234.358 126.677 234.286 126.475C234.213 126.273 234.181 126.058 234.191 125.844C234.202 125.629 234.254 125.419 234.346 125.224C234.438 125.03 234.567 124.856 234.726 124.712C234.885 124.567 235.072 124.456 235.274 124.384L280.404 108.156C280.606 108.083 280.821 108.05 281.035 108.06C281.25 108.07 281.46 108.122 281.655 108.214C281.849 108.305 282.024 108.434 282.168 108.593C282.313 108.752 282.425 108.938 282.497 109.14C282.57 109.342 282.602 109.557 282.592 109.771C282.582 109.986 282.529 110.196 282.437 110.391C282.345 110.585 282.216 110.759 282.057 110.903C281.898 111.048 281.712 111.159 281.509 111.231Z" fill="#E6E6E6"/>
<path d="M272.419 147.377L264.696 150.154C264.003 150.403 263.239 150.366 262.573 150.052C261.907 149.738 261.393 149.172 261.144 148.479C260.895 147.785 260.931 147.022 261.245 146.355C261.559 145.689 262.124 145.174 262.817 144.925L270.54 142.148C271.233 141.899 271.997 141.936 272.663 142.25C273.329 142.564 273.843 143.13 274.092 143.823C274.341 144.516 274.305 145.28 273.991 145.946C273.677 146.613 273.112 147.127 272.419 147.377Z" fill="#6C63FF"/>
<path d="M211.556 24.8549C212.149 24.8549 212.63 24.3739 212.63 23.7805C212.63 23.1871 212.149 22.7061 211.556 22.7061C210.962 22.7061 210.481 23.1871 210.481 23.7805C210.481 24.3739 210.962 24.8549 211.556 24.8549Z" fill="white"/>
<path d="M88.0317 84.2074C100.07 70.0328 119.602 61.0997 137.61 65.731C121.391 77.8092 109.966 95.2367 105.356 114.93C103.606 122.531 102.45 131.168 96.2806 135.939C92.4418 138.907 87.2799 139.719 82.458 139.18C77.6358 138.641 73.0462 136.881 68.5183 135.136L67.3145 135.27C70.3427 116.919 75.9936 98.3821 88.0317 84.2074Z" fill="#5C0F9E"/>
<path d="M137.565 66.1198C122.698 70.1021 109.464 78.6688 99.7426 90.603C97.6041 93.1351 95.8779 95.9884 94.6277 99.0581C93.5064 102.088 93.2166 105.362 93.7884 108.542C94.2621 111.517 95.091 114.506 94.8333 117.545C94.6783 119.098 94.1968 120.601 93.4203 121.956C92.6439 123.31 91.59 124.485 90.3278 125.403C87.2423 127.773 83.4895 128.892 79.7816 129.86C75.6647 130.934 71.3715 131.984 68.0627 134.818C67.6618 135.161 67.1526 134.519 67.5529 134.176C73.3096 129.245 81.4853 129.664 87.8984 126.029C90.8909 124.332 93.3905 121.724 93.9289 118.214C94.3998 115.145 93.5476 112.063 93.042 109.054C92.4388 105.961 92.6019 102.766 93.5173 99.7503C94.6072 96.6268 96.2206 93.7117 98.2883 91.1297C102.851 85.2425 108.31 80.1095 114.466 75.9187C121.466 71.0968 129.239 67.5083 137.448 65.3082C137.956 65.1723 138.069 65.9847 137.565 66.1198H137.565Z" fill="white"/>
<path d="M102.647 86.5753C100.867 84.6719 99.821 82.1974 99.6962 79.5938C99.5714 76.9902 100.376 74.427 101.966 72.362C102.289 71.9452 102.952 72.428 102.628 72.8453C101.144 74.7655 100.395 77.1532 100.516 79.5775C100.637 82.0017 101.62 84.3028 103.289 86.0654C103.651 86.4489 103.007 86.9566 102.647 86.5753H102.647Z" fill="white"/>
<path d="M93.3508 107.064C98.6728 107.289 103.884 105.499 107.945 102.051C108.347 101.71 108.857 102.352 108.455 102.693C104.222 106.273 98.7953 108.125 93.2576 107.879C92.7298 107.855 92.8259 107.041 93.3508 107.064Z" fill="white"/>
<path d="M121.676 72.1629C122.212 73.0429 122.957 73.7762 123.846 74.2968C124.735 74.8174 125.739 75.1091 126.768 75.1456C127.296 75.1627 127.199 75.977 126.675 75.96C125.538 75.9144 124.429 75.5909 123.446 75.0179C122.463 74.4449 121.635 73.6397 121.035 72.6728C120.971 72.5864 120.942 72.4788 120.954 72.3718C120.966 72.2648 121.019 72.1666 121.101 72.0969C121.186 72.0298 121.294 71.9991 121.402 72.0115C121.51 72.0238 121.609 72.0782 121.676 72.1629Z" fill="white"/>
<path d="M164.387 122.724C164.057 122.722 163.727 122.721 163.393 122.725C158.958 122.73 154.53 123.096 150.154 123.819C149.815 123.869 149.471 123.925 149.134 123.986C138.61 125.839 128.521 129.63 119.38 135.168C115.744 137.374 112.282 139.855 109.023 142.587C104.522 146.361 99.9421 150.81 94.6147 152.817C94.0612 153.033 93.4949 153.214 92.9191 153.359L67.5709 136.729C67.5323 136.662 67.4896 136.601 67.4506 136.534L66.4082 135.916C66.5665 135.764 66.7339 135.609 66.8921 135.456C66.9835 135.367 67.0806 135.282 67.1721 135.193C67.2348 135.135 67.2978 135.077 67.3511 135.021C67.372 135.002 67.393 134.982 67.4101 134.969C67.4634 134.913 67.5188 134.866 67.5683 134.816C68.5017 133.947 69.4429 133.084 70.3917 132.225C70.3955 132.22 70.3955 132.22 70.4049 132.217C77.6514 125.695 85.5059 119.72 94.0173 115.127C94.2734 114.989 94.533 114.845 94.8007 114.715C98.6488 112.666 102.658 110.935 106.788 109.54C109.052 108.783 111.352 108.141 113.681 107.617C119.701 106.274 125.894 105.887 132.034 106.47C144.274 107.633 156.005 112.699 163.798 122.007C163.997 122.245 164.191 122.48 164.387 122.724Z" fill="#5C0F9E"/>
<path d="M164.119 123.009C149.852 117.235 134.129 116.105 119.184 119.779C115.953 120.513 112.857 121.751 110.011 123.449C107.292 125.193 105.09 127.633 103.633 130.516C102.22 133.177 101.083 136.062 99.0485 138.334C97.9897 139.481 96.7006 140.391 95.2655 141.004C93.8304 141.618 92.2818 141.921 90.7214 141.894C86.8314 141.928 83.1612 140.562 79.6184 139.101C75.6849 137.479 71.6249 135.732 67.2774 136.002C66.7506 136.035 66.7307 135.215 67.2566 135.183C74.8205 134.713 81.0967 139.971 88.4051 140.931C91.8153 141.379 95.3811 140.801 97.9234 138.323C100.147 136.156 101.322 133.182 102.729 130.475C104.109 127.642 106.162 125.19 108.708 123.333C111.458 121.496 114.501 120.14 117.706 119.323C124.892 117.371 132.34 116.56 139.778 116.922C148.269 117.287 156.635 119.103 164.514 122.291C165.002 122.488 164.603 123.205 164.119 123.009L164.119 123.009Z" fill="white"/>
<path d="M123.927 118.312C123.651 115.72 124.305 113.114 125.773 110.961C127.24 108.807 129.425 107.245 131.938 106.553C132.447 106.415 132.685 107.2 132.176 107.338C129.835 107.977 127.8 109.433 126.437 111.441C125.075 113.45 124.475 115.879 124.746 118.291C124.804 118.816 123.985 118.833 123.927 118.312V118.312Z" fill="white"/>
<path d="M104.172 129.072C108.286 132.457 113.524 134.166 118.842 133.859C119.369 133.828 119.389 134.648 118.863 134.679C113.328 134.988 107.881 133.198 103.607 129.666C103.2 129.329 103.767 128.737 104.172 129.072H104.172Z" fill="white"/>
<path d="M147.795 118.265C147.693 119.29 147.847 120.324 148.243 121.275C148.639 122.226 149.265 123.064 150.065 123.713C150.476 124.044 149.909 124.636 149.5 124.307C148.62 123.586 147.93 122.66 147.49 121.61C147.049 120.561 146.873 119.419 146.976 118.285C146.976 118.178 147.018 118.074 147.092 117.996C147.166 117.918 147.267 117.871 147.375 117.865C147.483 117.863 147.588 117.904 147.667 117.979C147.746 118.053 147.792 118.156 147.795 118.265Z" fill="white"/>
<path d="M449.313 356.648C462.439 359.867 477.747 356.806 486.38 346.405C471.685 346.202 457.535 340.806 446.434 331.171C442.166 327.44 437.808 322.845 432.143 322.664C428.618 322.552 425.232 324.273 422.622 326.645C420.011 329.017 418.057 332.009 416.133 334.966L415.367 335.4C424.965 344.918 436.187 353.428 449.313 356.648Z" fill="#5C0F9E"/>
<path d="M486.189 346.197C475.738 350.186 464.295 350.779 453.488 347.892C451.15 347.312 448.918 346.367 446.875 345.092C444.924 343.785 443.359 341.98 442.342 339.863C441.354 337.909 440.57 335.796 439.124 334.116C438.371 333.267 437.448 332.587 436.414 332.12C435.38 331.653 434.259 331.41 433.124 331.407C430.298 331.326 427.611 332.266 425.015 333.276C422.133 334.398 419.157 335.608 416.002 335.349C415.619 335.318 415.593 335.913 415.975 335.944C421.465 336.395 426.102 332.665 431.427 332.074C433.912 331.798 436.495 332.269 438.306 334.107C439.89 335.714 440.701 337.893 441.684 339.88C442.646 341.959 444.103 343.771 445.926 345.157C447.898 346.532 450.089 347.562 452.407 348.202C457.601 349.725 463.002 350.422 468.412 350.267C474.588 350.125 480.694 348.927 486.466 346.724C486.823 346.588 486.544 346.061 486.189 346.197H486.189Z" fill="white"/>
<path d="M456.913 349.026C456.675 350.906 457.113 352.809 458.148 354.395C459.183 355.982 460.748 357.149 462.564 357.688C462.932 357.795 463.117 357.229 462.748 357.121C461.056 356.622 459.598 355.535 458.638 354.056C457.677 352.576 457.276 350.802 457.508 349.053C457.558 348.673 456.963 348.648 456.913 349.026V349.026Z" fill="white"/>
<path d="M442.713 340.92C445.752 338.52 449.583 337.354 453.443 337.654C453.826 337.684 453.852 337.089 453.47 337.059C449.453 336.754 445.468 337.975 442.311 340.48C442.011 340.719 442.414 341.158 442.713 340.92H442.713Z" fill="white"/>
<path d="M474.258 349.406C474.199 348.66 474.325 347.91 474.627 347.225C474.929 346.54 475.396 345.94 475.987 345.48C476.29 345.245 475.887 344.807 475.585 345.04C474.935 345.551 474.42 346.214 474.085 346.971C473.75 347.727 473.605 348.554 473.663 349.379C473.662 349.458 473.691 349.533 473.743 349.591C473.796 349.649 473.869 349.684 473.947 349.69C474.026 349.694 474.103 349.665 474.161 349.612C474.219 349.559 474.254 349.485 474.258 349.406Z" fill="white"/>
<path d="M477.883 301.429C477.69 301.57 477.496 301.711 477.297 301.851C474.683 303.738 471.919 305.409 469.034 306.848C468.813 306.963 468.587 307.076 468.363 307.184C461.375 310.577 453.818 312.643 446.076 313.276C442.996 313.525 439.9 313.54 436.817 313.319C432.559 313.014 427.967 312.345 423.975 313.433C423.557 313.542 423.146 313.676 422.745 313.836L414.897 334.431C414.903 334.487 414.904 334.541 414.91 334.597L414.559 335.405C414.717 335.428 414.881 335.448 415.04 335.47C415.131 335.484 415.225 335.492 415.316 335.506C415.378 335.513 415.44 335.521 415.495 335.531C415.516 335.534 415.536 335.536 415.552 335.537C415.608 335.547 415.66 335.551 415.71 335.559C416.63 335.673 417.552 335.781 418.476 335.882C418.481 335.884 418.481 335.884 418.488 335.881C425.524 336.721 432.635 336.722 439.672 335.886C439.882 335.858 440.096 335.832 440.309 335.795C443.448 335.362 446.546 334.673 449.573 333.736C451.228 333.217 452.857 332.614 454.452 331.931C458.569 330.157 462.381 327.746 465.749 324.787C472.463 318.886 477.216 310.904 477.842 302.102C477.858 301.876 477.872 301.656 477.883 301.429Z" fill="#5C0F9E"/>
<path d="M477.604 301.376C471.66 310.855 462.881 318.22 452.514 322.424C450.298 323.369 447.948 323.958 445.548 324.171C443.205 324.302 440.868 323.803 438.783 322.726C436.818 321.761 434.919 320.546 432.754 320.075C431.642 319.851 430.495 319.864 429.388 320.114C428.282 320.364 427.241 320.845 426.333 321.526C424.027 323.163 422.447 325.532 420.983 327.902C419.357 330.533 417.709 333.292 415.034 334.985C414.71 335.19 415.047 335.682 415.371 335.477C420.026 332.531 421.483 326.76 425.379 323.08C427.197 321.363 429.543 320.184 432.095 320.56C434.327 320.889 436.286 322.141 438.267 323.135C440.287 324.216 442.54 324.786 444.83 324.794C447.233 324.705 449.602 324.207 451.837 323.322C456.901 321.41 461.633 318.714 465.86 315.332C470.706 311.499 474.86 306.865 478.143 301.63C478.346 301.306 477.806 301.054 477.604 301.376H477.604Z" fill="white"/>
<path d="M455.932 321.267C456.873 322.911 458.368 324.167 460.149 324.81C461.931 325.454 463.883 325.443 465.657 324.779C466.016 324.644 465.822 324.08 465.463 324.216C463.812 324.837 461.994 324.847 460.336 324.244C458.678 323.642 457.29 322.466 456.423 320.93C456.234 320.597 455.744 320.935 455.932 321.267Z" fill="white"/>
<path d="M439.715 323.347C440.697 319.6 443.054 316.361 446.317 314.276C446.641 314.07 446.303 313.579 445.98 313.785C442.589 315.961 440.143 319.336 439.13 323.237C439.033 323.609 439.62 323.716 439.715 323.347Z" fill="white"/>
<path d="M470.01 311.125C469.513 310.565 469.163 309.89 468.992 309.161C468.82 308.432 468.833 307.672 469.027 306.949C469.128 306.578 468.542 306.471 468.442 306.839C468.23 307.639 468.218 308.479 468.406 309.285C468.593 310.09 468.976 310.838 469.519 311.462C469.565 311.525 469.634 311.568 469.71 311.582C469.787 311.597 469.867 311.581 469.933 311.539C469.998 311.494 470.042 311.425 470.057 311.348C470.071 311.27 470.054 311.19 470.01 311.125Z" fill="white"/>
<path d="M501.908 230.447L481.893 264.14L482.654 264.541L475.876 277.395L474.465 276.648L470.011 284.141L471.117 284.777L463.855 297.355L462.597 296.628L397.287 406.576C395.574 409.453 392.79 411.533 389.546 412.359C386.301 413.185 382.862 412.69 379.982 410.983L258.568 338.817C255.691 337.104 253.611 334.319 252.785 331.073C251.959 327.828 252.454 324.387 254.162 321.507L358.784 145.379C360.497 142.501 363.281 140.421 366.525 139.595C369.769 138.769 373.209 139.264 376.088 140.972L497.503 213.137C500.378 214.851 502.457 217.636 503.283 220.881C504.109 224.126 503.614 227.566 501.908 230.447Z" fill="#222222"/>
<path d="M384.309 404.185L262.467 331.765C261.58 331.237 260.939 330.379 260.685 329.378C260.43 328.378 260.583 327.318 261.109 326.43L366.425 149.129C366.953 148.243 367.811 147.602 368.811 147.347C369.811 147.092 370.871 147.245 371.759 147.771L493.601 220.191C494.488 220.719 495.129 221.577 495.383 222.578C495.638 223.578 495.485 224.638 494.959 225.526L389.643 402.826C389.115 403.713 388.257 404.354 387.257 404.609C386.257 404.863 385.197 404.711 384.309 404.185Z" fill="white"/>
<path d="M434.359 181.178C434.952 181.178 435.433 180.697 435.433 180.104C435.433 179.51 434.952 179.029 434.359 179.029C433.766 179.029 433.285 179.51 433.285 180.104C433.285 180.697 433.766 181.178 434.359 181.178Z" fill="white"/>
<path d="M427.712 308.185L326.004 247.733C325.685 247.545 325.406 247.296 325.184 247C324.961 246.704 324.799 246.367 324.707 246.008C324.615 245.65 324.595 245.276 324.648 244.91C324.7 244.543 324.825 244.191 325.014 243.872C325.203 243.554 325.453 243.276 325.75 243.054C326.046 242.833 326.384 242.672 326.743 242.582C327.102 242.491 327.475 242.472 327.841 242.526C328.208 242.58 328.56 242.706 328.877 242.896L430.585 303.348C430.904 303.536 431.183 303.785 431.405 304.081C431.628 304.377 431.79 304.714 431.882 305.073C431.974 305.432 431.994 305.805 431.941 306.172C431.889 306.538 431.765 306.891 431.575 307.209C431.386 307.528 431.136 307.805 430.839 308.027C430.543 308.248 430.205 308.409 429.846 308.5C429.487 308.59 429.114 308.609 428.748 308.555C428.382 308.501 428.03 308.375 427.712 308.185H427.712Z" fill="#E6E6E6"/>
<path d="M387.1 298.817L353.646 278.933C353.328 278.744 353.051 278.495 352.83 278.199C352.608 277.903 352.448 277.567 352.357 277.209C352.265 276.85 352.246 276.478 352.298 276.112C352.351 275.747 352.475 275.395 352.664 275.077C352.853 274.76 353.102 274.482 353.398 274.261C353.694 274.04 354.03 273.879 354.388 273.788C354.746 273.697 355.119 273.677 355.484 273.73C355.85 273.783 356.201 273.907 356.519 274.096L389.973 293.981C390.291 294.169 390.568 294.419 390.789 294.715C391.01 295.01 391.171 295.347 391.262 295.705C391.353 296.063 391.373 296.435 391.32 296.801C391.267 297.167 391.143 297.518 390.954 297.836C390.766 298.154 390.517 298.431 390.221 298.652C389.925 298.873 389.588 299.034 389.231 299.125C388.873 299.216 388.5 299.236 388.135 299.183C387.769 299.13 387.418 299.006 387.1 298.817Z" fill="#E6E6E6"/>
<path d="M373.947 320.961L340.492 301.077C339.851 300.696 339.388 300.076 339.204 299.353C339.02 298.63 339.131 297.863 339.512 297.222C339.893 296.581 340.513 296.117 341.235 295.933C341.958 295.749 342.724 295.859 343.366 296.24L376.82 316.125C377.138 316.313 377.415 316.563 377.636 316.858C377.857 317.154 378.018 317.491 378.109 317.849C378.2 318.207 378.22 318.579 378.167 318.945C378.114 319.311 377.99 319.662 377.801 319.98C377.612 320.298 377.363 320.575 377.067 320.796C376.772 321.017 376.435 321.178 376.077 321.269C375.719 321.36 375.347 321.38 374.981 321.327C374.616 321.274 374.264 321.15 373.947 320.961Z" fill="#E6E6E6"/>
<path d="M367.21 332.303L333.755 312.418C333.437 312.23 333.159 311.981 332.937 311.685C332.715 311.389 332.553 311.052 332.462 310.694C332.37 310.335 332.35 309.962 332.403 309.596C332.455 309.23 332.58 308.878 332.769 308.56C332.957 308.242 333.207 307.964 333.504 307.743C333.8 307.521 334.137 307.361 334.496 307.27C334.854 307.179 335.227 307.16 335.593 307.213C335.959 307.267 336.311 307.392 336.628 307.582L370.083 327.466C370.402 327.654 370.681 327.903 370.903 328.199C371.126 328.495 371.288 328.832 371.38 329.191C371.472 329.55 371.492 329.923 371.44 330.29C371.387 330.656 371.263 331.009 371.074 331.327C370.885 331.646 370.634 331.923 370.338 332.145C370.041 332.366 369.703 332.527 369.344 332.618C368.985 332.708 368.612 332.727 368.246 332.673C367.88 332.619 367.528 332.493 367.21 332.303V332.303Z" fill="#E6E6E6"/>
<path d="M399.378 320.886L328.399 278.698C327.761 278.316 327.301 277.696 327.119 276.974C326.937 276.253 327.048 275.488 327.428 274.849C327.808 274.209 328.426 273.746 329.146 273.561C329.867 273.376 330.631 273.484 331.272 273.862L402.251 316.049C402.57 316.237 402.849 316.486 403.072 316.782C403.294 317.078 403.456 317.415 403.548 317.774C403.641 318.133 403.661 318.506 403.608 318.873C403.556 319.239 403.431 319.592 403.242 319.911C403.053 320.229 402.803 320.507 402.506 320.728C402.209 320.95 401.872 321.11 401.513 321.201C401.154 321.292 400.781 321.311 400.414 321.256C400.048 321.202 399.696 321.077 399.378 320.886Z" fill="#E6E6E6"/>
<path d="M385.85 374.802L373.703 367.582C372.614 366.934 371.827 365.879 371.515 364.65C371.203 363.422 371.392 362.119 372.039 361.029C372.686 359.94 373.74 359.151 374.968 358.838C376.196 358.525 377.498 358.712 378.588 359.358L390.735 366.578C391.826 367.226 392.614 368.281 392.927 369.51C393.24 370.739 393.052 372.043 392.404 373.134C391.756 374.224 390.701 375.013 389.472 375.326C388.243 375.639 386.94 375.45 385.85 374.802Z" fill="#8C1CEC"/>
<path d="M408.514 257.576C422.265 257.576 433.412 246.425 433.412 232.67C433.412 218.915 422.265 207.764 408.514 207.764C394.763 207.764 383.615 218.915 383.615 232.67C383.615 246.425 394.763 257.576 408.514 257.576Z" fill="#8C1CEC"/>
<path d="M0.292969 333.881H337.239V138.749C337.237 137.287 336.656 135.885 335.622 134.851C334.589 133.818 333.187 133.236 331.726 133.234H5.8059C4.34431 133.236 2.94305 133.818 1.90954 134.851C0.876026 135.885 0.294657 137.287 0.292969 138.749V333.881Z" fill="#CACACA"/>
<path d="M326.828 140.861H10.7031V320.387H326.828V140.861Z" fill="white"/>
<path d="M4.53266e-10 328.6V352.679C-1.08986e-05 353.677 0.196536 354.666 0.578418 355.588C0.960301 356.51 1.52004 357.348 2.22568 358.054C2.93132 358.76 3.76904 359.32 4.691 359.702C5.61297 360.084 6.60112 360.281 7.59905 360.281H131.963V407.802H130.311C130.181 407.802 130.053 407.828 129.933 407.877C129.813 407.927 129.705 408 129.613 408.091C129.521 408.183 129.449 408.292 129.399 408.412C129.349 408.531 129.324 408.66 129.324 408.79V412.095C129.324 412.225 129.349 412.353 129.399 412.473C129.449 412.593 129.521 412.701 129.613 412.793C129.705 412.885 129.813 412.958 129.933 413.007C130.053 413.057 130.181 413.082 130.311 413.082H207.515C207.644 413.082 207.773 413.057 207.892 413.007C208.012 412.958 208.121 412.885 208.213 412.793C208.304 412.701 208.377 412.593 208.427 412.473C208.476 412.353 208.502 412.225 208.502 412.095V408.79C208.502 408.66 208.476 408.531 208.427 408.412C208.377 408.292 208.304 408.183 208.213 408.091C208.121 408 208.012 407.927 207.892 407.877C207.773 407.828 207.644 407.802 207.515 407.802H205.862V360.281H330.227C331.224 360.281 332.213 360.084 333.135 359.702C334.057 359.32 334.894 358.76 335.6 358.054C336.306 357.348 336.865 356.51 337.247 355.588C337.629 354.666 337.826 353.677 337.826 352.679V328.6L4.53266e-10 328.6Z" fill="#222222"/>
<path d="M281.085 200.901H131.381C130.437 200.901 129.532 200.526 128.864 199.859C128.197 199.191 127.822 198.286 127.822 197.342C127.822 196.398 128.197 195.492 128.864 194.825C129.532 194.157 130.437 193.782 131.381 193.782H281.085C282.029 193.782 282.934 194.157 283.601 194.825C284.269 195.492 284.644 196.398 284.644 197.342C284.644 198.286 284.269 199.191 283.601 199.859C282.934 200.526 282.029 200.901 281.085 200.901Z" fill="#E6E6E6"/>
<path d="M230.853 216.969H181.611C180.668 216.969 179.762 216.594 179.095 215.926C178.428 215.259 178.053 214.353 178.053 213.409C178.053 212.465 178.428 211.56 179.095 210.892C179.762 210.225 180.668 209.85 181.611 209.85H230.853C231.797 209.85 232.702 210.225 233.37 210.892C234.037 211.56 234.412 212.465 234.412 213.409C234.412 214.353 234.037 215.259 233.37 215.926C232.702 216.594 231.797 216.969 230.853 216.969Z" fill="#E6E6E6"/>
<path d="M230.853 249.563H181.611C180.668 249.563 179.762 249.188 179.095 248.52C178.428 247.853 178.053 246.947 178.053 246.003C178.053 245.059 178.428 244.154 179.095 243.486C179.762 242.818 180.668 242.443 181.611 242.443H230.853C231.797 242.443 232.702 242.818 233.37 243.486C234.037 244.154 234.412 245.059 234.412 246.003C234.412 246.947 234.037 247.853 233.37 248.52C232.702 249.188 231.797 249.563 230.853 249.563Z" fill="#E6E6E6"/>
<path d="M230.853 266.257H181.611C181.144 266.257 180.681 266.165 180.249 265.986C179.818 265.807 179.425 265.545 179.095 265.214C178.765 264.884 178.502 264.491 178.324 264.059C178.145 263.628 178.053 263.165 178.053 262.697C178.053 262.23 178.145 261.767 178.324 261.335C178.502 260.903 178.765 260.511 179.095 260.18C179.425 259.85 179.818 259.588 180.249 259.409C180.681 259.23 181.144 259.138 181.611 259.138H230.853C231.32 259.138 231.783 259.23 232.215 259.409C232.647 259.588 233.039 259.85 233.369 260.18C233.7 260.511 233.962 260.903 234.141 261.335C234.32 261.767 234.412 262.23 234.412 262.697C234.412 263.165 234.32 263.628 234.141 264.059C233.962 264.491 233.7 264.884 233.369 265.214C233.039 265.545 232.647 265.807 232.215 265.986C231.783 266.165 231.32 266.257 230.853 266.257Z" fill="#E6E6E6"/>
<path d="M258.471 233.037H153.996C153.052 233.037 152.147 232.662 151.48 231.994C150.812 231.327 150.438 230.422 150.438 229.477C150.438 228.533 150.812 227.628 151.48 226.961C152.147 226.293 153.052 225.918 153.996 225.918H258.471C259.415 225.918 260.32 226.293 260.987 226.961C261.654 227.628 262.029 228.533 262.029 229.477C262.029 230.422 261.654 231.327 260.987 231.994C260.32 232.662 259.415 233.037 258.471 233.037Z" fill="#E6E6E6"/>
<path d="M278.593 300.437H260.713C259.108 300.437 257.569 299.799 256.434 298.664C255.3 297.529 254.662 295.989 254.662 294.384C254.662 292.779 255.3 291.239 256.434 290.104C257.569 288.969 259.108 288.331 260.713 288.331H278.593C280.198 288.331 281.737 288.969 282.871 290.104C284.006 291.239 284.644 292.779 284.644 294.384C284.644 295.989 284.006 297.529 282.871 298.664C281.737 299.799 280.198 300.437 278.593 300.437Z" fill="#8C1CEC"/>
<path d="M84.3047 256.505C101.493 256.505 115.428 242.566 115.428 225.372C115.428 208.178 101.493 194.239 84.3047 194.239C67.1159 194.239 53.1816 208.178 53.1816 225.372C53.1816 242.566 67.1159 256.505 84.3047 256.505Z" fill="#8C1CEC"/>
<path d="M168.62 137.047C169.268 137.047 169.793 136.522 169.793 135.874C169.793 135.226 169.268 134.7 168.62 134.7C167.972 134.7 167.447 135.226 167.447 135.874C167.447 136.522 167.972 137.047 168.62 137.047Z" fill="white"/>
</svg>
