<?xml version="1.0" encoding="UTF-8"?><svg id="Laag_1" xmlns="http://www.w3.org/2000/svg" viewBox="0 0 841.89 595.28"><defs><style>.cls-1{fill:#f2f2f2;}.cls-2{fill:#f0f0f0;}.cls-3{fill:#e6e6e6;}.cls-4{fill:#f4f4f4;}.cls-5{fill:#fff;}.cls-6{fill:#a0616a;}.cls-7{fill:#8c1cec;}.cls-8{fill:#cacaca;}.cls-9{fill:#3f3d56;}.cls-10{fill:#32cbe4;}.cls-11{fill:#2f2e41;}.cls-12{isolation:isolate;opacity:.2;}</style></defs><path class="cls-8" d="m658.29,80.38H110.68c-.49-.01-.87-.41-.86-.9.01-.47.39-.85.86-.86h547.61c.49.01.87.41.86.9-.01.47-.39.85-.86.86Z"/><ellipse class="cls-9" cx="130.04" cy="58.39" rx="9.46" ry="9.67"/><ellipse class="cls-9" cx="162.73" cy="58.39" rx="9.46" ry="9.67"/><ellipse class="cls-9" cx="195.41" cy="58.39" rx="9.46" ry="9.67"/><path class="cls-9" d="m638.7,51.12h-23.22c-.97.02-1.74.82-1.72,1.79.02.94.78,1.7,1.72,1.72h23.22c.97-.02,1.74-.82,1.72-1.79-.02-.94-.78-1.7-1.72-1.72Z"/><path class="cls-9" d="m638.7,57.72h-23.22c-.97.02-1.74.82-1.72,1.79.02.94.78,1.7,1.72,1.72h23.22c.97-.02,1.74-.82,1.72-1.79-.02-.94-.78-1.7-1.72-1.72Z"/><path class="cls-9" d="m638.7,64.31h-23.22c-.97.02-1.74.82-1.72,1.79.02.94.78,1.7,1.72,1.72h23.22c.97-.02,1.74-.82,1.72-1.79-.02-.94-.78-1.7-1.72-1.72Z"/><path class="cls-2" d="m630.03,110.07H131.25c-5.75,0-10.41,4.67-10.42,10.42v1.68c0,5.75,4.67,10.41,10.42,10.42h498.78c5.75,0,10.41-4.67,10.42-10.42v-1.68c0-5.75-4.67-10.41-10.42-10.42Z"/><path class="cls-5" d="m191.45,125.48h-47.48c-2.21,0-4.01-1.8-4-4.02,0-2.21,1.79-4,4-4h47.48c5.17-.07,5.22,8.09,0,8.02Z"/><path class="cls-5" d="m333.47,125.48h-47.48c-2.21,0-4.01-1.8-4-4.02,0-2.21,1.79-4,4-4h47.48c5.17-.07,5.22,8.09,0,8.02Z"/><path class="cls-5" d="m475.5,125.48h-47.48c-2.21,0-4.01-1.8-4-4.02,0-2.21,1.79-4,4-4h47.48c5.17-.07,5.22,8.09,0,8.02Z"/><path class="cls-10" d="m610.17,125.91h-47.48c-2.21,0-4.01-1.79-4.01-4.01s1.79-4.01,4.01-4.01h47.48c5.17-.07,5.22,8.09,0,8.02Z"/><rect class="cls-5" x="534.36" y="110.07" width="1.73" height="22.52"/><path class="cls-2" d="m356.87,443.32h-203.56c-3.78,0-6.84-3.06-6.84-6.84v-29.81c0-3.78,3.06-6.84,6.84-6.84h203.56c3.78,0,6.84,3.06,6.84,6.84v29.81c0,3.78-3.06,6.84-6.84,6.84Z"/><path class="cls-5" d="m337.09,438.71h-179.17c-3.78,0-6.84-3.06-6.84-6.84v-20.58c0-3.78,3.06-6.84,6.84-6.84h194.33c3.78,0,6.84,3.06,6.84,6.84v5.42c-.01,12.15-9.86,21.99-22.01,22.01Z"/><path class="cls-3" d="m275.28,419.45h-81.82c-.97,0-1.76-.79-1.76-1.76s.79-1.76,1.76-1.76h81.82c.97,0,1.76.79,1.76,1.76s-.79,1.76-1.76,1.76Z"/><path class="cls-3" d="m316.7,426.67h-123.23c-.97,0-1.77-.79-1.77-1.76,0-.97.79-1.77,1.76-1.77h123.24c.97,0,1.76.79,1.76,1.77,0,.97-.79,1.76-1.76,1.76Z"/><path class="cls-5" d="m369.87,365.72h-232.1c-3.86,0-6.98-3.13-6.99-6.99v-177.42c0-3.86,3.13-6.98,6.99-6.99h232.1c3.86,0,6.98,3.13,6.99,6.99v177.42c0,3.86-3.13,6.98-6.99,6.99Z"/><path class="cls-2" d="m369.87,366.58h-232.1c-4.33,0-7.85-3.52-7.85-7.85v-177.42c0-4.33,3.52-7.85,7.85-7.85h232.1c4.33,0,7.85,3.52,7.85,7.85v177.42c0,4.33-3.52,7.85-7.85,7.85Zm-232.1-191.39c-3.38,0-6.12,2.74-6.12,6.12v177.42c0,3.38,2.74,6.12,6.12,6.12h232.1c3.38,0,6.12-2.74,6.12-6.12v-177.42c0-3.38-2.74-6.12-6.12-6.12h-232.1Z"/><path class="cls-4" d="m131.32,331.94v26.79c0,3.56,2.89,6.44,6.45,6.45h232.1c3.56,0,6.44-2.89,6.45-6.45v-26.79h-245Z"/><rect class="cls-2" x="253.81" y="109.63" width="1.73" height="288.87" transform="translate(-96.61 331.56) rotate(-57.37)"/><rect class="cls-2" x="110.93" y="253.2" width="288.87" height="1.73" transform="translate(-96.69 177.79) rotate(-32.63)"/><polygon class="cls-6" points="582.12 557.76 571.39 557.76 566.28 516.37 582.12 516.37 582.12 557.76"/><path class="cls-11" d="m581.83,554.25l-11.45-4.65-.34-.14-6.32,4.79c-7.21,0-13.14,5.68-13.45,12.88-.02.19-.02.39-.02.59v.44h34.6v-13.91h-3.02Z"/><polygon class="cls-6" points="556.99 547.77 546.87 551.33 528.32 513.99 543.25 508.73 556.99 547.77"/><path class="cls-11" d="m555.56,544.56l-12.34-.59-.36-.02-4.37,6.62c-6.8,2.39-10.51,9.72-8.41,16.61.05.19.11.37.18.56l.15.42,32.64-11.48-4.62-13.12-2.85,1Z"/><path class="cls-11" d="m585.91,379.31c9.82-.38-2.34,77.85-2.34,77.85,0,0,3.56,68.68,2.8,72.28s-.1,13.32-.1,13.32c-1.92-3.5-21.77-.86-21.77-.86l-2.7-69.61-13.78-55.77-19.11,37.38,18.31,57.38s7.42,6.86,6.63,9.57c-.79,2.71-20.21,8.83-23.78,8.97s-1.96-4.39-2.13-8.85-16.97-45.82-22.88-59.89c-5.91-14.07-1.31-33.91,1.7-48.33s18.88-41.47,18.88-41.47c19.69-22.21,50.44,8.4,60.26,8.02Z"/><path class="cls-6" d="m466.28,316.09c2.03,3.88,6.82,5.38,10.71,3.35.41-.22.81-.47,1.18-.76l23.61,15.4-.07-14.65-22.41-12.38c-2.92-3.3-7.96-3.6-11.26-.68-2.76,2.44-3.48,6.46-1.75,9.71Z"/><path class="cls-9" d="m580.81,391.85c-24.34,0-37.76-4.87-44.88-9.22-8.71-5.32-10.2-10.93-10.26-11.17l-.02-.07.85-10.67.37-.83c1.71-3.82,1.94-8.15.64-12.13l-.03-.08v-.09s5.7-73.82,5.7-73.82l20.14-6.6,5.86-5.89,26.09-.38,3.64,7.37,20.57,7.74-10.11,60.15-4.84,8.35,1.95,9.1v.08s-6.37,37.93-6.37,37.93l-.35.02c-3.13.14-6.12.21-8.95.21Z"/><path class="cls-9" d="m517.83,345.79l-9.55-5.66-.6-.86c-2.47-3.55-6.47-5.72-10.79-5.84h-.11s-13.15-7.74-13.15-7.74l5.45-15.97,20.62,6.09,14.38-35.72c2.36-5.86,9.02-8.69,14.87-6.34,2.26.91,4.18,2.52,5.46,4.6,1.14,1.88,1.73,4.04,1.7,6.24v23.37l-.09.12-28.2,37.72Z"/><path class="cls-6" d="m581.68,378.11c.77-4.31,4.89-7.18,9.2-6.41.46.08.91.2,1.35.37l17.89-21.78,4.33,13.99-17.65,18.54c-1.79,4.02-6.51,5.83-10.53,4.03-3.37-1.5-5.26-5.11-4.59-8.74h0Z"/><path class="cls-9" d="m608.43,375.36l-11.88-11.88,7.56-18.42,10.96-14.96c-11.68-5.68-20.44-19.15-26.79-30.3l-.07-.13,1.58-12.39c.37-2.9,1.53-5.64,3.35-7.92,5.49-6.86,15.5-7.98,22.36-2.49,1.4,1.12,2.59,2.46,3.54,3.97l21.3,47.34-.24.36-17.13,29.2-4.68,3.03-9.87,14.58Z"/><path class="cls-6" d="m590.96,236.07c-1.63,11.9-12.59,20.22-24.49,18.6-11.89-1.62-20.21-12.57-18.6-24.46l.04-.31c1.9-11.86,13.04-19.93,24.9-18.04,11.59,1.85,19.61,12.57,18.14,24.21h0Z"/><path class="cls-11" d="m585.43,247.27c1.12-2.27,2.26-4.7,1.95-7.21s-2.77-4.91-5.19-4.16c-1.44.45-2.54,1.87-4.05,1.95-2.08.1-3.27-2.28-3.92-4.25l-2.63-8.05c-5.12,3.99-11.75,5.49-18.09,4.09-2.45-.56-4.92-1.65-6.35-3.71s-1.43-5.25.54-6.81c.96-.76,2.25-1.05,3.17-1.87,1.47-1.3,1.61-3.54.31-5.01-.79-.89-1.97-1.33-3.15-1.17l6.63-.83-1.98-3.57c1.52,1.03,3.4,1.38,5.19.95,1.78-.32,3.46-1.06,5.21-1.55,8.69-2.22,17.8,1.61,22.3,9.37,3.34-1.12,7.02-.05,9.26,2.67,1.78,2.25,2.26,5.26,2.33,8.13.13,5.65-1.1,11.26-3.59,16.33-.71,1.61-1.74,3.07-3.02,4.28-1.3,1.22-3.08,1.8-4.85,1.59"/><path class="cls-7" d="m233.12,224.9c.35,5.06,1.85,9.98,4.36,14.39,5.31,9.32,14.41,16.07,24.21,20.08,12.24,5.01,25.89,5.16,38.89,4.05,12.07-1.04,24.02-3.44,36.13-3.94,9.37-.3,18.75-.08,28.09.67,18.13,1.29,36.18,3.67,54.11,6.57,4.86.77,9.7,1.61,14.54,2.5.46.04.91.12,1.35.25.09.04.23,0,.31.06.15.09-.59-.23-.14.14.62.65,1.18,1.37,1.66,2.13l6.62,8.52c1.9,2.44,3.66,5.41,6.12,7.34,3.54,2.73,8.38,3.07,12.26.85,1.98-1.25,3.57-3.05,4.56-5.18,1.52-2.79,3.34-5.42,5.42-7.83,7.88-9.19,18.83-14.85,27.99-22.58,4.44-3.59,8.22-7.92,11.2-12.8,2.54-4.41,4.11-9.31,4.63-14.37,1.1-10.28-2.06-20.77-7.36-29.51-5.77-9.4-14.06-16.99-23.93-21.9-11.09-5.65-23.35-8.4-35.65-9.77-13.06-1.46-26.26-1.45-39.39-1.3-14.72.16-29.42.81-44.09,1.94-14.69,1.14-29.32,2.75-43.9,4.85-13.99,2.01-28.14,4.11-41.83,7.66-12.09,3.14-24.15,8.06-33.18,16.96-8.03,7.91-13.61,18.75-12.97,30.23Z"/><path class="cls-5" d="m300.72,228.17c-2.39-.11-4.24-2.13-4.14-4.53,0-.12.01-.23.03-.34l.31-2.45c.12-.95-.23-1.9-.95-2.54l-1.84-1.64c-1.78-1.59-1.93-4.32-.34-6.1.63-.71,1.48-1.19,2.42-1.37l2.42-.46c.94-.18,1.74-.81,2.12-1.69l.99-2.26c.96-2.19,3.52-3.18,5.7-2.21.87.38,1.59,1.04,2.05,1.88l1.19,2.16c.46.84,1.31,1.4,2.26,1.5l2.45.25c2.38.24,4.11,2.36,3.87,4.74-.1.95-.5,1.83-1.15,2.53l-1.69,1.8c-.66.7-.93,1.68-.73,2.61l.52,2.41c.5,2.33-.98,4.64-3.31,5.14-.93.2-1.9.09-2.76-.31l-2.23-1.05c-.87-.41-1.88-.37-2.71.12l-2.13,1.24c-.71.42-1.53.62-2.36.59Z"/><path class="cls-5" d="m335.44,227.16c-1.1-.05-2.14-.52-2.91-1.3-.95-1-1.38-2.38-1.17-3.74l.29-2.24c.12-.97-.24-1.94-.97-2.59l-1.7-1.52c-1.02-.87-1.59-2.15-1.56-3.49.08-2.02,1.54-3.71,3.52-4.08l2.39-.45c.96-.18,1.77-.83,2.17-1.72l.89-2.03c.65-1.57,2.12-2.64,3.82-2.78,1.66-.09,3.23.78,4.02,2.24l1.17,2.14c.47.86,1.33,1.43,2.31,1.53l2.27.23c1.34.1,2.55.81,3.31,1.91,1.12,1.68.93,3.9-.45,5.37l-1.67,1.77c-.67.71-.95,1.71-.74,2.66l.48,2.23c.31,1.3.02,2.67-.78,3.74-1.24,1.59-3.43,2.11-5.25,1.24l-2.21-1.04c-.88-.42-1.92-.37-2.76.12l-2.11,1.23c-.71.42-1.53.62-2.36.59Z"/><path class="cls-5" d="m370.26,227.01c-2.39-.11-4.24-2.13-4.14-4.53,0-.12.01-.23.03-.34l.31-2.45c.12-.95-.23-1.9-.95-2.54l-1.84-1.64c-1.78-1.59-1.93-4.32-.34-6.1.63-.71,1.48-1.19,2.42-1.37l2.42-.46c.94-.18,1.74-.81,2.12-1.69l.99-2.26c.96-2.19,3.52-3.18,5.7-2.21.87.38,1.59,1.04,2.05,1.88l1.19,2.16c.46.84,1.31,1.4,2.26,1.5l2.45.25c2.38.24,4.11,2.36,3.87,4.74-.1.95-.5,1.83-1.15,2.53l-1.69,1.8c-.66.7-.93,1.68-.73,2.61l.52,2.41c.5,2.33-.98,4.64-3.31,5.14-.93.2-1.9.09-2.76-.31l-2.23-1.05c-.87-.41-1.88-.37-2.71.12l-2.13,1.24c-.71.42-1.53.62-2.36.59Z"/><path class="cls-12" d="m404.12,226.09c-2.39-.11-4.24-2.13-4.14-4.53,0-.12.01-.23.03-.34l.31-2.45c.12-.95-.23-1.9-.95-2.54l-1.84-1.64c-1.78-1.59-1.93-4.32-.34-6.1.63-.71,1.48-1.19,2.42-1.37l2.42-.46c.94-.18,1.74-.81,2.12-1.69l.99-2.26c.96-2.19,3.52-3.18,5.7-2.21.87.38,1.59,1.04,2.05,1.88l1.19,2.16c.46.84,1.31,1.4,2.26,1.5l2.45.25c2.38.24,4.11,2.36,3.87,4.74-.1.95-.5,1.83-1.15,2.53l-1.69,1.8c-.66.7-.93,1.68-.73,2.61l.52,2.41c.5,2.33-.98,4.64-3.31,5.14-.93.2-1.9.09-2.76-.31l-2.23-1.05c-.87-.41-1.88-.37-2.71.12l-2.13,1.24c-.71.42-1.53.62-2.36.59Z"/><path class="cls-12" d="m437.98,225.18c-2.39-.11-4.24-2.13-4.14-4.53,0-.12.01-.23.03-.34l.31-2.45c.12-.95-.24-1.9-.95-2.54l-1.84-1.64c-1.78-1.59-1.93-4.32-.34-6.1.63-.71,1.48-1.19,2.42-1.37l2.42-.46c.94-.18,1.74-.81,2.12-1.69l.99-2.26c.96-2.19,3.52-3.18,5.7-2.21.87.38,1.59,1.04,2.05,1.88l1.19,2.16c.46.84,1.31,1.4,2.26,1.5l2.45.25c2.38.24,4.11,2.36,3.87,4.74-.1.95-.5,1.83-1.15,2.53l-1.69,1.8c-.66.7-.93,1.68-.73,2.61l.52,2.41c.5,2.33-.98,4.64-3.31,5.14-.93.2-1.9.09-2.76-.31l-2.23-1.05c-.87-.41-1.88-.37-2.71.12l-2.13,1.24c-.71.42-1.53.62-2.36.59Z"/><path class="cls-1" d="m653.72,514.09l.99-22.27c10.33-5.52,21.84-8.44,33.55-8.49-16.12,13.18-14.1,38.57-25.03,56.29-6.99,11.14-18.66,18.5-31.73,20l-13.49,8.26c-3.75-20.88,1.84-42.35,15.28-58.76,3.77-4.51,8.1-8.53,12.87-11.96,3.23,8.52,7.54,16.94,7.54,16.94Z"/><path class="cls-8" d="m731.03,569.82h-361.46c-.57,0-1.03-.46-1.03-1.03s.46-1.03,1.03-1.03h361.47c.57,0,1.03.46,1.03,1.03s-.46,1.03-1.03,1.03h0Z"/></svg>