<?xml version="1.0" encoding="UTF-8"?><svg id="Laag_1" xmlns="http://www.w3.org/2000/svg" viewBox="0 0 841.89 595.28"><defs><style>.cls-1{fill:#f2f2f2;}.cls-2{fill:#e6e6e6;}.cls-3{fill:#fff;}.cls-4{fill:#ffb6b6;}.cls-5{fill:#ffb8b8;}.cls-6{fill:#e4e4e4;}.cls-7{fill:#8c1cec;}.cls-8{fill:#9e616a;}.cls-9{fill:#3f3d56;}.cls-10{fill:#5c0f9e;}.cls-11{fill:#32cbe4;}.cls-12{fill:#2f2e41;}</style></defs><path class="cls-1" d="m134.55,407.29c-3.08,0-6.17.13-9.19.38l-.44.04c-20.02,1.77-34.66,12.04-34.06,23.88l.12,2.14c.08,1.35.16,2.81.23,4.42.04.8,1.12,1.41,2.48,1.41h492.38c34.71-.21,69.3-.48,102.8-.79,6.28.01,12.56-.31,18.81-.97,9.31-1.1,15.77-3.29,19.75-6.68h0c4.95-4.2,5.11-9.5,4.81-15.48-.61-12.08-1.22-24.77-1.82-37.42-.53-11.15-1.06-22.27-1.6-32.92-.33-6.32-1.06-11.9-6.68-16.16-6.1-4.61-17.22-6.95-33.06-6.95-.19,0-.38,0-.58,0-49.63.18-98.81,17.24-122.38,42.47-2.71,2.9-5.24,6.01-7.69,9.02-3.61,4.44-7.35,9.04-11.81,13.15-2.41,2.25-5.02,4.29-7.8,6.08-.19.13-.41.27-.64.41-.53.35-1.08.68-1.62.97-3.16,1.83-6.49,3.34-9.95,4.52l-.35.12c-.26.09-.55.19-.83.27-1.99.64-4.07,1.19-6.14,1.64-8.98,1.98-19.19,2.45-30.35,1.41-10.25-.99-20.36-3.05-30.18-6.15-10.33-3.27-20.01-7.34-29.36-11.28-4.11-1.73-8.36-3.52-12.6-5.21-.8-.32-1.58-.63-2.38-.94-5.18-2.02-9.88-3.69-14.37-5.1-11.11-3.51-22.61-5.64-34.24-6.34-12.34-.68-23.22.6-32.33,3.78-2.51.87-4.95,1.93-7.31,3.15-10.78,5.6-17.43,13.86-23.85,21.85-8,9.94-16.26,20.22-32.59,25.55-18.84,6.15-46.33,3.6-65.79-.85-6.12-1.4-12.22-3.01-18.13-4.56-2.39-.63-4.77-1.25-7.16-1.87-4.7-1.21-8.54-2.14-12.09-2.93l-1.12-.25c-.63-.14-1.25-.27-1.89-.4-4.22-.89-8.15-1.58-12.03-2.13l-.92-.13c-1.84-.24-3.55-.44-5.24-.61l-.67-.07c-3.3-.31-6.72-.47-10.14-.47Z"/><path class="cls-2" d="m643.7,420.5c13.85-12.48,34.46-18.76,51.75-11.76-17.73,9.84-31.41,25.64-38.61,44.6-2.75,7.32-5.05,15.75-11.82,19.67-4.21,2.44-9.45,2.56-14.17,1.38-4.72-1.18-9.05-3.54-13.32-5.87l-1.21-.03c5.45-17.83,13.54-35.51,27.39-47.99Z"/><path class="cls-3" d="m695.35,409.12c-15.31,1.98-29.61,8.73-40.86,19.3-2.46,2.23-4.56,4.84-6.21,7.72-1.52,2.86-2.24,6.08-2.1,9.31.07,3.02.5,6.1-.16,9.09-.73,3.08-2.74,5.7-5.53,7.21-3.38,1.94-7.26,2.56-11.08,3.03-4.24.52-8.64.99-12.31,3.37-.44.29-.86-.42-.42-.71,6.38-4.13,14.45-2.63,21.31-5.39,3.2-1.29,6.03-3.55,7.04-6.96.88-2.99.44-6.16.34-9.22-.19-3.15.4-6.31,1.71-9.18,1.5-2.96,3.49-5.64,5.89-7.93,5.32-5.24,11.43-9.62,18.11-12.96,7.6-3.86,15.81-6.39,24.26-7.49.52-.07.53.76,0,.82h0Z"/><path class="cls-3" d="m657.91,424.8c-3.13-4.4-2.62-10.42,1.21-14.22.38-.37.97.2.59.57-3.58,3.53-4.04,9.15-1.1,13.23.31.43-.4.85-.71.42h0Z"/><path class="cls-3" d="m645.94,443.93c5.26.93,10.68-.15,15.18-3.04.45-.29.87.42.42.71-4.68,2.99-10.33,4.11-15.8,3.13-.52-.09-.32-.89.2-.8Z"/><path class="cls-3" d="m678.75,413.01c.84,1.92,2.6,3.29,4.66,3.64.52.09.32.88-.2.8-2.28-.4-4.22-1.9-5.17-4.02-.11-.2-.05-.44.14-.56.2-.12.45-.05.56.14h0Z"/><path class="cls-2" d="m714.48,468.95c-.33-.05-.66-.09-.99-.13-4.41-.59-8.86-.81-13.31-.68-.34,0-.69.02-1.04.03-10.71.44-21.24,2.87-31.07,7.15-3.91,1.71-7.68,3.71-11.28,5.99-4.98,3.15-10.12,6.96-15.69,8.25-.58.14-1.17.25-1.76.31l-22.99-19.9c-.03-.07-.06-.14-.09-.21l-.95-.75c.18-.13.36-.26.54-.39.1-.08.21-.15.31-.22.07-.05.14-.1.2-.15.02-.02.05-.03.07-.04.06-.05.12-.09.18-.13,1.04-.74,2.09-1.47,3.15-2.2t.01,0c8.01-5.62,16.65-10.26,25.75-13.84.27-.1.55-.21.83-.31,4.1-1.52,8.31-2.71,12.61-3.55,2.35-.45,4.72-.78,7.11-.99,6.16-.53,12.37-.09,18.4,1.3,12.01,2.79,23,9.38,29.51,19.67.17.26.33.52.49.79Z"/><path class="cls-3" d="m714.18,469.2c-13.41-7.64-28.9-10.85-44.24-9.19-3.31.3-6.55,1.12-9.61,2.43-2.93,1.37-5.45,3.5-7.28,6.17-1.76,2.46-3.27,5.17-5.6,7.16-2.44,2.02-5.62,2.9-8.75,2.43-3.87-.48-7.34-2.33-10.67-4.25-3.69-2.14-7.5-4.41-11.86-4.72-.53-.04-.44-.85.09-.82,7.58.54,13.12,6.6,20.26,8.53,3.33.9,6.95.8,9.81-1.32,2.5-1.86,4.06-4.66,5.82-7.16,1.75-2.63,4.12-4.8,6.9-6.3,2.98-1.46,6.18-2.4,9.48-2.79,7.4-.98,14.92-.8,22.26.55,8.39,1.49,16.47,4.41,23.88,8.63.46.26-.03.92-.49.66h0Z"/><path class="cls-3" d="m674.84,459.18c.15-5.4,4.18-9.89,9.53-10.62.52-.07.66.74.13.81-4.98.67-8.74,4.87-8.84,9.9-.01.53-.83.44-.82-.09h0Z"/><path class="cls-3" d="m653.77,467.24c3.64,3.91,8.62,6.31,13.95,6.71.53.04.44.86-.09.82-5.54-.43-10.72-2.93-14.5-7.01-.36-.39.28-.9.64-.52Z"/><path class="cls-3" d="m698.58,462.31c-.48,2.04.09,4.19,1.53,5.72.36.38-.28.9-.64.52-1.58-1.69-2.22-4.06-1.71-6.32.03-.22.23-.38.45-.36.23.03.39.23.36.45h0Z"/><path class="cls-2" d="m281.02,432.92c11.34-17.21,31.64-29.65,52.07-26.98-16.23,15.46-26.46,36.16-28.89,58.45-.91,8.6-1.02,18.25-7.17,24.33-3.83,3.78-9.4,5.37-14.77,5.42-5.38.05-10.66-1.27-15.88-2.58l-1.31.31c.87-20.59,4.6-41.74,15.95-58.95Z"/><path class="cls-3" d="m333.09,406.38c-15.82,6.38-29.24,17.57-38.33,32.01-2.01,3.07-3.53,6.44-4.49,9.99-.83,3.48-.71,7.12.35,10.54.92,3.21,2.23,6.39,2.36,9.76.08,3.5-1.34,6.86-3.9,9.25-3.08,3.02-7.06,4.76-11.01,6.32-4.39,1.73-8.97,3.47-12.23,7.03-.4.43-1.04-.21-.65-.64,5.67-6.2,14.72-6.83,21.29-11.69,3.07-2.27,5.47-5.47,5.59-9.4.11-3.44-1.24-6.72-2.2-9.96-1.08-3.32-1.33-6.86-.73-10.3.78-3.58,2.16-7.01,4.09-10.12,4.23-7.09,9.55-13.47,15.76-18.9,7.06-6.24,15.13-11.23,23.86-14.75.54-.22.77.66.24.88h0Z"/><path class="cls-3" d="m297.42,433.56c-4.57-3.83-5.7-10.41-2.66-15.54.3-.5,1.09-.06.79.44-2.84,4.78-1.78,10.91,2.5,14.45.45.37-.19,1.02-.64.65h0Z"/><path class="cls-3" d="m289.93,457.35c5.89-.47,11.38-3.13,15.39-7.47.4-.43,1.04.21.65.64-4.18,4.51-9.9,7.27-16.03,7.74-.58.04-.59-.86,0-.91h0Z"/><path class="cls-3" d="m316.42,415.16c1.44,1.82,3.69,2.8,6,2.6.58-.05.59.86,0,.91-2.55.21-5.04-.86-6.65-2.86-.17-.18-.17-.46,0-.64.18-.18.46-.18.64,0h0Z"/><path class="cls-2" d="m370.2,465.04c-.36.04-.73.09-1.09.14-4.88.6-9.7,1.6-14.42,2.98-.37.1-.74.21-1.1.32-11.33,3.45-21.92,8.97-31.24,16.29-3.7,2.92-7.18,6.11-10.4,9.55-4.45,4.75-8.89,10.26-14.48,13.19-.58.31-1.18.59-1.79.82l-30.12-14.89c-.05-.07-.11-.13-.16-.2l-1.23-.54c.15-.19.32-.38.47-.57.09-.11.18-.22.27-.33.06-.07.12-.14.17-.21.02-.02.04-.05.06-.07.05-.07.11-.13.15-.19.91-1.08,1.83-2.16,2.76-3.23t.01-.01c7.1-8.15,14.94-15.77,23.69-21.97.26-.19.53-.38.81-.56,3.96-2.77,8.14-5.21,12.5-7.3,2.39-1.14,4.83-2.15,7.33-3.04,6.44-2.28,13.21-3.54,20.04-3.72,13.62-.36,27.21,3.64,37.04,12.83.25.24.5.47.74.71Z"/><path class="cls-3" d="m369.94,465.39c-16.47-4.44-33.92-3.57-49.88,2.48-3.46,1.24-6.7,3.02-9.6,5.27-2.76,2.28-4.85,5.26-6.07,8.63-1.2,3.12-2.06,6.44-4,9.21-2.05,2.84-5.2,4.67-8.68,5.03-4.28.56-8.5-.45-12.59-1.58-4.55-1.26-9.25-2.63-13.99-1.75-.58.11-.71-.79-.13-.9,8.26-1.53,15.87,3.41,24.04,3.49,3.81.04,7.66-1.08,10.12-4.15,2.16-2.68,3.05-6.11,4.23-9.28,1.14-3.3,3.07-6.27,5.62-8.66,2.78-2.39,5.95-4.29,9.36-5.62,7.65-3.11,15.73-5,23.96-5.6,9.39-.74,18.84.14,27.94,2.59.56.15.22.99-.34.84h0Z"/><path class="cls-3" d="m325.09,465.62c-1.34-5.81,1.72-11.74,7.24-14.01.54-.22.91.61.37.83-5.14,2.1-7.99,7.64-6.71,13.05.13.57-.76.7-.9.13h0Z"/><path class="cls-3" d="m304.79,480.11c4.98,3.17,10.97,4.35,16.78,3.3.58-.1.71.79.13.9-6.05,1.08-12.28-.16-17.46-3.47-.49-.32.05-1.04.54-.73Z"/><path class="cls-3" d="m351.34,462.36c.05,2.32,1.26,4.46,3.23,5.69.5.31-.05,1.04-.54.73-2.16-1.37-3.51-3.72-3.59-6.28-.03-.25.14-.47.38-.52.25-.04.48.14.52.38Z"/><path class="cls-4" d="m361.76,303.92c2.84-2.83,2.86-7.43.03-10.27-.3-.3-.63-.58-.98-.82l11.86-57.38-12.79,4.04-9.54,55.51c-2.09,3.45-.99,7.94,2.46,10.03,2.89,1.75,6.59,1.3,8.97-1.1h0Z"/><path class="cls-2" d="m389.16,150.53l-7.92-5.98s-6.99-.49-8.23,12.11c-1.24,12.61-8.99,60.99-8.99,60.99l-12.12,56.16,16.78,3.68,12.99-60.6,13-41.81-5.5-24.54Z"/><path class="cls-9" d="m383.12,254.45l-38.01-29.55c-1.23-.96-1.46-2.74-.5-3.97l25.86-33.26c.96-1.23,2.74-1.46,3.97-.5l38.01,29.55c1.23.96,1.46,2.74.5,3.97l-25.86,33.26c-.96,1.23-2.74,1.46-3.97.5Z"/><path class="cls-3" d="m382.92,251.39l-34.78-27.05c-1.09-.85-1.29-2.43-.44-3.53l23.44-30.15c.85-1.09,2.43-1.29,3.53-.44l34.78,27.05c1.09.85,1.29,2.43.44,3.53l-23.44,30.15c-.85,1.09-2.43,1.29-3.53.44Z"/><path class="cls-6" d="m352.69,223.57c-.27-.21-.32-.61-.11-.88l11.83-15.21c.21-.27.61-.32.88-.11.27.21.32.61.11.88h0l-11.83,15.21c-.21.27-.61.32-.88.11Z"/><path class="cls-6" d="m354.65,225.1c-.27-.21-.32-.61-.11-.88l11.83-15.21c.21-.27.61-.32.88-.11.27.21.32.61.11.88l-11.83,15.21c-.21.27-.61.32-.88.11Z"/><path class="cls-6" d="m363.31,218.01c-.27-.21-.32-.61-.11-.88l5.13-6.59c.21-.27.61-.32.88-.11.27.21.32.61.11.88h0l-5.13,6.59c-.21.27-.61.32-.88.11Z"/><path class="cls-6" d="m365.95,230.94c-.27-.21-.32-.61-.11-.88l18.67-24.01c.21-.27.61-.32.88-.11.27.21.32.61.11.88h0l-18.67,24.01c-.21.27-.61.32-.88.11Z"/><path class="cls-6" d="m367.91,232.47c-.27-.21-.32-.61-.11-.88l18.67-24.01c.21-.27.61-.32.88-.11.27.21.32.61.11.88l-18.67,24.01c-.21.27-.61.32-.88.11Z"/><path class="cls-6" d="m372.36,235.93c-.27-.21-.32-.61-.11-.88l18.67-24.01c.21-.27.61-.32.88-.11.27.21.32.61.11.88l-18.67,24.01c-.21.27-.61.32-.88.11Z"/><path class="cls-6" d="m374.32,237.45c-.27-.21-.32-.61-.11-.88l18.67-24.01c.21-.27.61-.32.88-.11.27.21.32.61.11.88l-18.67,24.01c-.21.27-.61.32-.88.11Z"/><path class="cls-6" d="m378.77,240.91c-.27-.21-.32-.61-.11-.88l18.67-24.01c.21-.27.61-.32.88-.11.27.21.32.61.11.88h0l-18.67,24.01c-.21.27-.61.32-.88.11Z"/><path class="cls-6" d="m380.73,242.44c-.27-.21-.32-.61-.11-.88l18.67-24.01c.21-.27.61-.32.88-.11.27.21.32.61.11.88l-18.67,24.01c-.21.27-.61.32-.88.11Z"/><circle class="cls-3" cx="349.53" cy="270.06" r=".26"/><path class="cls-12" d="m387.12,92.55c-.91,4.88-2.4,9.63-4.43,14.15-11.66,24.67,21.55,16.63,33.42,16.63,12.98,0,25.4,6.82,23.5-23.5-.81-12.95-10.52-23.5-23.5-23.5-11.09,0-26.67,4.93-28.99,16.22Z"/><polygon class="cls-4" points="428.21 454.43 417.15 454.43 411.89 411.78 428.21 411.78 428.21 454.43"/><path class="cls-12" d="m434.05,473.59h-7.93l-1.42-7.49-3.63,7.49h-21.03c-2.61,0-4.73-2.12-4.73-4.73,0-1.55.76-3.01,2.04-3.89l16.8-11.6v-7.57l17.67,1.05,2.23,26.73Z"/><polygon class="cls-4" points="493.91 440.47 485.03 447.07 455.36 415.99 468.46 406.25 493.91 440.47"/><path class="cls-12" d="m510.02,452.37l-6.36,4.73-5.6-5.16,1.56,8.17-16.88,12.55c-2.1,1.56-5.06,1.12-6.61-.97-.93-1.25-1.18-2.87-.68-4.34l6.56-19.33-4.52-6.07,14.81-9.7,17.74,20.12Z"/><polygon class="cls-4" points="392 258.14 444.49 249.96 434.05 218.56 392 218.56 392 258.14"/><path class="cls-12" d="m441.09,234.37s20.98,18.13,11.3,69.8l-11.82,50.63,32.2,55.9-16.37,8.93-39.68-55.15-18.16-42.59-9.6-74.64,52.13-12.88Z"/><polygon class="cls-12" points="408.57 334.03 407.3 353.58 411 411.45 429.34 417.76 432.81 358.47 408.57 334.03"/><path class="cls-2" d="m402.93,129.83l20.29.79,8.09,13.42,18.45,3.6-11.01,55.72,2.03,31.71-18.37-.11c-13.24-.08-26.04,4.73-35.95,13.51h0l.55-41.17-7.9-30.73,1.78-32.22,14.84-1.86,7.22-12.67Z"/><circle class="cls-4" cx="414.17" cy="104.22" r="19.1"/><path class="cls-12" d="m401.2,84.76c10.31-6.29,23.77-3.02,30.06,7.29,2.16,3.55,3.27,7.64,3.19,11.8-9.73,2.44-19.95,4.31-30.33.58l-2.45-6-1.44,6c-3.16,1.29-6.33,2.38-9.5-.01-.26-7.95,3.72-15.44,10.47-19.67Z"/><path class="cls-11" d="m446.22,273.58l2.57,23.36c.37,1.2,1.47,2.01,2.73,2.01h11.87c1.25,0,2.36-.82,2.73-2.01l2.13-17.91c2.15,1.05,4.74.17,5.79-1.98s.17-4.74-1.98-5.79c-.84-.41-1.78-.54-2.7-.37-.54-.64-1.33-1-2.16-1h-18.25c-1.58,0-2.85,1.28-2.85,2.85,0,.28.04.57.13.84Zm22.4,4.25l1.31-4.25c.15-.49.17-1.01.04-1.51.06,0,.11-.02.16-.02,1.71,0,3.09,1.38,3.09,3.09,0,1.71-1.38,3.09-3.09,3.09h0c-.53,0-1.05-.15-1.51-.41Z"/><path class="cls-4" d="m464.12,298.97c-2.83-2.84-2.82-7.44.03-10.27.3-.3.63-.58.98-.82l-11.56-57.44,12.77,4.1,9.26,55.56c2.07,3.46.95,7.94-2.51,10.02-2.89,1.74-6.6,1.26-8.97-1.15Z"/><path class="cls-2" d="m441.83,153.63l7.92-5.98s6.99-.49,8.23,12.11c1.24,12.61,8.99,60.99,8.99,60.99l12.12,56.16-16.78,3.68-12.99-60.6-13-41.81,5.5-24.54Z"/><circle class="cls-11" cx="373.44" cy="201.43" r="4.49"/><polygon class="cls-4" points="230.41 506.46 239.76 506.46 244.21 470.41 230.41 470.41 230.41 506.46"/><path class="cls-12" d="m228.03,503.41h2.63s10.27-4.18,10.27-4.18l5.51,4.18h0c6.48,0,11.73,5.25,11.73,11.73v.38h-30.14s0-12.11,0-12.11Z"/><polygon class="cls-4" points="266.64 500.57 275.76 502.63 288.04 468.44 274.58 465.4 266.64 500.57"/><path class="cls-12" d="m264.98,497.07l2.57.58,10.94-1.81,4.45,5.29h0c6.32,1.43,10.29,7.71,8.86,14.03l-.08.37-29.4-6.64,2.67-11.82Z"/><path class="cls-12" d="m213.3,321l8.45,94.7s-3.17,56.86,7.05,76.86h14.82l7.34-82.05.92-55.08,31.78,46.47-20.24,89.32,18.24,1.63,32.84-96.94-36.08-91-65.13,16.08Z"/><circle class="cls-5" cx="222.15" cy="148.39" r="21.8"/><path class="cls-9" d="m260.48,190.96l-17.88-7.67-8.71-9.23-21.75,3.51-5.77,9.89-18.68,17.37,21.89,98.96-.66,21.61s14.01,6.31,74.75-8.21c.73-.17-.8-.94-.8-.94l-22.39-125.28Z"/><path class="cls-12" d="m199.49,160.76c-.15-.21-.3-.42-.45-.63-.06.13-.11.26-.18.38l.63.25Z"/><path class="cls-12" d="m243.84,132.45c-1.46-3.17-4.06-5.68-7.28-7.03-3.19-1.29-6.76-1.29-9.96,0-2.88-1.82-6.08-3.26-9.46-3.44s-6.94,1.07-9.02,3.83c-.46.73-.99,1.41-1.58,2.05-1.67,1.55-4.21,1.32-6.43,1.01,1,.85,1.99,1.71,2.99,2.56-1.21.31-2.41.63-3.62.94,1.41.85,2.81,1.71,4.22,2.56-4.08,2.45-5.94,7.8-5.45,12.66.46,4.6,2.68,8.81,5.34,12.55,1.06-2.24.83-4.91.81-7.43-.02-2.66.45-5.68,2.58-7.17,1.44-1,3.29-1.05,5.02-1.04,8.75.05,17.48.59,26.16,1.63,1.18.05,2.33.38,3.35.97,1.92,1.31,2.29,4.01,2.49,6.39,1.01-3.92,1.51-7.95,1.48-11.99.09-3.1-.48-6.19-1.67-9.05Z"/><circle class="cls-3" cx="250.63" cy="353.08" r="34.31"/><path class="cls-9" d="m250.63,318.01c-1.76,0-3.52.13-5.27.4-.89.13-1.76.3-2.62.5-18.87,4.35-30.63,23.17-26.29,42.03,1.69,7.33,5.7,13.93,11.43,18.81.59.5,1.18.98,1.8,1.43,15.53,11.58,37.5,8.37,49.07-7.15,11.58-15.53,8.37-37.5-7.15-49.07-6.06-4.52-13.41-6.96-20.97-6.95h0Zm0,68.62c-7.13,0-14.08-2.27-19.82-6.5-.63-.46-1.23-.93-1.81-1.43-14.15-11.94-15.95-33.09-4.01-47.25,4.87-5.78,11.56-9.74,18.97-11.24.85-.18,1.71-.31,2.58-.42,1.36-.17,2.73-.25,4.1-.25,18.53,0,33.55,15.02,33.55,33.55s-15.02,33.55-33.55,33.55h0Z"/><rect class="cls-10" x="231.56" y="341.64" width="38.12" height="4.57" rx="2.23" ry="2.23"/><rect class="cls-10" x="231.56" y="350.79" width="38.12" height="4.57" rx="2.23" ry="2.23"/><rect class="cls-10" x="231.56" y="359.94" width="38.12" height="4.57" rx="2.23" ry="2.23"/><polygon class="cls-8" points="634.48 505.3 624.68 505.3 620.02 467.49 634.48 467.49 634.48 505.3"/><polygon class="cls-8" points="588.11 505.3 578.31 505.3 573.65 467.49 588.11 467.49 588.11 505.3"/><path class="cls-12" d="m588.46,515.52h-30.14v-.38c0-6.48,5.25-11.73,11.73-11.73h0l5.51-4.18,10.27,4.18h2.63s0,12.11,0,12.11Z"/><path class="cls-12" d="m636.08,515.52h-30.14v-.38c0-6.48,5.25-11.73,11.73-11.73h0l5.51-4.18,10.27,4.18h2.63s0,12.11,0,12.11Z"/><path class="cls-12" d="m578.5,281.55l-14.9,90.7,4.05,13.52-5.32,9.57,7.81,84.07-3.17,6.98,8.86,5.46h18.03l.96-76.11,4.45-11.17v-6.16l9.07-46.41,1.67,64.99,2.64,11.19-2.22,7.97,2.89,5.58,7.69,51.77h20.22l-1.56-12.04h0c3.62-1.83,5.54-5.89,4.67-9.85l-1.16-5.28,2.64-15.61,4.8-87.09-1.35-70.27-23.65-18.08-47.12,6.26Z"/><circle id="ab6171fa-7d69-4734-b81c-8dff60f9761b" class="cls-8" cx="612.65" cy="146.3" r="18.78"/><path class="cls-8" d="m571.61,317.55c3.09-3.19,3-8.28-.19-11.37-.34-.33-.71-.63-1.1-.89l7.3-27.62-14.07,4.73-4.78,25.5c-2.24,3.86-.93,8.81,2.93,11.05,3.23,1.88,7.32,1.3,9.9-1.41h0Z"/><path id="bc44dde2-a388-4b93-9ca4-c442728432a9-329" class="cls-2" d="m579.3,184.94l-3.02-.63-2.58,1.43s-7.2,9.59-7.2,18.39-8.79,93.54-8.79,93.54l15.99,7.2,12.79-66.36-7.2-53.56Z"/><path id="bf427902-b9bf-4946-b5d7-5c1c7e04535e-330" class="cls-12" d="m629.09,132.53s4.91-9.39-5.9-10.24c0,0-9.21-8.36-18.6-1.53,0,0-5.12,0-7.92,5.8,0,0-4.03-1.53-4.91,2.56,0,0-2.95,8.54,0,16.22,2.95,7.68,3.93,8.54,3.93,8.54,0,0-4.84-16.11,6.95-16.96,11.79-.85,24.99-8.22,25.97,1.17.98,9.39,2.46,11.7,2.46,11.7,0,0,9.33-13.41-1.97-17.25Z"/><path class="cls-3" d="m697.7,395.35c-1.42,0-2.79-.52-3.84-1.47l-56.84-50.6c-2.38-2.13-2.6-5.78-.47-8.17l36.41-40.91c2.13-2.39,5.78-2.6,8.17-.48l56.84,50.6c2.39,2.13,2.6,5.79.47,8.17l-36.41,40.91c-1.02,1.15-2.45,1.85-3.99,1.93-.11,0-.23.01-.34.01Z"/><path class="cls-9" d="m697.7,395.72c-1.51,0-2.96-.55-4.09-1.56l-56.84-50.6c-2.54-2.26-2.76-6.16-.51-8.7l36.41-40.91c2.26-2.54,6.16-2.76,8.7-.51l56.84,50.6c2.54,2.26,2.77,6.16.51,8.7l-36.41,40.91c-1.08,1.22-2.61,1.96-4.25,2.06-.12,0-.24.01-.37.01Zm-20.42-102.34c-1.33,0-2.61.57-3.49,1.56l-36.41,40.91c-1.71,1.93-1.54,4.88.38,6.6l56.84,50.6c1.93,1.72,4.88,1.55,6.6-.38,0,0,0,0,0,0l36.41-40.91c1.72-1.93,1.54-4.88-.38-6.6l-56.84-50.6c-.85-.76-1.96-1.18-3.11-1.18h0Z"/><path class="cls-7" d="m718.32,356.61c-.61,0-1.21-.22-1.66-.63l-44.62-39.72c-1.04-.92-1.13-2.5-.22-3.54.92-1.04,2.5-1.13,3.54-.22,0,0,0,0,.01.01l44.62,39.72c1.03.92,1.13,2.5.21,3.54-.48.53-1.16.84-1.87.84Z"/><path class="cls-7" d="m709.81,366.17c-.61,0-1.21-.22-1.66-.63l-44.62-39.72c-1.03-.92-1.13-2.5-.21-3.54s2.5-1.13,3.54-.21h0l44.62,39.72c1.03.92,1.13,2.5.21,3.54-.48.54-1.16.84-1.87.84h0Z"/><path class="cls-7" d="m701.3,375.73c-.61,0-1.21-.22-1.66-.63l-44.62-39.72c-1.03-.92-1.13-2.5-.21-3.54s2.5-1.13,3.54-.21l44.62,39.72c1.03.92,1.13,2.5.21,3.54-.48.53-1.16.84-1.87.84h0Z"/><path class="cls-8" d="m650.27,319.18c-2.16-3.88-.77-8.77,3.1-10.94.41-.23.85-.42,1.29-.58l.05-28.57,12.38,8.19-1.94,25.87c1.17,4.31-1.37,8.75-5.67,9.92-3.6.98-7.41-.63-9.21-3.91Z"/><path id="f348f81f-b961-4ae4-bc6b-758f6acfb12a-331" class="cls-2" d="m651.42,192.77l5.53-5.33,4.06,2.93s4,4.8,7.2,19.19c3.2,14.39,0,93.54,0,93.54l-17.59-2.4,2.4-41.57-7.2-35.18,5.6-31.18Z"/><path class="cls-9" d="m659.58,188.74l-18.63-8.9-12.65-11.73-23.07-.17-7.44,9.67-19.65,6.67,3.27,67.74-2.23,5.21s1.56,1.41,2.27,2.19-.98,7.36-.98,7.36l-.95,7.16,2.65,1.89-3.44,4.06-.85,6.41s60.07-14.93,71.42,9.8c.6,1.31-.88-11.46-.88-11.46l-1.48-9.35,1.46-8.39,2.23-2.23-3.74-3.74,2.4-17.77,10.3-54.42Z"/><path class="cls-5" d="m237.01,338.92c1.75-4.44-.43-9.45-4.87-11.19-.47-.19-.96-.33-1.46-.43l-4.14-30.39-12,10.49,5.77,27.26c-.63,4.75,2.71,9.12,7.46,9.75,3.98.53,7.8-1.73,9.24-5.47Z"/><path id="e1bf2fad-858c-4bea-9733-320cc40b59f5-332" class="cls-9" d="m189.99,204.27l-3.25.62-1.97,2.48s-3.18,12.48.44,21.2c3.62,8.72,29.82,96.37,29.82,96.37l18.82.55-14.66-71.06-29.21-50.15Z"/><path class="cls-5" d="m264.18,334.46c-3.27-3.46-3.12-8.93.34-12.2.37-.35.77-.67,1.19-.94l-7.49-29.75,15.05,5.26,4.81,27.44c2.36,4.17.89,9.47-3.28,11.83-3.49,1.97-7.88,1.3-10.62-1.63Z"/><path id="ff35f29e-9865-4218-824f-c5cf71e1b056-333" class="cls-9" d="m257.6,191.99l3.25-.63,2.75,1.56s7.6,10.39,7.49,19.83c-.11,9.44,8.26,100.54,8.26,100.54l-17.26,7.52-12.89-71.41,8.4-57.42Z"/></svg>